<svg xmlns="http://www.w3.org/2000/svg" viewBox="0 0 677.16 677.19">
    <g data-name="Layer 2">
        <path fill="transparent" d="M338.57 0C151.58 0 0 151.61 0 338.6s151.58 338.59 338.57 338.59a338.3 338.3 0 0092.81-12.9C553.05 629.7 646.8 528.76 671 403.07a340.9 340.9 0 006.12-64.47C677.16 151.61 525.56 0 338.57 0z"/>
        <path fill="transparent" class="logo-center" d="M365.29 273.75v-38.22c0-14.35 9.47-17.68 16.18-17.68h41.09v-62.7l-.33-.32-56.23-.25a97.44 97.44 0 00-28 3.75c-39.31 11.73-49.17 48.39-49.17 73.38v42H252.5v65h36.33v183.9h76.46V338.72h51.54l6.68-65z"/>
        <path fill="transparent" class="logo-shadow" d="M422.59 176.46v41.36H381.5c-6.7 0-16.18 3.33-16.18 17.69v38.21h58.22l-6.68 65h-51.54v183.86l-62.43.06s-1.78-.1-2 2.33a2.65 2.65 0 00.59 2L444.31 660.2c13.57-4.31 30.62-11.87 30.62-11.87a339.41 339.41 0 00190.21-222c1.34-5-208.75-216.2-208.75-216.2l-.08-33.68z" style="mix-blend-mode:multiply"/>
    </g>
</svg>