<svg xmlns="http://www.w3.org/2000/svg" viewBox="0 0 677.16 677.88">
<defs>
<style>.cls-2{fill:#fff}.cls-3{fill:none}.cls-4{opacity:.2;isolation:isolate}</style>
</defs>
<g id="Layer_2" data-name="Layer 2">
    <g id="background">
        <g id="BACKGROUND-2" data-name="BACKGROUND">
            <ellipse cx="338.58" cy="338.94" rx="338.58" ry="338.94" fill="#4d4c72"/>
            <path class="cls-2" d="M384.2 318.35c-39.47-.44-78.93-.38-118.39-.1-2.41 0-6.81 2.74-6.87 4.32-.53 14.65-.31 29.33-.31 44.75h77.27c-2.11 27.84-27.06 51-60.59 57.67-37.27 7.42-75.8-12.93-92.91-49.09-16.52-34.9-7.16-77.9 21.86-103.11 25.67-22.3 71.26-32.2 111.17.3l37.44-35.87a17.74 17.74 0 00-1.54-3 32.19 32.19 0 00-3.08-2.87c-31.25-25.78-66.82-36.45-107.12-30.68-83.29 11.91-137.13 90.09-117.46 171.26 16.9 69.83 84.41 114.33 154.47 105.77 86.64-10.58 122.76-86.42 113.94-152.54-.35-2.68-5.08-6.79-7.88-6.81zM547 317.66h-28.25v-28.25a10.59 10.59 0 00-10.58-10.59h-20.81a10.59 10.59 0 00-10.58 10.59v28.25h-28.22A10.59 10.59 0 00438 328.25v20.83a10.59 10.59 0 0010.58 10.59h28.22v28.25a10.59 10.59 0 0010.58 10.59h20.81a10.59 10.59 0 0010.58-10.59v-28.25H547a10.59 10.59 0 0010.58-10.59v-20.83A10.59 10.59 0 00547 317.66z"/>
            <path class="cls-3" d="M483.16 364l-42.59-42.64"/>
            <path class="cls-4" d="M391.93 365.45c-4.77 35.33-22.31 69.25-53.44 90.82-16.36 11.34-36.49 19.25-60.49 22.18a142.64 142.64 0 01-109.43-32.8l169.92 170.06 57.92 58a338.16 338.16 0 00201.87-116.64c.36-.43 1-1.36 1-1.36L413.92 370.08l-.48-.56a20.27 20.27 0 00-4.42-3.44 11.28 11.28 0 00-2.55-.6z"/>
            <path d="M557.54 328.25v20.83A10.58 10.58 0 01547 359.67h-28.26v28.24a10.57 10.57 0 01-10.57 10.6h-20.81a10.58 10.58 0 01-10.58-10.6v-28.24h-28.21A10.57 10.57 0 01438 349.08v-20.83a10.65 10.65 0 0110.58-10.59h28.21v-28.24a10.57 10.57 0 0110.58-10.59h20.81a10.6 10.6 0 0110.57 10.59v28.24H547a10.6 10.6 0 0110.59 10.59z" opacity=".1"/>
            <path class="cls-3" d="M338.58 250.89v-26.91"/>
        </g>
        <path class="cls-4" d="M569.4 335.15a7.71 7.71 0 00-4.66-2.51h-7.21v16.28a10.57 10.57 0 01-10.58 10.59H518.7v28.24a10.61 10.61 0 01-10.6 10.6h-14.52s-2.86.1-4.09 1.08c-.76.6-1.29 2.39 1.12 5.58 1 1.37 3.84 4.3 3.84 4.3L617 531.58a337.69 337.69 0 0047.44-100.77l-92.1-92.87z"/>
    </g>
</g>
</svg>