<svg xmlns="http://www.w3.org/2000/svg" viewBox="0 0 677.17 677.4">
    <g data-name="Layer 2">
    <circle cx="338.58" cy="338.58" r="338.58" transform="rotate(-45 338.577 338.587)" fill="#4d4c72"/>
    <path d="M546.54 234.51A170.73 170.73 0 01513 266.43l-1.89 1.38.1 2.36c.16 3.75.24 7.49.24 11.07 0 119.52-90.95 243.14-243.13 243.14A242.15 242.15 0 01153 495.23a177.9 177.9 0 00113.47-38.17l9.67-7.57-12.27-.22a82.62 82.62 0 01-74.71-50.65A91.21 91.21 0 00222.9 396l17.84-4.87-18.14-3.62a82.86 82.86 0 01-66-74.94 91.46 91.46 0 0034.69 8.06l15.24.48-12.68-8.47a82.7 82.7 0 01-28.54-104.74 252.11 252.11 0 00178.27 87.47l5.79.3L348 290a82.69 82.69 0 01140.82-75.4l1.65 1.77 2.38-.46a178.6 178.6 0 0044.9-15.26c.31-.15.64.09.5.37a83 83 0 01-31.51 33.89l-17.51 10.5 20.28-2.41a179.77 179.77 0 0037.03-8.49z" fill="#fff"/><path d="M330.23 677.29q4.31.11 8.62.11c157 0 289.06-106.9 327.36-251.88l-96.32-109.13a171.15 171.15 0 0028-27.72 181.23 181.23 0 01-37 8.47l-6.8.81-3.67-4.28 7.7-4.61a83.1 83.1 0 0031.51-33.89c.14-.27-.2-.52-.5-.37a177.81 177.81 0 01-44.9 15.26l-2.38.46-1.66-1.77c-5.16-5.69-16.49-9.86-16.49-9.86l-.31.24q-5 4.25-10.37 8.13l-1.9 1.37.11 2.36c.15 3.76.24 7.49.24 11.07 0 111.12-78.65 225.77-212 241.33h-.06c-2.41.28-4.85.53-7.3.75h-.36c-2.44.21-4.89.39-7.37.54h-.27l-3.51.18-2.6.1c-1.53.06-3.06.1-4.59.13h-5.08a243.52 243.52 0 01-35.47-2.6q-5.72-.84-11.36-2l-.48-.09q-2.76-.55-5.49-1.15l-.23-.06c-1.7-.38-3.39-.77-5.07-1.19l-.78-.19q-2.52-.63-5-1.31l-1.06-.29c-1.45-.41-2.91-.83-4.36-1.26l-.86-.25q-2.37-.72-4.72-1.49l-1.45-.31c-1.45-.48-2.9-1-4.34-1.48l-1.12-.4q-2-.72-4-1.47c-.52-.2-1-.39-1.57-.6q-2.2-.84-4.4-1.74l-.39-.16a4.36 4.36 0 00-4.76 7.1z" opacity=".2"/>
    </g>
</svg>