<svg xmlns="http://www.w3.org/2000/svg" viewBox="0 0 325.27 77.41"><defs><style>.cls-1{fill:#e2c482;}</style></defs><g id="Layer_2" data-name="Layer 2"><g id="Layer_16" data-name="Layer 16"><path class="cls-1" d="M62.14.8V76.67H50.58V59H24.81L13.63,76.67H0L48,.8ZM32.08,47.45h18.5V18.24Z"/><path class="cls-1" d="M75.23,76.67V.8H99a20.93,20.93,0,0,1,15.37,6.36,21,21,0,0,1,6.37,15.37,21,21,0,0,1-5.15,14,21.48,21.48,0,0,1,6.9,7.74,21.75,21.75,0,0,1-3.82,25.88,21,21,0,0,1-15.48,6.47Zm11.51-43.9H99a9.71,9.71,0,0,0,7.21-3,9.74,9.74,0,0,0,3-7.21,9.76,9.76,0,0,0-3-7.21,9.74,9.74,0,0,0-7.21-3H86.74Zm0,32.39h16.49a10,10,0,0,0,7.37-3.08,10.2,10.2,0,0,0,3-7.42,10.41,10.41,0,0,0-10.39-10.39H86.74Z"/><path class="cls-1" d="M141.67,66.06A37.25,37.25,0,0,1,130.32,38.7a37.25,37.25,0,0,1,11.35-27.35,38.64,38.64,0,0,1,54.71,0A37.29,37.29,0,0,1,207.73,38.7a37.29,37.29,0,0,1-11.35,27.36,38.64,38.64,0,0,1-54.71,0Zm8.16-46.55a26.15,26.15,0,0,0-8,19.19,26.18,26.18,0,0,0,8,19.2,27.14,27.14,0,0,0,38.38,0,26.15,26.15,0,0,0,8-19.2,26.12,26.12,0,0,0-8-19.19,27.14,27.14,0,0,0-38.38,0Z"/><path class="cls-1" d="M225.12,69.45a26,26,0,0,1-7.9-19.08V.74h11.55V50.37a15.46,15.46,0,0,0,30.91,0V.74h11.56V50.37a25.89,25.89,0,0,1-7.95,19.08,27,27,0,0,1-38.17,0Z"/><path class="cls-1" d="M325.27.8V12.3H309.2V76.67H297.64V12.3H281.58V.8Z"/></g></g></svg>