<svg xmlns="http://www.w3.org/2000/svg" xmlns:xlink="http://www.w3.org/1999/xlink" viewBox="0 0 1919.42 224"><defs><style>.cls-1,.cls-10,.cls-11,.cls-12,.cls-13,.cls-14,.cls-15,.cls-16,.cls-17,.cls-18,.cls-19,.cls-2,.cls-20,.cls-21,.cls-22,.cls-23,.cls-3,.cls-4,.cls-5,.cls-6,.cls-7,.cls-8,.cls-9{fill:none;stroke-miterlimit:10;}.cls-1{stroke-width:4px;stroke:url(#New_Gradient_Swatch_2);}.cls-15,.cls-16,.cls-17,.cls-2,.cls-23,.cls-3,.cls-6,.cls-9{stroke-width:5px;}.cls-2{stroke:url(#New_Gradient_Swatch_2-2);}.cls-3{stroke:url(#New_Gradient_Swatch_2-3);}.cls-11,.cls-14,.cls-19,.cls-22,.cls-4,.cls-5{stroke-width:2px;}.cls-4{stroke:url(#New_Gradient_Swatch_2-4);}.cls-5{stroke:url(#New_Gradient_Swatch_2-5);}.cls-6{stroke:#e2c482;}.cls-10,.cls-12,.cls-13,.cls-18,.cls-20,.cls-21,.cls-7,.cls-8{stroke-width:3px;}.cls-7{stroke:url(#New_Gradient_Swatch_2-6);}.cls-8{stroke:url(#New_Gradient_Swatch_2-7);}.cls-9{stroke:url(#New_Gradient_Swatch_2-8);}.cls-10{stroke:url(#New_Gradient_Swatch_2-9);}.cls-11{stroke:url(#New_Gradient_Swatch_2-10);}.cls-12{stroke:url(#New_Gradient_Swatch_2-11);}.cls-13{stroke:url(#New_Gradient_Swatch_2-12);}.cls-14{stroke:url(#New_Gradient_Swatch_2-13);}.cls-15{stroke:url(#New_Gradient_Swatch_2-14);}.cls-16{stroke:url(#New_Gradient_Swatch_2-15);}.cls-17{stroke:url(#New_Gradient_Swatch_2-16);}.cls-18{stroke:url(#New_Gradient_Swatch_2-17);}.cls-19{stroke:url(#New_Gradient_Swatch_2-18);}.cls-20{stroke:url(#New_Gradient_Swatch_2-19);}.cls-21{stroke:url(#New_Gradient_Swatch_2-20);}.cls-22{stroke:url(#New_Gradient_Swatch_2-21);}.cls-23{stroke:url(#New_Gradient_Swatch_2-22);}</style><linearGradient id="New_Gradient_Swatch_2" x1="546.76" y1="86.04" x2="546.76" y2="11.2" gradientUnits="userSpaceOnUse"><stop offset="0" stop-color="#514017"/><stop offset="0.64" stop-color="#e2c482"/><stop offset="1" stop-color="#5e4713"/></linearGradient><linearGradient id="New_Gradient_Swatch_2-2" x1="0" y1="127.32" x2="290.3" y2="127.32" xlink:href="#New_Gradient_Swatch_2"/><linearGradient id="New_Gradient_Swatch_2-3" x1="797.68" y1="127.37" x2="1919.42" y2="127.37" xlink:href="#New_Gradient_Swatch_2"/><linearGradient id="New_Gradient_Swatch_2-4" x1="624.92" y1="154.39" x2="682.72" y2="154.39" xlink:href="#New_Gradient_Swatch_2"/><linearGradient id="New_Gradient_Swatch_2-5" x1="407.39" y1="154.39" x2="465.7" y2="154.39" xlink:href="#New_Gradient_Swatch_2"/><linearGradient id="New_Gradient_Swatch_2-6" x1="500.42" y1="72.27" x2="591.72" y2="72.27" xlink:href="#New_Gradient_Swatch_2"/><linearGradient id="New_Gradient_Swatch_2-7" x1="522.57" y1="47.39" x2="570.62" y2="47.39" xlink:href="#New_Gradient_Swatch_2"/><linearGradient id="New_Gradient_Swatch_2-8" x1="463.2" y1="112.63" x2="627.42" y2="112.63" xlink:href="#New_Gradient_Swatch_2"/><linearGradient id="New_Gradient_Swatch_2-9" x1="691.33" y1="97.42" x2="727.24" y2="97.42" xlink:href="#New_Gradient_Swatch_2"/><linearGradient id="New_Gradient_Swatch_2-10" x1="674.67" y1="88.42" x2="705.58" y2="88.42" xlink:href="#New_Gradient_Swatch_2"/><linearGradient id="New_Gradient_Swatch_2-11" x1="650.79" y1="66.64" x2="711.27" y2="66.64" xlink:href="#New_Gradient_Swatch_2"/><linearGradient id="New_Gradient_Swatch_2-12" x1="679.16" y1="76.32" x2="727.17" y2="76.32" xlink:href="#New_Gradient_Swatch_2"/><linearGradient id="New_Gradient_Swatch_2-13" x1="665.48" y1="66.91" x2="795.71" y2="66.91" xlink:href="#New_Gradient_Swatch_2"/><linearGradient id="New_Gradient_Swatch_2-14" x1="544.73" y1="155.49" x2="549.73" y2="155.49" xlink:href="#New_Gradient_Swatch_2"/><linearGradient id="New_Gradient_Swatch_2-15" x1="487.36" y1="144.51" x2="606.77" y2="144.51" xlink:href="#New_Gradient_Swatch_2"/><linearGradient id="New_Gradient_Swatch_2-16" x1="622.42" y1="88.59" x2="923.3" y2="88.59" xlink:href="#New_Gradient_Swatch_2"/><linearGradient id="New_Gradient_Swatch_2-17" x1="7890.43" y1="97.42" x2="7926.34" y2="97.42" gradientTransform="matrix(-1, 0, 0, 1, 8289.72, 0)" xlink:href="#New_Gradient_Swatch_2"/><linearGradient id="New_Gradient_Swatch_2-18" x1="7873.77" y1="88.42" x2="7904.68" y2="88.42" gradientTransform="matrix(-1, 0, 0, 1, 8289.72, 0)" xlink:href="#New_Gradient_Swatch_2"/><linearGradient id="New_Gradient_Swatch_2-19" x1="7849.89" y1="66.64" x2="7910.37" y2="66.64" gradientTransform="matrix(-1, 0, 0, 1, 8289.72, 0)" xlink:href="#New_Gradient_Swatch_2"/><linearGradient id="New_Gradient_Swatch_2-20" x1="7878.26" y1="76.32" x2="7926.27" y2="76.32" gradientTransform="matrix(-1, 0, 0, 1, 8289.72, 0)" xlink:href="#New_Gradient_Swatch_2"/><linearGradient id="New_Gradient_Swatch_2-21" x1="7864.58" y1="66.91" x2="7994.81" y2="66.91" gradientTransform="matrix(-1, 0, 0, 1, 8289.72, 0)" xlink:href="#New_Gradient_Swatch_2"/><linearGradient id="New_Gradient_Swatch_2-22" x1="7821.52" y1="88.59" x2="8122.4" y2="88.59" gradientTransform="matrix(-1, 0, 0, 1, 8289.72, 0)" xlink:href="#New_Gradient_Swatch_2"/></defs><g id="Layer_2" data-name="Layer 2"><g id="Layer_16" data-name="Layer 16"><line class="cls-1" x1="546.76" y1="86.04" x2="546.76" y2="11.2"/><line class="cls-2" x1="290.3" y1="127.27" y2="127.37"/><line class="cls-3" x1="1919.42" y1="127.37" x2="797.68" y2="127.37"/><line class="cls-4" x1="624.92" y1="154.39" x2="682.72" y2="154.39"/><line class="cls-5" x1="465.7" y1="154.39" x2="407.39" y2="154.39"/><line class="cls-6" x1="562.22" y1="130.7" x2="586.22" y2="130.7"/><line class="cls-6" x1="558.94" y1="150.29" x2="585.68" y2="150.29"/><polyline class="cls-7" points="501.92 106.67 501.92 39.36 590.22 39.36 590.22 106.67"/><polyline class="cls-8" points="524.07 73.72 524.07 22.56 569.12 22.56 569.12 73.72"/><polyline class="cls-9" points="465.7 171.39 465.7 56.38 624.92 56.38 624.92 171.39"/><polyline class="cls-10" points="725.74 174.67 725.74 54.1 692.84 54.1 692.84 20.17"/><polyline class="cls-11" points="704.58 174.67 704.58 73.46 675.67 73.46 675.67 2.17"/><line class="cls-12" x1="651.85" y1="95.82" x2="710.21" y2="37.47"/><line class="cls-13" x1="680.23" y1="99.26" x2="726.11" y2="53.37"/><line class="cls-14" x1="666.19" y1="2.5" x2="795.01" y2="131.32"/><line class="cls-15" x1="547.23" y1="86.98" x2="547.23" y2="224"/><path class="cls-16" d="M560.61,105.06v96.32a58.06,58.06,0,0,0,42.78-41.94c-6.82-8.16-7.91-9.58-11.84-13.51,4.62-4.72,7.86-7.86,12.5-12.56a58,58,0,0,0-113.63,0h43.26v68c-20.89-5-37.07-20.46-42.33-41.25"/><polyline class="cls-17" points="923.3 159.82 797.68 159.82 812.53 174.67 682.72 174.67 682.72 96.86 660.82 96.86 650.82 96.86 650.82 48.82 624.92 48.82 624.92 2.5 675.24 2.5 799.82 127.08 752.23 174.67"/><polyline class="cls-18" points="364.88 174.67 364.88 54.1 397.79 54.1 397.79 20.17"/><polyline class="cls-19" points="386.04 174.67 386.04 73.46 414.95 73.46 414.95 2.17"/><line class="cls-20" x1="438.77" y1="95.82" x2="380.41" y2="37.47"/><line class="cls-21" x1="410.39" y1="99.26" x2="364.51" y2="53.37"/><line class="cls-22" x1="424.43" y1="2.5" x2="295.61" y2="131.32"/><polyline class="cls-23" points="167.32 159.82 292.94 159.82 278.09 174.67 407.9 174.67 407.9 96.86 429.8 96.86 439.8 96.86 439.8 48.82 465.7 48.82 465.7 2.5 415.38 2.5 290.8 127.08 338.39 174.67"/></g></g></svg>