<svg xmlns="http://www.w3.org/2000/svg" xmlns:xlink="http://www.w3.org/1999/xlink" viewBox="0 0 2812.65 901.76"><defs><style>.cls-1,.cls-10,.cls-100,.cls-101,.cls-102,.cls-103,.cls-104,.cls-105,.cls-106,.cls-107,.cls-108,.cls-109,.cls-11,.cls-110,.cls-111,.cls-112,.cls-113,.cls-114,.cls-115,.cls-116,.cls-117,.cls-118,.cls-119,.cls-12,.cls-13,.cls-14,.cls-15,.cls-16,.cls-17,.cls-18,.cls-19,.cls-2,.cls-20,.cls-21,.cls-22,.cls-23,.cls-24,.cls-25,.cls-26,.cls-27,.cls-28,.cls-29,.cls-3,.cls-30,.cls-31,.cls-32,.cls-33,.cls-34,.cls-35,.cls-36,.cls-37,.cls-38,.cls-39,.cls-4,.cls-40,.cls-41,.cls-42,.cls-43,.cls-44,.cls-45,.cls-46,.cls-47,.cls-48,.cls-49,.cls-5,.cls-50,.cls-51,.cls-52,.cls-53,.cls-54,.cls-55,.cls-56,.cls-57,.cls-58,.cls-59,.cls-6,.cls-60,.cls-61,.cls-62,.cls-63,.cls-64,.cls-65,.cls-66,.cls-67,.cls-68,.cls-69,.cls-7,.cls-70,.cls-71,.cls-72,.cls-73,.cls-74,.cls-75,.cls-76,.cls-77,.cls-78,.cls-79,.cls-8,.cls-80,.cls-81,.cls-82,.cls-83,.cls-84,.cls-85,.cls-86,.cls-87,.cls-88,.cls-89,.cls-9,.cls-90,.cls-91,.cls-92,.cls-93,.cls-94,.cls-95,.cls-96,.cls-97,.cls-98,.cls-99{fill:none;stroke-miterlimit:10;}.cls-1,.cls-23,.cls-42,.cls-44,.cls-51,.cls-52,.cls-68,.cls-75,.cls-84,.cls-92,.cls-95{stroke-width:4px;}.cls-1{stroke:url(#New_Gradient_Swatch_1);}.cls-2,.cls-59,.cls-96{stroke-width:7px;}.cls-2{stroke:url(#New_Gradient_Swatch_1-2);}.cls-114,.cls-3,.cls-97{stroke-width:9px;}.cls-3{stroke:url(#New_Gradient_Swatch_1-3);}.cls-10,.cls-105,.cls-106,.cls-107,.cls-108,.cls-109,.cls-110,.cls-111,.cls-112,.cls-13,.cls-14,.cls-15,.cls-18,.cls-19,.cls-21,.cls-24,.cls-25,.cls-26,.cls-28,.cls-29,.cls-31,.cls-37,.cls-38,.cls-4,.cls-41,.cls-43,.cls-45,.cls-46,.cls-47,.cls-48,.cls-49,.cls-5,.cls-50,.cls-62,.cls-63,.cls-64,.cls-65,.cls-66,.cls-67,.cls-7,.cls-70,.cls-71,.cls-73,.cls-76,.cls-78,.cls-79,.cls-8,.cls-80,.cls-82,.cls-85,.cls-87,.cls-88,.cls-90,.cls-93,.cls-94{stroke-width:2px;}.cls-4{stroke:url(#New_Gradient_Swatch_2);}.cls-5{stroke:url(#New_Gradient_Swatch_2-2);}.cls-6{stroke:url(#New_Gradient_Swatch_2-3);}.cls-7{stroke:url(#New_Gradient_Swatch_2-4);}.cls-8{stroke:url(#New_Gradient_Swatch_2-5);}.cls-9{stroke:url(#New_Gradient_Swatch_2-6);}.cls-10{stroke:url(#New_Gradient_Swatch_2-7);}.cls-11{stroke:url(#New_Gradient_Swatch_2-8);}.cls-12{stroke:url(#New_Gradient_Swatch_2-9);}.cls-13{stroke:url(#New_Gradient_Swatch_2-10);}.cls-14{stroke:url(#New_Gradient_Swatch_2-11);}.cls-15{stroke:url(#New_Gradient_Swatch_2-12);}.cls-16{stroke:url(#New_Gradient_Swatch_2-13);}.cls-17{stroke:url(#New_Gradient_Swatch_2-14);}.cls-18{stroke:url(#New_Gradient_Swatch_2-15);}.cls-19{stroke:url(#New_Gradient_Swatch_2-16);}.cls-104,.cls-20,.cls-32,.cls-33,.cls-34,.cls-35,.cls-36,.cls-54,.cls-55,.cls-56,.cls-57,.cls-58,.cls-72,.cls-81,.cls-89,.cls-98{stroke-width:3px;}.cls-20{stroke:url(#New_Gradient_Swatch_1-4);}.cls-21{stroke:url(#New_Gradient_Swatch_1-5);}.cls-100,.cls-101,.cls-102,.cls-103,.cls-113,.cls-118,.cls-119,.cls-22,.cls-53,.cls-69,.cls-74,.cls-77,.cls-83,.cls-86,.cls-91,.cls-99{stroke-width:5px;}.cls-22{stroke:url(#New_Gradient_Swatch_2-17);}.cls-23{stroke:url(#New_Gradient_Swatch_2-18);}.cls-24{stroke:url(#New_Gradient_Swatch_1-6);}.cls-25{stroke:url(#New_Gradient_Swatch_2-19);}.cls-26{stroke:url(#New_Gradient_Swatch_2-20);}.cls-27{stroke:url(#New_Gradient_Swatch_2-21);}.cls-28{stroke:url(#New_Gradient_Swatch_2-22);}.cls-29{stroke:url(#New_Gradient_Swatch_2-23);}.cls-30{stroke:url(#New_Gradient_Swatch_2-24);}.cls-31{stroke:url(#New_Gradient_Swatch_2-25);}.cls-32{stroke:url(#New_Gradient_Swatch_2-26);}.cls-33{stroke:url(#New_Gradient_Swatch_1-7);}.cls-34{stroke:url(#New_Gradient_Swatch_1-8);}.cls-102,.cls-35,.cls-37{stroke:#e2c482;}.cls-36{stroke:url(#linear-gradient);}.cls-38{stroke:url(#New_Gradient_Swatch_2-27);}.cls-39{stroke:url(#New_Gradient_Swatch_2-28);}.cls-40{stroke:url(#New_Gradient_Swatch_2-29);}.cls-41{stroke:url(#New_Gradient_Swatch_2-30);}.cls-42{stroke:url(#New_Gradient_Swatch_2-31);}.cls-43{stroke:url(#New_Gradient_Swatch_2-32);}.cls-44{stroke:url(#New_Gradient_Swatch_2-33);}.cls-45{stroke:url(#New_Gradient_Swatch_2-34);}.cls-46{stroke:url(#New_Gradient_Swatch_2-35);}.cls-47{stroke:url(#New_Gradient_Swatch_2-36);}.cls-48{stroke:url(#New_Gradient_Swatch_2-37);}.cls-49{stroke:url(#New_Gradient_Swatch_2-38);}.cls-50{stroke:url(#New_Gradient_Swatch_2-39);}.cls-51{stroke:url(#New_Gradient_Swatch_1-9);}.cls-52{stroke:url(#New_Gradient_Swatch_1-10);}.cls-53{stroke:url(#New_Gradient_Swatch_1-11);}.cls-54{stroke:url(#linear-gradient-2);}.cls-55{stroke:url(#linear-gradient-3);}.cls-56{stroke:url(#linear-gradient-4);}.cls-57{stroke:url(#New_Gradient_Swatch_1-12);}.cls-58{stroke:url(#New_Gradient_Swatch_1-13);}.cls-59{stroke:url(#New_Gradient_Swatch_1-14);}.cls-60{stroke:url(#New_Gradient_Swatch_2-40);}.cls-61{stroke:url(#New_Gradient_Swatch_2-41);}.cls-62{stroke:url(#New_Gradient_Swatch_2-42);}.cls-63{stroke:url(#New_Gradient_Swatch_2-43);}.cls-64{stroke:url(#New_Gradient_Swatch_2-44);}.cls-65{stroke:url(#New_Gradient_Swatch_2-45);}.cls-66{stroke:url(#New_Gradient_Swatch_2-46);}.cls-67{stroke:url(#New_Gradient_Swatch_2-47);}.cls-68{stroke:url(#New_Gradient_Swatch_1-15);}.cls-69{stroke:url(#New_Gradient_Swatch_1-16);}.cls-70{stroke:url(#New_Gradient_Swatch_2-48);}.cls-71{stroke:url(#New_Gradient_Swatch_2-49);}.cls-72{stroke:url(#New_Gradient_Swatch_1-17);}.cls-73{stroke:url(#New_Gradient_Swatch_1-18);}.cls-74{stroke:url(#New_Gradient_Swatch_2-50);}.cls-75{stroke:url(#New_Gradient_Swatch_2-51);}.cls-76{stroke:url(#New_Gradient_Swatch_1-19);}.cls-77{stroke:url(#New_Gradient_Swatch_1-20);}.cls-78{stroke:url(#New_Gradient_Swatch_2-52);}.cls-79{stroke:url(#New_Gradient_Swatch_2-53);}.cls-80{stroke:url(#New_Gradient_Swatch_2-54);}.cls-81{stroke:url(#New_Gradient_Swatch_1-21);}.cls-82{stroke:url(#New_Gradient_Swatch_1-22);}.cls-83{stroke:url(#New_Gradient_Swatch_2-55);}.cls-84{stroke:url(#New_Gradient_Swatch_2-56);}.cls-85{stroke:url(#New_Gradient_Swatch_1-23);}.cls-86{stroke:url(#New_Gradient_Swatch_1-24);}.cls-87{stroke:url(#New_Gradient_Swatch_2-57);}.cls-88{stroke:url(#New_Gradient_Swatch_2-58);}.cls-89{stroke:url(#New_Gradient_Swatch_1-25);}.cls-90{stroke:url(#New_Gradient_Swatch_1-26);}.cls-91{stroke:url(#New_Gradient_Swatch_2-59);}.cls-92{stroke:url(#New_Gradient_Swatch_2-60);}.cls-93{stroke:url(#New_Gradient_Swatch_1-27);}.cls-94{stroke:url(#New_Gradient_Swatch_2-61);}.cls-95{stroke:url(#linear-gradient-5);}.cls-96{stroke:url(#linear-gradient-6);}.cls-97{stroke:url(#linear-gradient-7);}.cls-98{stroke:url(#New_Gradient_Swatch_2-62);}.cls-99{stroke:url(#New_Gradient_Swatch_1-28);}.cls-100{stroke:url(#New_Gradient_Swatch_1-29);}.cls-101{stroke:url(#New_Gradient_Swatch_1-30);}.cls-103{stroke:url(#linear-gradient-8);}.cls-104{stroke:url(#New_Gradient_Swatch_1-31);}.cls-105{stroke:url(#New_Gradient_Swatch_1-32);}.cls-106{stroke:url(#New_Gradient_Swatch_1-33);}.cls-107{stroke:url(#New_Gradient_Swatch_1-34);}.cls-108{stroke:url(#New_Gradient_Swatch_1-35);}.cls-109{stroke:url(#New_Gradient_Swatch_2-63);}.cls-110{stroke:url(#New_Gradient_Swatch_2-64);}.cls-111{stroke:url(#New_Gradient_Swatch_2-65);}.cls-112{stroke:url(#New_Gradient_Swatch_2-66);}.cls-113{stroke:url(#New_Gradient_Swatch_1-36);}.cls-114{stroke:url(#New_Gradient_Swatch_1-37);}.cls-115,.cls-116,.cls-117{stroke-width:6px;}.cls-115{stroke:url(#New_Gradient_Swatch_1-38);}.cls-116{stroke:url(#New_Gradient_Swatch_1-39);}.cls-117{stroke:url(#New_Gradient_Swatch_1-40);}.cls-118{stroke:url(#New_Gradient_Swatch_1-41);}.cls-119{stroke:url(#New_Gradient_Swatch_1-42);}</style><linearGradient id="New_Gradient_Swatch_1" x1="7940.34" y1="450.58" x2="7993.85" y2="450.58" gradientTransform="matrix(-1, 0, 0, 1, 8475.64, 0)" gradientUnits="userSpaceOnUse"><stop offset="0" stop-color="#9d7c32"/><stop offset="0.64" stop-color="#e2c482"/><stop offset="1" stop-color="#a27d2a"/></linearGradient><linearGradient id="New_Gradient_Swatch_1-2" x1="7952.54" y1="450.58" x2="8009.04" y2="450.58" xlink:href="#New_Gradient_Swatch_1"/><linearGradient id="New_Gradient_Swatch_1-3" x1="7967.43" y1="450.58" x2="8025.94" y2="450.58" xlink:href="#New_Gradient_Swatch_1"/><linearGradient id="New_Gradient_Swatch_2" x1="1971.1" y1="41.25" x2="1995.73" y2="41.25" gradientUnits="userSpaceOnUse"><stop offset="0" stop-color="#514017"/><stop offset="0.64" stop-color="#e2c482"/><stop offset="1" stop-color="#5e4713"/></linearGradient><linearGradient id="New_Gradient_Swatch_2-2" x1="1971.1" y1="700.29" x2="2031.75" y2="700.29" gradientTransform="matrix(1, 0, 0, -1, 0, 777.31)" xlink:href="#New_Gradient_Swatch_2"/><linearGradient id="New_Gradient_Swatch_2-3" x1="2012.81" y1="103.93" x2="1971.54" y2="103.93" xlink:href="#New_Gradient_Swatch_2"/><linearGradient id="New_Gradient_Swatch_2-4" x1="1994.27" y1="146.59" x2="1994.27" y2="77.11" xlink:href="#New_Gradient_Swatch_2"/><linearGradient id="New_Gradient_Swatch_2-5" x1="7810" y1="700.29" x2="7870.64" y2="700.29" gradientTransform="translate(9678.22 777.31) rotate(180)" xlink:href="#New_Gradient_Swatch_2"/><linearGradient id="New_Gradient_Swatch_2-6" x1="7851.71" y1="103.54" x2="7809.64" y2="103.54" gradientTransform="matrix(-1, 0, 0, 1, 9678.22, 0)" xlink:href="#New_Gradient_Swatch_2"/><linearGradient id="New_Gradient_Swatch_2-7" x1="7832.76" y1="146.59" x2="7832.76" y2="76.32" gradientTransform="matrix(-1, 0, 0, 1, 9678.22, 0)" xlink:href="#New_Gradient_Swatch_2"/><linearGradient id="New_Gradient_Swatch_2-8" x1="7809.68" y1="145.88" x2="7830.33" y2="145.88" gradientTransform="matrix(-1, 0, 0, 1, 9678.22, 0)" xlink:href="#New_Gradient_Swatch_2"/><linearGradient id="New_Gradient_Swatch_2-9" x1="1971.89" y1="145.88" x2="1991.44" y2="145.88" xlink:href="#New_Gradient_Swatch_2"/><linearGradient id="New_Gradient_Swatch_2-10" x1="7786.43" y1="666.22" x2="7818.78" y2="666.22" gradientTransform="translate(9678.22 777.31) rotate(180)" xlink:href="#New_Gradient_Swatch_2"/><linearGradient id="New_Gradient_Swatch_2-11" x1="1947.53" y1="668.02" x2="1980.41" y2="668.02" gradientTransform="matrix(1, 0, 0, -1, 0, 777.31)" xlink:href="#New_Gradient_Swatch_2"/><linearGradient id="New_Gradient_Swatch_2-12" x1="1958.99" y1="782.57" x2="1986.87" y2="782.57" xlink:href="#New_Gradient_Swatch_2"/><linearGradient id="New_Gradient_Swatch_2-13" x1="7811.57" y1="177.6" x2="7830.33" y2="177.6" gradientTransform="matrix(-1, 0, 0, 1, 9678.22, 0)" xlink:href="#New_Gradient_Swatch_2"/><linearGradient id="New_Gradient_Swatch_2-14" x1="7800.01" y1="162.15" x2="7846.6" y2="162.15" gradientTransform="matrix(-1, 0, 0, 1, 9678.22, 0)" xlink:href="#New_Gradient_Swatch_2"/><linearGradient id="New_Gradient_Swatch_2-15" x1="7774.26" y1="175.03" x2="7848.01" y2="175.03" gradientTransform="matrix(-1, 0, 0, 1, 9678.22, 0)" xlink:href="#New_Gradient_Swatch_2"/><linearGradient id="New_Gradient_Swatch_2-16" x1="990.48" y1="874.36" x2="1044.28" y2="874.36" gradientTransform="matrix(1, 0, 0, -1, 709.18, 898.3)" xlink:href="#New_Gradient_Swatch_2"/><linearGradient id="New_Gradient_Swatch_1-4" x1="1032.72" y1="827" x2="1069.62" y2="827" gradientTransform="matrix(1, 0, 0, -1, 709.18, 898.3)" xlink:href="#New_Gradient_Swatch_1"/><linearGradient id="New_Gradient_Swatch_1-5" x1="1022.05" y1="827" x2="1057.96" y2="827" gradientTransform="matrix(1, 0, 0, -1, 709.18, 898.3)" xlink:href="#New_Gradient_Swatch_1"/><linearGradient id="New_Gradient_Swatch_2-17" x1="973.92" y1="857.11" x2="1036.85" y2="857.11" gradientTransform="matrix(0.99, -0.01, 0.01, -0.99, 745.1, 934.22)" xlink:href="#New_Gradient_Swatch_2"/><linearGradient id="New_Gradient_Swatch_2-18" x1="1070.43" y1="803.33" x2="1115.7" y2="803.33" gradientTransform="matrix(1.01, 0.01, -0.01, -1.01, 678.58, 867.7)" xlink:href="#New_Gradient_Swatch_2"/><linearGradient id="New_Gradient_Swatch_1-6" x1="1024.01" y1="827" x2="1161.17" y2="827" gradientTransform="matrix(1, 0, 0, -1, 709.18, 898.3)" xlink:href="#New_Gradient_Swatch_1"/><linearGradient id="New_Gradient_Swatch_2-19" x1="938.21" y1="825.73" x2="990.48" y2="825.73" gradientTransform="matrix(1, 0, 0, -1, 709.18, 898.3)" xlink:href="#New_Gradient_Swatch_2"/><linearGradient id="New_Gradient_Swatch_2-20" x1="7810" y1="41.25" x2="7834.62" y2="41.25" gradientTransform="matrix(-1, 0, 0, 1, 9678.22, 0)" xlink:href="#New_Gradient_Swatch_2"/><linearGradient id="New_Gradient_Swatch_2-21" x1="1972.68" y1="177.6" x2="1991.44" y2="177.6" xlink:href="#New_Gradient_Swatch_2"/><linearGradient id="New_Gradient_Swatch_2-22" x1="1962.11" y1="192.87" x2="1991.41" y2="192.87" xlink:href="#New_Gradient_Swatch_2"/><linearGradient id="New_Gradient_Swatch_2-23" x1="1961.18" y1="181.85" x2="1992.14" y2="181.85" xlink:href="#New_Gradient_Swatch_2"/><linearGradient id="New_Gradient_Swatch_2-24" x1="1961.12" y1="162.15" x2="2007.71" y2="162.15" xlink:href="#New_Gradient_Swatch_2"/><linearGradient id="New_Gradient_Swatch_2-25" x1="1935.37" y1="175.03" x2="2009.12" y2="175.03" xlink:href="#New_Gradient_Swatch_2"/><linearGradient id="New_Gradient_Swatch_2-26" x1="1902.33" y1="532.83" x2="1936.7" y2="532.83" gradientTransform="matrix(1, 0, 0, -1, 0, 777.31)" xlink:href="#New_Gradient_Swatch_2"/><linearGradient id="New_Gradient_Swatch_1-7" x1="1925.85" y1="573.46" x2="1936.08" y2="573.46" gradientTransform="matrix(1, 0, 0, -1, 0, 777.31)" xlink:href="#New_Gradient_Swatch_1"/><linearGradient id="New_Gradient_Swatch_1-8" x1="1924.46" y1="586.92" x2="1935.85" y2="586.92" gradientTransform="matrix(1, 0, 0, -1, 0, 777.31)" xlink:href="#New_Gradient_Swatch_1"/><linearGradient id="linear-gradient" x1="1890.49" y1="578.82" x2="1948.23" y2="578.82" gradientTransform="matrix(1, 0, 0, -1, 0, 777.31)" xlink:href="#New_Gradient_Swatch_1"/><linearGradient id="New_Gradient_Swatch_2-27" x1="1971.1" y1="796.61" x2="1999.33" y2="796.61" xlink:href="#New_Gradient_Swatch_2"/><linearGradient id="New_Gradient_Swatch_2-28" x1="1618.87" y1="418.46" x2="1667.82" y2="418.46" xlink:href="#New_Gradient_Swatch_2"/><linearGradient id="New_Gradient_Swatch_2-29" x1="1618.87" y1="492.22" x2="1667.32" y2="492.22" xlink:href="#New_Gradient_Swatch_2"/><linearGradient id="New_Gradient_Swatch_2-30" x1="1554.75" y1="104.74" x2="1572.79" y2="104.74" xlink:href="#New_Gradient_Swatch_2"/><linearGradient id="New_Gradient_Swatch_2-31" x1="1560.56" y1="104.73" x2="1580.61" y2="104.73" xlink:href="#New_Gradient_Swatch_2"/><linearGradient id="New_Gradient_Swatch_2-32" x1="1554.75" y1="-1061.75" x2="1572.79" y2="-1061.75" gradientTransform="matrix(1, 0, 0, -1, 0, -275.54)" xlink:href="#New_Gradient_Swatch_2"/><linearGradient id="New_Gradient_Swatch_2-33" x1="1560.56" y1="-1061.75" x2="1580.61" y2="-1061.75" gradientTransform="matrix(1, 0, 0, -1, 0, -275.54)" xlink:href="#New_Gradient_Swatch_2"/><linearGradient id="New_Gradient_Swatch_2-34" x1="3271.87" y1="4548.66" x2="3356.06" y2="4548.66" gradientTransform="matrix(-0.27, 0.73, -0.74, 0.25, 5912.75, -3116.3)" xlink:href="#New_Gradient_Swatch_2"/><linearGradient id="New_Gradient_Swatch_2-35" x1="3226.63" y1="4607.84" x2="3310.75" y2="4607.84" gradientTransform="matrix(-0.26, 0.74, -0.74, 0.26, 5883.21, -3122.49)" xlink:href="#New_Gradient_Swatch_2"/><linearGradient id="New_Gradient_Swatch_2-36" x1="1589.17" y1="434.53" x2="1668.47" y2="434.53" xlink:href="#New_Gradient_Swatch_2"/><linearGradient id="New_Gradient_Swatch_2-37" x1="-92.16" y1="2125.26" x2="-7.99" y2="2125.26" gradientTransform="matrix(0.73, 0.27, 0.25, 0.74, 1122.96, -1146.31)" xlink:href="#New_Gradient_Swatch_2"/><linearGradient id="New_Gradient_Swatch_2-38" x1="-74.91" y1="2119.03" x2="6.11" y2="2119.03" gradientTransform="matrix(0.74, 0.26, 0.26, 0.74, 1116.78, -1116.78)" xlink:href="#New_Gradient_Swatch_2"/><linearGradient id="New_Gradient_Swatch_2-39" x1="1590.98" y1="476.86" x2="1668.47" y2="476.86" xlink:href="#New_Gradient_Swatch_2"/><linearGradient id="New_Gradient_Swatch_1-9" x1="1506.6" y1="450.6" x2="1560.1" y2="450.6" gradientTransform="matrix(1, 0, 0, 1, 0, 0)" xlink:href="#New_Gradient_Swatch_1"/><linearGradient id="New_Gradient_Swatch_1-10" x1="1617.23" y1="451.1" x2="1669.73" y2="451.1" gradientTransform="matrix(1, 0, 0, 1, 0, 0)" xlink:href="#New_Gradient_Swatch_1"/><linearGradient id="New_Gradient_Swatch_1-11" x1="1623.93" y1="451.1" x2="1678.43" y2="451.1" gradientTransform="matrix(1, 0, 0, 1, 0, 0)" xlink:href="#New_Gradient_Swatch_1"/><linearGradient id="linear-gradient-2" x1="2276.66" y1="573.96" x2="1587.7" y2="573.96" gradientUnits="userSpaceOnUse"><stop offset="0" stop-color="#9d7c32"/><stop offset="0.26" stop-color="#e2c482"/><stop offset="1" stop-color="#a27d2a"/></linearGradient><linearGradient id="linear-gradient-3" x1="2276.66" y1="586.17" x2="1587.7" y2="586.17" xlink:href="#linear-gradient-2"/><linearGradient id="linear-gradient-4" x1="2276.66" y1="598.39" x2="1587.7" y2="598.39" xlink:href="#linear-gradient-2"/><linearGradient id="New_Gradient_Swatch_1-12" x1="2276.66" y1="340.02" x2="1587.7" y2="340.02" gradientTransform="matrix(1, 0, 0, 1, 0, 0)" xlink:href="#New_Gradient_Swatch_1"/><linearGradient id="New_Gradient_Swatch_1-13" x1="2276.66" y1="352.24" x2="1587.7" y2="352.24" gradientTransform="matrix(1, 0, 0, 1, 0, 0)" xlink:href="#New_Gradient_Swatch_1"/><linearGradient id="New_Gradient_Swatch_1-14" x1="1518.79" y1="450.6" x2="1575.3" y2="450.6" gradientTransform="matrix(1, 0, 0, 1, 0, 0)" xlink:href="#New_Gradient_Swatch_1"/><linearGradient id="New_Gradient_Swatch_2-40" x1="7552.39" y1="418.46" x2="7605.44" y2="418.46" gradientTransform="matrix(-1, 0, 0, 1, 9770, 0)" xlink:href="#New_Gradient_Swatch_2"/><linearGradient id="New_Gradient_Swatch_2-41" x1="7552.39" y1="492.22" x2="7604.9" y2="492.22" gradientTransform="matrix(-1, 0, 0, 1, 9770, 0)" xlink:href="#New_Gradient_Swatch_2"/><linearGradient id="New_Gradient_Swatch_2-42" x1="6458.48" y1="-4638.96" x2="6544.38" y2="-4638.96" gradientTransform="matrix(0.27, 0.73, 0.74, 0.25, 3857.25, -3116.3)" xlink:href="#New_Gradient_Swatch_2"/><linearGradient id="New_Gradient_Swatch_2-43" x1="6525.51" y1="-4626.2" x2="6611.41" y2="-4626.2" gradientTransform="matrix(0.26, 0.74, 0.74, 0.26, 3886.79, -3122.49)" xlink:href="#New_Gradient_Swatch_2"/><linearGradient id="New_Gradient_Swatch_2-44" x1="7550.08" y1="404.65" x2="7635.98" y2="404.65" gradientTransform="matrix(-0.99, 0.01, -0.01, 0.99, 9715.22, -54.78)" xlink:href="#New_Gradient_Swatch_2"/><linearGradient id="New_Gradient_Swatch_2-45" x1="9164.76" y1="-1263" x2="9250.66" y2="-1263" gradientTransform="matrix(-0.73, 0.27, -0.25, 0.74, 8647.04, -1146.31)" xlink:href="#New_Gradient_Swatch_2"/><linearGradient id="New_Gradient_Swatch_2-46" x1="9159.53" y1="-1181.76" x2="9245.42" y2="-1181.76" gradientTransform="matrix(-0.74, 0.26, -0.26, 0.74, 8653.22, -1116.78)" xlink:href="#New_Gradient_Swatch_2"/><linearGradient id="New_Gradient_Swatch_2-47" x1="7522.17" y1="476.86" x2="7606.1" y2="476.86" gradientTransform="matrix(-1, 0, 0, 1, 9770, 0)" xlink:href="#New_Gradient_Swatch_2"/><linearGradient id="New_Gradient_Swatch_1-15" x1="7550.75" y1="451.1" x2="7607.39" y2="451.1" gradientTransform="matrix(-1, 0, 0, 1, 9770, 0)" xlink:href="#New_Gradient_Swatch_1"/><linearGradient id="New_Gradient_Swatch_1-16" x1="7558.05" y1="451.1" x2="7616.8" y2="451.1" gradientTransform="matrix(-1, 0, 0, 1, 9770, 0)" xlink:href="#New_Gradient_Swatch_1"/><linearGradient id="New_Gradient_Swatch_2-48" x1="7539.66" y1="782.57" x2="7567.75" y2="782.57" gradientTransform="matrix(-1, 0, 0, 1, 9420.05, 0)" xlink:href="#New_Gradient_Swatch_2"/><linearGradient id="New_Gradient_Swatch_2-49" x1="6825.76" y1="813.92" x2="6879.57" y2="813.92" gradientTransform="matrix(-1, 0, 0, 1, 8969.03, 0)" xlink:href="#New_Gradient_Swatch_2"/><linearGradient id="New_Gradient_Swatch_1-17" x1="6868" y1="797.55" x2="6904.91" y2="797.55" gradientTransform="matrix(-1, 0, 0, 1, 8969.03, 0)" xlink:href="#New_Gradient_Swatch_1"/><linearGradient id="New_Gradient_Swatch_1-18" x1="6857.34" y1="797.55" x2="6893.25" y2="797.55" gradientTransform="matrix(-1, 0, 0, 1, 8969.03, 0)" xlink:href="#New_Gradient_Swatch_1"/><linearGradient id="New_Gradient_Swatch_2-50" x1="6861.38" y1="744.5" x2="6924.3" y2="744.5" gradientTransform="matrix(-0.99, 0.01, -0.01, 0.99, 8933.12, -35.91)" xlink:href="#New_Gradient_Swatch_2"/><linearGradient id="New_Gradient_Swatch_2-51" x1="6862.67" y1="785.95" x2="6907.93" y2="785.95" gradientTransform="matrix(-1.01, -0.01, 0.01, 1.01, 8999.64, 30.61)" xlink:href="#New_Gradient_Swatch_2"/><linearGradient id="New_Gradient_Swatch_1-19" x1="6859.3" y1="766.56" x2="6996.45" y2="766.56" gradientTransform="matrix(-1, 0, 0, 1, 8969.03, 0)" xlink:href="#New_Gradient_Swatch_1"/><linearGradient id="New_Gradient_Swatch_1-20" x1="6810.68" y1="796.3" x2="6999.03" y2="796.3" gradientTransform="matrix(-1, 0, 0, 1, 8969.03, 0)" xlink:href="#New_Gradient_Swatch_1"/><linearGradient id="New_Gradient_Swatch_2-52" x1="6786.31" y1="797.03" x2="6825.76" y2="797.03" gradientTransform="matrix(-1, 0, 0, 1, 8969.03, 0)" xlink:href="#New_Gradient_Swatch_2"/><linearGradient id="New_Gradient_Swatch_2-53" x1="7838.35" y1="796.61" x2="7864.67" y2="796.61" gradientTransform="matrix(-1, 0, 0, 1, 9704.69, 0)" xlink:href="#New_Gradient_Swatch_2"/><linearGradient id="New_Gradient_Swatch_2-54" x1="960.43" y1="813.92" x2="1014.24" y2="813.92" gradientTransform="translate(735.66)" xlink:href="#New_Gradient_Swatch_2"/><linearGradient id="New_Gradient_Swatch_1-21" x1="1002.67" y1="797.55" x2="1039.58" y2="797.55" gradientTransform="translate(735.66)" xlink:href="#New_Gradient_Swatch_1"/><linearGradient id="New_Gradient_Swatch_1-22" x1="992.01" y1="797.55" x2="1027.91" y2="797.55" gradientTransform="translate(735.66)" xlink:href="#New_Gradient_Swatch_1"/><linearGradient id="New_Gradient_Swatch_2-55" x1="944.15" y1="796.4" x2="1007.07" y2="796.4" gradientTransform="matrix(0.99, 0.01, 0.01, 0.99, 771.57, -35.91)" xlink:href="#New_Gradient_Swatch_2"/><linearGradient id="New_Gradient_Swatch_2-56" x1="1040.17" y1="743.12" x2="1085.43" y2="743.12" gradientTransform="matrix(1.01, -0.01, -0.01, 1.01, 705.05, 30.61)" xlink:href="#New_Gradient_Swatch_2"/><linearGradient id="New_Gradient_Swatch_1-23" x1="993.97" y1="766.56" x2="1131.12" y2="766.56" gradientTransform="translate(735.66)" xlink:href="#New_Gradient_Swatch_1"/><linearGradient id="New_Gradient_Swatch_1-24" x1="945.35" y1="796.3" x2="1133.7" y2="796.3" gradientTransform="translate(735.66)" xlink:href="#New_Gradient_Swatch_1"/><linearGradient id="New_Gradient_Swatch_2-57" x1="920.98" y1="797.03" x2="960.43" y2="797.03" gradientTransform="translate(735.66)" xlink:href="#New_Gradient_Swatch_2"/><linearGradient id="New_Gradient_Swatch_2-58" x1="6829.37" y1="874.36" x2="6883.17" y2="874.36" gradientTransform="translate(8969.03 898.3) rotate(180)" xlink:href="#New_Gradient_Swatch_2"/><linearGradient id="New_Gradient_Swatch_1-25" x1="6871.61" y1="827" x2="6908.51" y2="827" gradientTransform="translate(8969.03 898.3) rotate(180)" xlink:href="#New_Gradient_Swatch_1"/><linearGradient id="New_Gradient_Swatch_1-26" x1="6860.95" y1="827" x2="6896.85" y2="827" gradientTransform="translate(8969.03 898.3) rotate(180)" xlink:href="#New_Gradient_Swatch_1"/><linearGradient id="New_Gradient_Swatch_2-59" x1="6864.48" y1="805.44" x2="6927.4" y2="805.44" gradientTransform="matrix(-0.99, -0.01, -0.01, -0.99, 8933.12, 934.22)" xlink:href="#New_Gradient_Swatch_2"/><linearGradient id="New_Gradient_Swatch_2-60" x1="6866.69" y1="845.97" x2="6911.95" y2="845.97" gradientTransform="matrix(-1.01, 0.01, 0.01, -1.01, 8999.64, 867.7)" xlink:href="#New_Gradient_Swatch_2"/><linearGradient id="New_Gradient_Swatch_1-27" x1="6862.9" y1="827" x2="7000.06" y2="827" gradientTransform="translate(8969.03 898.3) rotate(180)" xlink:href="#New_Gradient_Swatch_1"/><linearGradient id="New_Gradient_Swatch_2-61" x1="6777.1" y1="825.73" x2="6829.37" y2="825.73" gradientTransform="translate(8969.03 898.3) rotate(180)" xlink:href="#New_Gradient_Swatch_2"/><linearGradient id="linear-gradient-5" x1="2245.13" y1="450.73" x2="2249.13" y2="450.73" xlink:href="#linear-gradient-2"/><linearGradient id="linear-gradient-6" x1="2255.91" y1="450.73" x2="2262.91" y2="450.73" xlink:href="#linear-gradient-2"/><linearGradient id="linear-gradient-7" x1="2272.16" y1="450.73" x2="2281.16" y2="450.73" xlink:href="#linear-gradient-2"/><linearGradient id="New_Gradient_Swatch_2-62" x1="1898.44" y1="668.84" x2="1940.4" y2="668.84" xlink:href="#New_Gradient_Swatch_2"/><linearGradient id="New_Gradient_Swatch_1-28" x1="1865.24" y1="781.57" x2="1973.6" y2="781.57" gradientTransform="matrix(1, 0, 0, 1, 0, 0)" xlink:href="#New_Gradient_Swatch_1"/><linearGradient id="New_Gradient_Swatch_1-29" x1="1928.97" y1="725.55" x2="1944.26" y2="725.55" gradientTransform="matrix(1, 0, 0, 1, 0, 0)" xlink:href="#New_Gradient_Swatch_1"/><linearGradient id="New_Gradient_Swatch_1-30" x1="1926.88" y1="749.68" x2="1943.91" y2="749.68" gradientTransform="matrix(1, 0, 0, 1, 0, 0)" xlink:href="#New_Gradient_Swatch_1"/><linearGradient id="linear-gradient-8" x1="1875.79" y1="733.6" x2="1962.71" y2="733.6" gradientTransform="matrix(1, 0, 0, 1, 0, 0)" xlink:href="#New_Gradient_Swatch_1"/><linearGradient id="New_Gradient_Swatch_1-31" x1="2276.66" y1="327.81" x2="1587.7" y2="327.81" gradientTransform="matrix(1, 0, 0, 1, 0, 0)" xlink:href="#New_Gradient_Swatch_1"/><linearGradient id="New_Gradient_Swatch_1-32" x1="2203.61" y1="229.22" x2="2228.58" y2="229.22" gradientTransform="matrix(1, 0, 0, 1, 0, 0)" xlink:href="#New_Gradient_Swatch_1"/><linearGradient id="New_Gradient_Swatch_1-33" x1="2203.61" y1="-494.77" x2="2228.66" y2="-494.77" gradientTransform="translate(0 1171.78)" xlink:href="#New_Gradient_Swatch_1"/><linearGradient id="New_Gradient_Swatch_1-34" x1="8351.31" y1="229.4" x2="8376.28" y2="229.4" gradientTransform="matrix(-1, 0, 0, 1, 9983.47, 0)" xlink:href="#New_Gradient_Swatch_1"/><linearGradient id="New_Gradient_Swatch_1-35" x1="8351.31" y1="-494.59" x2="8376.36" y2="-494.59" gradientTransform="matrix(-1, 0, 0, 1, 9983.47, 1171.78)" xlink:href="#New_Gradient_Swatch_1"/><linearGradient id="New_Gradient_Swatch_2-63" x1="1977.74" y1="207.84" x2="1977.74" y2="35.56" xlink:href="#New_Gradient_Swatch_2"/><linearGradient id="New_Gradient_Swatch_2-64" x1="7628.04" y1="192.87" x2="7657.34" y2="192.87" gradientTransform="matrix(-1, 0, 0, 1, 9504.53, 0)" xlink:href="#New_Gradient_Swatch_2"/><linearGradient id="New_Gradient_Swatch_2-65" x1="7627.12" y1="181.85" x2="7658.07" y2="181.85" gradientTransform="matrix(-1, 0, 0, 1, 9504.53, 0)" xlink:href="#New_Gradient_Swatch_2"/><linearGradient id="New_Gradient_Swatch_2-66" x1="7643.67" y1="207.84" x2="7643.67" y2="35.56" gradientTransform="matrix(-1, 0, 0, 1, 9504.53, 0)" xlink:href="#New_Gradient_Swatch_2"/><linearGradient id="New_Gradient_Swatch_1-36" x1="6814.29" y1="825.75" x2="7009.26" y2="825.75" gradientTransform="translate(8969.03 898.3) rotate(180)" xlink:href="#New_Gradient_Swatch_1"/><linearGradient id="New_Gradient_Swatch_1-37" x1="1533.69" y1="450.6" x2="1592.2" y2="450.6" gradientTransform="matrix(1, 0, 0, 1, 0, 0)" xlink:href="#New_Gradient_Swatch_1"/><linearGradient id="New_Gradient_Swatch_1-38" x1="0" y1="898.71" x2="2812.65" y2="898.71" gradientTransform="matrix(1, 0, 0, 1, 0, 0)" xlink:href="#New_Gradient_Swatch_1"/><linearGradient id="New_Gradient_Swatch_1-39" x1="1958.66" y1="3" x2="2812.65" y2="3" gradientTransform="matrix(1, 0, 0, 1, 0, 0)" xlink:href="#New_Gradient_Swatch_1"/><linearGradient id="New_Gradient_Swatch_1-40" x1="0" y1="3" x2="1880.43" y2="3" gradientTransform="matrix(1, 0, 0, 1, 0, 0)" xlink:href="#New_Gradient_Swatch_1"/><linearGradient id="New_Gradient_Swatch_1-41" x1="975.39" y1="825.75" x2="1170.37" y2="825.75" gradientTransform="matrix(1, 0, 0, -1, 709.18, 898.3)" xlink:href="#New_Gradient_Swatch_1"/><linearGradient id="New_Gradient_Swatch_1-42" x1="1875.41" y1="648.3" x2="1963.62" y2="648.3" gradientTransform="matrix(1, 0, 0, -1, 0, 777.31)" xlink:href="#New_Gradient_Swatch_1"/></defs><g id="Layer_2" data-name="Layer 2"><g id="background"><polyline class="cls-1" points="533.3 898.19 533.3 638.08 483.8 638.08 483.8 236.14 533.3 236.14 533.19 2.98"/><polyline class="cls-2" points="519.6 898.19 519.6 652.63 470.1 652.63 470.1 223.39 519.6 223.39 519.49 2.98"/><polyline class="cls-3" points="503.7 898.19 503.7 669.66 454.2 669.66 454.2 205.97 503.7 205.97 503.59 2.98"/><line class="cls-4" x1="1971.1" y1="41.25" x2="1995.73" y2="41.25"/><line class="cls-5" x1="1971.1" y1="77.01" x2="2031.75" y2="77.01"/><line class="cls-6" x1="1971.89" y1="83.65" x2="2012.46" y2="124.22"/><polyline class="cls-7" points="1971.89 77.82 2015.92 121.85 1991.43 145.88"/><line class="cls-8" x1="1868.22" y1="77.01" x2="1807.57" y2="77.01"/><line class="cls-9" x1="1868.22" y1="82.86" x2="1826.86" y2="124.22"/><polyline class="cls-10" points="1868.22 77.03 1823.4 121.85 1847.89 145.88"/><line class="cls-11" x1="1847.89" y1="145.88" x2="1868.54" y2="145.88"/><line class="cls-12" x1="1991.44" y1="145.88" x2="1971.89" y2="145.88"/><polyline class="cls-13" points="1868.33 15.14 1868.55 151.76 1890.79 151.76 1890.79 175.67 1860.14 206.32"/><polyline class="cls-14" points="1971.99 11.02 1971.78 151.76 1948.53 151.76 1948.53 175.67 1979.7 206.84"/><polyline class="cls-15" points="1985.87 897.21 1985.87 693.48 1959.99 693.48 1959.99 667.94"/><line class="cls-16" x1="1847.89" y1="177.6" x2="1866.64" y2="177.6"/><line class="cls-17" x1="1831.62" y1="162.15" x2="1878.2" y2="162.15"/><polyline class="cls-18" points="1877.49 116.28 1831.62 162.15 1903.24 233.78"/><line class="cls-19" x1="1699.66" y1="23.95" x2="1753.46" y2="23.95"/><polyline class="cls-20" points="1777.31 2.64 1777.31 70.03 1743.4 70.03 1743.4 139.97"/><polyline class="cls-21" points="1766.14 2.64 1766.14 58.67 1732.24 58.67 1732.24 139.97"/><line class="cls-22" x1="1720.01" y1="46.64" x2="1778.37" y2="105"/><line class="cls-23" x1="1752.26" y1="44.98" x2="1795.32" y2="88.04"/><line class="cls-24" x1="1733.9" y1="139.18" x2="1869.64" y2="3.43"/><polyline class="cls-25" points="1698.66 2.64 1698.66 65.64 1674.66 65.64 1674.66 141.51 1648.39 141.51 1648.39 2.64"/><line class="cls-26" x1="1868.22" y1="41.25" x2="1843.59" y2="41.25"/><line class="cls-27" x1="1991.44" y1="177.6" x2="1972.68" y2="177.6"/><line class="cls-28" x1="1962.81" y1="178.91" x2="1990.7" y2="206.83"/><line class="cls-29" x1="1961.89" y1="167.08" x2="1991.43" y2="196.62"/><line class="cls-30" x1="2007.71" y1="162.15" x2="1961.12" y2="162.15"/><polyline class="cls-31" points="1961.84 116.28 2007.71 162.15 1936.08 233.78"/><polyline class="cls-32" points="1903.83 221.14 1903.83 266.38 1935.2 266.38 1935.2 221.08"/><line class="cls-33" x1="1925.85" y1="203.85" x2="1936.08" y2="203.85"/><line class="cls-34" x1="1924.46" y1="190.38" x2="1935.85" y2="190.38"/><line class="cls-35" x1="1919.47" y1="226" x2="1919.47" y2="80.34"/><path class="cls-36" d="M1925.85,220.77V171.36a27.76,27.76,0,0,1,20.44,20,81.33,81.33,0,0,1-5.66,6.45c2.21,2.26,3.76,3.75,6,6a27.7,27.7,0,0,1-54.27,0H1913V171.38a27,27,0,0,0-20.22,19.7"/><line class="cls-37" x1="1919.52" y1="241.85" x2="1919.52" y2="282.06"/><line class="cls-38" x1="1971.1" y1="796.61" x2="1999.33" y2="796.61"/><line class="cls-39" x1="1619.23" y1="392.29" x2="1667.45" y2="444.63"/><line class="cls-40" x1="1619.23" y1="518.11" x2="1666.95" y2="466.32"/><polyline class="cls-41" points="1571.79 206.83 1571.79 115.56 1555.75 115.56 1555.86 2.64"/><polyline class="cls-42" points="1578.61 206.83 1578.61 108.13 1562.56 108.13 1562.67 2.64"/><polyline class="cls-43" points="1571.79 670.67 1571.79 767.64 1555.75 767.64 1555.86 901.76"/><polyline class="cls-44" points="1578.61 670.67 1578.61 775.07 1562.56 775.07 1562.67 901.76"/><line class="cls-45" x1="1667.57" y1="496.32" x2="1631.05" y2="455.8"/><line class="cls-46" x1="1646.36" y1="518.76" x2="1609.51" y2="478.76"/><line class="cls-47" x1="1667.73" y1="392.29" x2="1589.9" y2="476.77"/><line class="cls-48" x1="1647.05" y1="392.29" x2="1608.19" y2="433.49"/><line class="cls-49" x1="1667.73" y1="415.32" x2="1630.88" y2="455.32"/><line class="cls-50" x1="1667.73" y1="518.11" x2="1591.72" y2="435.6"/><polyline class="cls-51" points="1508.6 898.21 1508.6 638.1 1558.1 638.1 1558.1 236.16 1508.6 236.16 1508.71 3"/><polyline class="cls-52" points="1619.23 574.39 1619.23 518.12 1667.73 518.12 1667.73 392.29 1619.23 392.29 1619.23 327.81"/><polyline class="cls-53" points="1626.43 574.39 1626.43 525.53 1675.93 525.53 1675.93 384.71 1626.43 384.71 1626.43 327.81"/><line class="cls-54" x1="1587.7" y1="573.96" x2="2276.66" y2="573.96"/><line class="cls-55" x1="1587.7" y1="586.17" x2="2276.66" y2="586.17"/><line class="cls-56" x1="1587.7" y1="598.39" x2="2276.66" y2="598.39"/><line class="cls-57" x1="1587.7" y1="340.02" x2="2276.66" y2="340.02"/><line class="cls-58" x1="1587.7" y1="352.24" x2="2276.66" y2="352.24"/><polyline class="cls-59" points="1522.3 898.21 1522.3 652.65 1571.8 652.65 1571.8 223.41 1522.3 223.41 1522.41 3"/><line class="cls-60" x1="2217.25" y1="392.29" x2="2164.91" y2="444.63"/><line class="cls-61" x1="2217.25" y1="518.11" x2="2165.45" y2="466.32"/><line class="cls-62" x1="2164.78" y1="496.32" x2="2204.43" y2="455.8"/><line class="cls-63" x1="2187.81" y1="518.76" x2="2227.81" y2="478.76"/><line class="cls-64" x1="2164.61" y1="392.29" x2="2247.13" y2="474.81"/><line class="cls-65" x1="2187.06" y1="392.29" x2="2227.58" y2="431.94"/><line class="cls-66" x1="2164.61" y1="415.32" x2="2204.61" y2="455.32"/><line class="cls-67" x1="2164.61" y1="518.11" x2="2247.13" y2="435.6"/><polyline class="cls-68" points="2217.25 574.39 2217.25 518.12 2164.61 518.12 2164.61 392.29 2217.25 392.29 2217.25 327.81"/><polyline class="cls-69" points="2209.45 574.39 2209.45 525.53 2155.7 525.53 2155.7 384.71 2209.45 384.71 2209.45 327.81"/><polyline class="cls-70" points="1853.3 897.21 1853.3 693.48 1879.39 693.48 1879.39 667.94"/><line class="cls-71" x1="2143.27" y1="813.92" x2="2089.46" y2="813.92"/><polyline class="cls-72" points="2065.62 897.21 2065.62 767.84 2099.53 767.84 2099.53 697.9"/><polyline class="cls-73" points="2076.78 897.21 2076.78 779.19 2110.69 779.19 2110.69 697.9"/><line class="cls-74" x1="2122.91" y1="791.23" x2="2064.56" y2="732.87"/><line class="cls-75" x1="2090.67" y1="792.89" x2="2047.61" y2="749.82"/><line class="cls-76" x1="2109.03" y1="698.69" x2="1973.28" y2="834.43"/><polyline class="cls-77" points="2090.04 897.21 2090.04 792.26 2113.95 792.26 2123.95 792.26 2123.95 754.23 2155.85 754.23 2155.85 697.9 2099.53 697.9 1971.77 825.66"/><polyline class="cls-78" points="2144.27 897.21 2144.27 772.23 2168.27 772.23 2168.27 696.36 2181.72 696.36 2181.72 898.71"/><line class="cls-79" x1="1866.35" y1="796.61" x2="1840.02" y2="796.61"/><line class="cls-80" x1="1696.09" y1="813.92" x2="1749.9" y2="813.92"/><polyline class="cls-81" points="1773.74 897.21 1773.74 767.84 1739.83 767.84 1739.83 697.9"/><polyline class="cls-82" points="1762.57 897.21 1762.57 779.19 1728.67 779.19 1728.67 697.9"/><line class="cls-83" x1="1716.44" y1="791.23" x2="1774.8" y2="732.87"/><line class="cls-84" x1="1748.69" y1="792.89" x2="1791.75" y2="749.82"/><line class="cls-85" x1="1730.33" y1="698.69" x2="1866.07" y2="834.43"/><polyline class="cls-86" points="1749.32 897.21 1749.32 792.26 1725.41 792.26 1715.41 792.26 1715.41 754.23 1683.51 754.23 1683.51 697.9 1739.83 697.9 1867.59 825.66"/><polyline class="cls-87" points="1695.09 897.21 1695.09 772.23 1671.09 772.23 1671.09 696.36 1657.64 696.36 1657.64 898.71"/><line class="cls-88" x1="2139.67" y1="23.95" x2="2085.86" y2="23.95"/><polyline class="cls-89" points="2062.02 2.64 2062.02 70.03 2095.92 70.03 2095.92 139.97"/><polyline class="cls-90" points="2073.18 2.64 2073.18 58.67 2107.09 58.67 2107.09 139.97"/><line class="cls-91" x1="2119.31" y1="46.64" x2="2060.96" y2="105"/><line class="cls-92" x1="2087.07" y1="44.98" x2="2044" y2="88.04"/><line class="cls-93" x1="2105.42" y1="139.18" x2="1969.68" y2="3.43"/><polyline class="cls-94" points="2140.67 2.64 2140.67 65.64 2164.67 65.64 2164.67 141.51 2190.93 141.51 2190.93 2.64"/><line class="cls-95" x1="2247.13" y1="898.47" x2="2247.13" y2="3"/><line class="cls-96" x1="2259.41" y1="898.47" x2="2259.41" y2="3"/><line class="cls-97" x1="2276.66" y1="898.47" x2="2276.66" y2="3"/><polyline class="cls-98" points="1899.94 697.1 1899.94 642.08 1938.9 642.08 1938.9 697.1"/><polyline class="cls-99" points="1867.74 897.69 1867.74 667.94 1971.1 667.94 1971.1 897.69"/><line class="cls-100" x1="1928.97" y1="725.55" x2="1944.26" y2="725.55"/><line class="cls-101" x1="1926.88" y1="749.68" x2="1943.91" y2="749.68"/><line class="cls-102" x1="1919.42" y1="692.43" x2="1919.42" y2="874.52"/><path class="cls-103" d="M1929,700.26v73.85a41.46,41.46,0,0,0,30.55-30c-4.87-5.82-5.65-6.84-8.45-9.64,3.3-3.38,5.61-5.62,8.92-9a41.41,41.41,0,0,0-81.14,0h30.89v48.53a40.41,40.41,0,0,1-30.22-29.45"/><line class="cls-37" x1="1919.42" y1="678.38" x2="1919.42" y2="630.39"/><line class="cls-104" x1="1587.7" y1="327.81" x2="2276.66" y2="327.81"/><polyline class="cls-105" points="2204.61 2.64 2204.61 86.64 2227.57 86.64 2227.57 202.5 2204.61 202.5 2204.61 312.78 2227.57 312.78 2227.57 433.31 2204.61 433.31 2204.61 455.8"/><polyline class="cls-106" points="2204.61 455.8 2204.61 478.19 2227.57 478.19 2227.66 615.23 2204.69 615.23 2204.69 725.5 2227.66 725.5 2227.66 846.03 2204.69 846.03 2204.62 898.21"/><polyline class="cls-107" points="1631.16 2.82 1631.16 86.82 1608.19 86.82 1608.19 202.68 1631.16 202.68 1631.16 312.96 1608.19 312.96 1608.19 433.49 1631.16 433.49 1631.16 455.98"/><polyline class="cls-108" points="1631.16 455.98 1631.16 478.37 1608.19 478.37 1608.11 615.4 1631.08 615.4 1631.08 725.68 1608.11 725.68 1608.11 846.21 1631.08 846.21 1631.14 898.39"/><polyline class="cls-109" points="1991.43 35.56 1991.43 206.84 1963.04 206.84"/><line class="cls-110" x1="1875.78" y1="178.91" x2="1847.89" y2="206.83"/><line class="cls-111" x1="1876.71" y1="167.08" x2="1847.16" y2="196.62"/><polyline class="cls-112" points="1847.16 35.56 1847.16 206.84 1875.56 206.84"/><polyline class="cls-113" points="2086.44 2.64 2086.44 45.61 2110.34 45.61 2120.34 45.61 2120.34 83.64 2152.25 83.64 2152.25 139.96 2095.92 139.96 1961.54 5.58"/><polyline class="cls-114" points="1538.19 898.21 1538.19 669.68 1587.7 669.68 1587.7 205.99 1538.19 205.99 1538.31 3"/><line class="cls-115" y1="898.71" x2="2812.65" y2="898.71"/><line class="cls-116" x1="1958.66" y1="3" x2="2812.65" y2="3"/><line class="cls-117" y1="3" x2="1880.43" y2="3"/><polyline class="cls-118" points="1752.88 2.64 1752.88 45.61 1728.98 45.61 1718.98 45.61 1718.98 83.64 1687.08 83.64 1687.08 139.96 1743.4 139.96 1877.78 5.58"/><polyline class="cls-119" points="1877.91 1.84 1877.91 255.31 1961.12 255.31 1961.12 0.19"/></g></g></svg>