<svg xmlns="http://www.w3.org/2000/svg" xmlns:xlink="http://www.w3.org/1999/xlink" viewBox="0 0 2245.42 901.76"><defs><style>.cls-1,.cls-10,.cls-100,.cls-101,.cls-102,.cls-103,.cls-104,.cls-105,.cls-106,.cls-107,.cls-108,.cls-109,.cls-11,.cls-110,.cls-111,.cls-112,.cls-113,.cls-114,.cls-115,.cls-116,.cls-117,.cls-118,.cls-119,.cls-12,.cls-13,.cls-14,.cls-15,.cls-16,.cls-17,.cls-18,.cls-19,.cls-2,.cls-20,.cls-21,.cls-22,.cls-23,.cls-24,.cls-25,.cls-26,.cls-27,.cls-28,.cls-29,.cls-3,.cls-30,.cls-31,.cls-32,.cls-33,.cls-34,.cls-35,.cls-36,.cls-37,.cls-38,.cls-39,.cls-4,.cls-40,.cls-41,.cls-42,.cls-43,.cls-44,.cls-45,.cls-46,.cls-47,.cls-48,.cls-49,.cls-5,.cls-50,.cls-51,.cls-52,.cls-53,.cls-54,.cls-55,.cls-56,.cls-57,.cls-58,.cls-59,.cls-6,.cls-60,.cls-61,.cls-62,.cls-63,.cls-64,.cls-65,.cls-66,.cls-67,.cls-68,.cls-69,.cls-7,.cls-70,.cls-71,.cls-72,.cls-73,.cls-74,.cls-75,.cls-76,.cls-77,.cls-78,.cls-79,.cls-8,.cls-80,.cls-81,.cls-82,.cls-83,.cls-84,.cls-85,.cls-86,.cls-87,.cls-88,.cls-89,.cls-9,.cls-90,.cls-91,.cls-92,.cls-93,.cls-94,.cls-95,.cls-96,.cls-97,.cls-98,.cls-99{fill:none;stroke-miterlimit:10;}.cls-1,.cls-23,.cls-42,.cls-44,.cls-51,.cls-52,.cls-68,.cls-75,.cls-84,.cls-92,.cls-95{stroke-width:4px;}.cls-1{stroke:url(#New_Gradient_Swatch_1);}.cls-2,.cls-59,.cls-96{stroke-width:7px;}.cls-2{stroke:url(#New_Gradient_Swatch_1-2);}.cls-114,.cls-3,.cls-97{stroke-width:9px;}.cls-3{stroke:url(#New_Gradient_Swatch_1-3);}.cls-10,.cls-105,.cls-106,.cls-107,.cls-108,.cls-109,.cls-110,.cls-111,.cls-112,.cls-13,.cls-14,.cls-15,.cls-18,.cls-19,.cls-21,.cls-24,.cls-25,.cls-26,.cls-28,.cls-29,.cls-31,.cls-37,.cls-38,.cls-4,.cls-41,.cls-43,.cls-45,.cls-46,.cls-47,.cls-48,.cls-49,.cls-5,.cls-50,.cls-62,.cls-63,.cls-64,.cls-65,.cls-66,.cls-67,.cls-7,.cls-70,.cls-71,.cls-73,.cls-76,.cls-78,.cls-79,.cls-8,.cls-80,.cls-82,.cls-85,.cls-87,.cls-88,.cls-90,.cls-93,.cls-94{stroke-width:2px;}.cls-4{stroke:url(#New_Gradient_Swatch_2);}.cls-5{stroke:url(#New_Gradient_Swatch_2-2);}.cls-6{stroke:url(#New_Gradient_Swatch_2-3);}.cls-7{stroke:url(#New_Gradient_Swatch_2-4);}.cls-8{stroke:url(#New_Gradient_Swatch_2-5);}.cls-9{stroke:url(#New_Gradient_Swatch_2-6);}.cls-10{stroke:url(#New_Gradient_Swatch_2-7);}.cls-11{stroke:url(#New_Gradient_Swatch_2-8);}.cls-12{stroke:url(#New_Gradient_Swatch_2-9);}.cls-13{stroke:url(#New_Gradient_Swatch_2-10);}.cls-14{stroke:url(#New_Gradient_Swatch_2-11);}.cls-15{stroke:url(#New_Gradient_Swatch_2-12);}.cls-16{stroke:url(#New_Gradient_Swatch_2-13);}.cls-17{stroke:url(#New_Gradient_Swatch_2-14);}.cls-18{stroke:url(#New_Gradient_Swatch_2-15);}.cls-19{stroke:url(#New_Gradient_Swatch_2-16);}.cls-104,.cls-20,.cls-32,.cls-33,.cls-34,.cls-35,.cls-36,.cls-54,.cls-55,.cls-56,.cls-57,.cls-58,.cls-72,.cls-81,.cls-89,.cls-98{stroke-width:3px;}.cls-20{stroke:url(#New_Gradient_Swatch_1-4);}.cls-21{stroke:url(#New_Gradient_Swatch_1-5);}.cls-100,.cls-101,.cls-102,.cls-103,.cls-113,.cls-118,.cls-119,.cls-22,.cls-53,.cls-69,.cls-74,.cls-77,.cls-83,.cls-86,.cls-91,.cls-99{stroke-width:5px;}.cls-22{stroke:url(#New_Gradient_Swatch_2-17);}.cls-23{stroke:url(#New_Gradient_Swatch_2-18);}.cls-24{stroke:url(#New_Gradient_Swatch_1-6);}.cls-25{stroke:url(#New_Gradient_Swatch_2-19);}.cls-26{stroke:url(#New_Gradient_Swatch_2-20);}.cls-27{stroke:url(#New_Gradient_Swatch_2-21);}.cls-28{stroke:url(#New_Gradient_Swatch_2-22);}.cls-29{stroke:url(#New_Gradient_Swatch_2-23);}.cls-30{stroke:url(#New_Gradient_Swatch_2-24);}.cls-31{stroke:url(#New_Gradient_Swatch_2-25);}.cls-32{stroke:url(#New_Gradient_Swatch_2-26);}.cls-33{stroke:url(#New_Gradient_Swatch_1-7);}.cls-34{stroke:url(#New_Gradient_Swatch_1-8);}.cls-102,.cls-35,.cls-37{stroke:#e2c482;}.cls-36{stroke:url(#linear-gradient);}.cls-38{stroke:url(#New_Gradient_Swatch_2-27);}.cls-39{stroke:url(#New_Gradient_Swatch_2-28);}.cls-40{stroke:url(#New_Gradient_Swatch_2-29);}.cls-41{stroke:url(#New_Gradient_Swatch_2-30);}.cls-42{stroke:url(#New_Gradient_Swatch_2-31);}.cls-43{stroke:url(#New_Gradient_Swatch_2-32);}.cls-44{stroke:url(#New_Gradient_Swatch_2-33);}.cls-45{stroke:url(#New_Gradient_Swatch_2-34);}.cls-46{stroke:url(#New_Gradient_Swatch_2-35);}.cls-47{stroke:url(#New_Gradient_Swatch_2-36);}.cls-48{stroke:url(#New_Gradient_Swatch_2-37);}.cls-49{stroke:url(#New_Gradient_Swatch_2-38);}.cls-50{stroke:url(#New_Gradient_Swatch_2-39);}.cls-51{stroke:url(#New_Gradient_Swatch_1-9);}.cls-52{stroke:url(#New_Gradient_Swatch_1-10);}.cls-53{stroke:url(#New_Gradient_Swatch_1-11);}.cls-54{stroke:url(#linear-gradient-2);}.cls-55{stroke:url(#linear-gradient-3);}.cls-56{stroke:url(#linear-gradient-4);}.cls-57{stroke:url(#New_Gradient_Swatch_1-12);}.cls-58{stroke:url(#New_Gradient_Swatch_1-13);}.cls-59{stroke:url(#New_Gradient_Swatch_1-14);}.cls-60{stroke:url(#New_Gradient_Swatch_2-40);}.cls-61{stroke:url(#New_Gradient_Swatch_2-41);}.cls-62{stroke:url(#New_Gradient_Swatch_2-42);}.cls-63{stroke:url(#New_Gradient_Swatch_2-43);}.cls-64{stroke:url(#New_Gradient_Swatch_2-44);}.cls-65{stroke:url(#New_Gradient_Swatch_2-45);}.cls-66{stroke:url(#New_Gradient_Swatch_2-46);}.cls-67{stroke:url(#New_Gradient_Swatch_2-47);}.cls-68{stroke:url(#New_Gradient_Swatch_1-15);}.cls-69{stroke:url(#New_Gradient_Swatch_1-16);}.cls-70{stroke:url(#New_Gradient_Swatch_2-48);}.cls-71{stroke:url(#New_Gradient_Swatch_2-49);}.cls-72{stroke:url(#New_Gradient_Swatch_1-17);}.cls-73{stroke:url(#New_Gradient_Swatch_1-18);}.cls-74{stroke:url(#New_Gradient_Swatch_2-50);}.cls-75{stroke:url(#New_Gradient_Swatch_2-51);}.cls-76{stroke:url(#New_Gradient_Swatch_1-19);}.cls-77{stroke:url(#New_Gradient_Swatch_1-20);}.cls-78{stroke:url(#New_Gradient_Swatch_2-52);}.cls-79{stroke:url(#New_Gradient_Swatch_2-53);}.cls-80{stroke:url(#New_Gradient_Swatch_2-54);}.cls-81{stroke:url(#New_Gradient_Swatch_1-21);}.cls-82{stroke:url(#New_Gradient_Swatch_1-22);}.cls-83{stroke:url(#New_Gradient_Swatch_2-55);}.cls-84{stroke:url(#New_Gradient_Swatch_2-56);}.cls-85{stroke:url(#New_Gradient_Swatch_1-23);}.cls-86{stroke:url(#New_Gradient_Swatch_1-24);}.cls-87{stroke:url(#New_Gradient_Swatch_2-57);}.cls-88{stroke:url(#New_Gradient_Swatch_2-58);}.cls-89{stroke:url(#New_Gradient_Swatch_1-25);}.cls-90{stroke:url(#New_Gradient_Swatch_1-26);}.cls-91{stroke:url(#New_Gradient_Swatch_2-59);}.cls-92{stroke:url(#New_Gradient_Swatch_2-60);}.cls-93{stroke:url(#New_Gradient_Swatch_1-27);}.cls-94{stroke:url(#New_Gradient_Swatch_2-61);}.cls-95{stroke:url(#linear-gradient-5);}.cls-96{stroke:url(#linear-gradient-6);}.cls-97{stroke:url(#linear-gradient-7);}.cls-98{stroke:url(#New_Gradient_Swatch_2-62);}.cls-99{stroke:url(#New_Gradient_Swatch_1-28);}.cls-100{stroke:url(#New_Gradient_Swatch_1-29);}.cls-101{stroke:url(#New_Gradient_Swatch_1-30);}.cls-103{stroke:url(#linear-gradient-8);}.cls-104{stroke:url(#New_Gradient_Swatch_1-31);}.cls-105{stroke:url(#New_Gradient_Swatch_1-32);}.cls-106{stroke:url(#New_Gradient_Swatch_1-33);}.cls-107{stroke:url(#New_Gradient_Swatch_1-34);}.cls-108{stroke:url(#New_Gradient_Swatch_1-35);}.cls-109{stroke:url(#New_Gradient_Swatch_2-63);}.cls-110{stroke:url(#New_Gradient_Swatch_2-64);}.cls-111{stroke:url(#New_Gradient_Swatch_2-65);}.cls-112{stroke:url(#New_Gradient_Swatch_2-66);}.cls-113{stroke:url(#New_Gradient_Swatch_1-36);}.cls-114{stroke:url(#New_Gradient_Swatch_1-37);}.cls-115,.cls-116,.cls-117{stroke-width:6px;}.cls-115{stroke:url(#New_Gradient_Swatch_1-38);}.cls-116{stroke:url(#New_Gradient_Swatch_1-39);}.cls-117{stroke:url(#New_Gradient_Swatch_1-40);}.cls-118{stroke:url(#New_Gradient_Swatch_1-41);}.cls-119{stroke:url(#New_Gradient_Swatch_1-42);}</style><linearGradient id="New_Gradient_Swatch_1" x1="7707.53" y1="450.58" x2="7761.03" y2="450.58" gradientTransform="matrix(-1, 0, 0, 1, 8010.02, 0)" gradientUnits="userSpaceOnUse"><stop offset="0" stop-color="#9d7c32"/><stop offset="0.64" stop-color="#e2c482"/><stop offset="1" stop-color="#a27d2a"/></linearGradient><linearGradient id="New_Gradient_Swatch_1-2" x1="7719.72" y1="450.58" x2="7776.23" y2="450.58" xlink:href="#New_Gradient_Swatch_1"/><linearGradient id="New_Gradient_Swatch_1-3" x1="7734.62" y1="450.58" x2="7793.13" y2="450.58" xlink:href="#New_Gradient_Swatch_1"/><linearGradient id="New_Gradient_Swatch_2" x1="1738.29" y1="41.25" x2="1762.92" y2="41.25" gradientUnits="userSpaceOnUse"><stop offset="0" stop-color="#514017"/><stop offset="0.64" stop-color="#e2c482"/><stop offset="1" stop-color="#5e4713"/></linearGradient><linearGradient id="New_Gradient_Swatch_2-2" x1="1738.29" y1="700.29" x2="1798.94" y2="700.29" gradientTransform="matrix(1, 0, 0, -1, 0, 777.31)" xlink:href="#New_Gradient_Swatch_2"/><linearGradient id="New_Gradient_Swatch_2-3" x1="1780" y1="103.93" x2="1738.73" y2="103.93" xlink:href="#New_Gradient_Swatch_2"/><linearGradient id="New_Gradient_Swatch_2-4" x1="1761.45" y1="146.59" x2="1761.45" y2="77.11" xlink:href="#New_Gradient_Swatch_2"/><linearGradient id="New_Gradient_Swatch_2-5" x1="7577.18" y1="700.29" x2="7637.83" y2="700.29" gradientTransform="translate(9212.59 777.31) rotate(180)" xlink:href="#New_Gradient_Swatch_2"/><linearGradient id="New_Gradient_Swatch_2-6" x1="7618.89" y1="103.54" x2="7576.83" y2="103.54" gradientTransform="matrix(-1, 0, 0, 1, 9212.59, 0)" xlink:href="#New_Gradient_Swatch_2"/><linearGradient id="New_Gradient_Swatch_2-7" x1="7599.95" y1="146.59" x2="7599.95" y2="76.32" gradientTransform="matrix(-1, 0, 0, 1, 9212.59, 0)" xlink:href="#New_Gradient_Swatch_2"/><linearGradient id="New_Gradient_Swatch_2-8" x1="7576.86" y1="145.88" x2="7597.51" y2="145.88" gradientTransform="matrix(-1, 0, 0, 1, 9212.59, 0)" xlink:href="#New_Gradient_Swatch_2"/><linearGradient id="New_Gradient_Swatch_2-9" x1="1739.08" y1="145.88" x2="1758.62" y2="145.88" xlink:href="#New_Gradient_Swatch_2"/><linearGradient id="New_Gradient_Swatch_2-10" x1="7553.61" y1="666.22" x2="7585.97" y2="666.22" gradientTransform="translate(9212.59 777.31) rotate(180)" xlink:href="#New_Gradient_Swatch_2"/><linearGradient id="New_Gradient_Swatch_2-11" x1="1714.72" y1="668.02" x2="1747.6" y2="668.02" gradientTransform="matrix(1, 0, 0, -1, 0, 777.31)" xlink:href="#New_Gradient_Swatch_2"/><linearGradient id="New_Gradient_Swatch_2-12" x1="1726.17" y1="782.57" x2="1754.06" y2="782.57" xlink:href="#New_Gradient_Swatch_2"/><linearGradient id="New_Gradient_Swatch_2-13" x1="7578.76" y1="177.6" x2="7597.51" y2="177.6" gradientTransform="matrix(-1, 0, 0, 1, 9212.59, 0)" xlink:href="#New_Gradient_Swatch_2"/><linearGradient id="New_Gradient_Swatch_2-14" x1="7567.2" y1="162.15" x2="7613.79" y2="162.15" gradientTransform="matrix(-1, 0, 0, 1, 9212.59, 0)" xlink:href="#New_Gradient_Swatch_2"/><linearGradient id="New_Gradient_Swatch_2-15" x1="7541.45" y1="175.03" x2="7615.2" y2="175.03" gradientTransform="matrix(-1, 0, 0, 1, 9212.59, 0)" xlink:href="#New_Gradient_Swatch_2"/><linearGradient id="New_Gradient_Swatch_2-16" x1="757.66" y1="874.36" x2="811.47" y2="874.36" gradientTransform="matrix(1, 0, 0, -1, 709.18, 898.3)" xlink:href="#New_Gradient_Swatch_2"/><linearGradient id="New_Gradient_Swatch_1-4" x1="799.9" y1="827" x2="836.81" y2="827" gradientTransform="matrix(1, 0, 0, -1, 709.18, 898.3)" xlink:href="#New_Gradient_Swatch_1"/><linearGradient id="New_Gradient_Swatch_1-5" x1="789.24" y1="827" x2="825.15" y2="827" gradientTransform="matrix(1, 0, 0, -1, 709.18, 898.3)" xlink:href="#New_Gradient_Swatch_1"/><linearGradient id="New_Gradient_Swatch_2-17" x1="741.11" y1="857.11" x2="804.03" y2="857.11" gradientTransform="matrix(0.99, -0.01, 0.01, -0.99, 743.07, 932.19)" xlink:href="#New_Gradient_Swatch_2"/><linearGradient id="New_Gradient_Swatch_2-18" x1="837.62" y1="803.33" x2="882.88" y2="803.33" gradientTransform="matrix(1.01, 0.01, -0.01, -1.01, 680.3, 869.42)" xlink:href="#New_Gradient_Swatch_2"/><linearGradient id="New_Gradient_Swatch_1-6" x1="791.2" y1="827" x2="928.36" y2="827" gradientTransform="matrix(1, 0, 0, -1, 709.18, 898.3)" xlink:href="#New_Gradient_Swatch_1"/><linearGradient id="New_Gradient_Swatch_2-19" x1="705.4" y1="825.73" x2="757.66" y2="825.73" gradientTransform="matrix(1, 0, 0, -1, 709.18, 898.3)" xlink:href="#New_Gradient_Swatch_2"/><linearGradient id="New_Gradient_Swatch_2-20" x1="7577.18" y1="41.25" x2="7601.81" y2="41.25" gradientTransform="matrix(-1, 0, 0, 1, 9212.59, 0)" xlink:href="#New_Gradient_Swatch_2"/><linearGradient id="New_Gradient_Swatch_2-21" x1="1739.87" y1="177.6" x2="1758.62" y2="177.6" xlink:href="#New_Gradient_Swatch_2"/><linearGradient id="New_Gradient_Swatch_2-22" x1="1729.3" y1="192.87" x2="1758.6" y2="192.87" xlink:href="#New_Gradient_Swatch_2"/><linearGradient id="New_Gradient_Swatch_2-23" x1="1728.37" y1="181.85" x2="1759.33" y2="181.85" xlink:href="#New_Gradient_Swatch_2"/><linearGradient id="New_Gradient_Swatch_2-24" x1="1728.31" y1="162.15" x2="1774.9" y2="162.15" xlink:href="#New_Gradient_Swatch_2"/><linearGradient id="New_Gradient_Swatch_2-25" x1="1702.56" y1="175.03" x2="1776.31" y2="175.03" xlink:href="#New_Gradient_Swatch_2"/><linearGradient id="New_Gradient_Swatch_2-26" x1="1669.52" y1="532.83" x2="1703.89" y2="532.83" gradientTransform="matrix(1, 0, 0, -1, 0, 777.31)" xlink:href="#New_Gradient_Swatch_2"/><linearGradient id="New_Gradient_Swatch_1-7" x1="1693.04" y1="573.46" x2="1703.27" y2="573.46" gradientTransform="matrix(1, 0, 0, -1, 0, 777.31)" xlink:href="#New_Gradient_Swatch_1"/><linearGradient id="New_Gradient_Swatch_1-8" x1="1691.64" y1="586.92" x2="1703.04" y2="586.92" gradientTransform="matrix(1, 0, 0, -1, 0, 777.31)" xlink:href="#New_Gradient_Swatch_1"/><linearGradient id="linear-gradient" x1="1657.68" y1="578.82" x2="1715.42" y2="578.82" gradientTransform="matrix(1, 0, 0, -1, 0, 777.31)" xlink:href="#New_Gradient_Swatch_1"/><linearGradient id="New_Gradient_Swatch_2-27" x1="1738.29" y1="796.61" x2="1766.52" y2="796.61" xlink:href="#New_Gradient_Swatch_2"/><linearGradient id="New_Gradient_Swatch_2-28" x1="1386.05" y1="418.46" x2="1435" y2="418.46" xlink:href="#New_Gradient_Swatch_2"/><linearGradient id="New_Gradient_Swatch_2-29" x1="1386.05" y1="492.22" x2="1434.51" y2="492.22" xlink:href="#New_Gradient_Swatch_2"/><linearGradient id="New_Gradient_Swatch_2-30" x1="1321.93" y1="104.74" x2="1339.98" y2="104.74" xlink:href="#New_Gradient_Swatch_2"/><linearGradient id="New_Gradient_Swatch_2-31" x1="1327.74" y1="104.73" x2="1347.79" y2="104.73" xlink:href="#New_Gradient_Swatch_2"/><linearGradient id="New_Gradient_Swatch_2-32" x1="1321.93" y1="-1061.75" x2="1339.98" y2="-1061.75" gradientTransform="matrix(1, 0, 0, -1, 0, -275.54)" xlink:href="#New_Gradient_Swatch_2"/><linearGradient id="New_Gradient_Swatch_2-33" x1="1327.75" y1="-1061.75" x2="1347.79" y2="-1061.75" gradientTransform="matrix(1, 0, 0, -1, 0, -275.54)" xlink:href="#New_Gradient_Swatch_2"/><linearGradient id="New_Gradient_Swatch_2-34" x1="3039.06" y1="4548.66" x2="3123.25" y2="4548.66" gradientTransform="matrix(-0.27, 0.73, -0.74, 0.25, 5616.9, -2945.34)" xlink:href="#New_Gradient_Swatch_2"/><linearGradient id="New_Gradient_Swatch_2-35" x1="2993.82" y1="4607.84" x2="3077.94" y2="4607.84" gradientTransform="matrix(-0.26, 0.74, -0.74, 0.26, 5589.11, -2950.97)" xlink:href="#New_Gradient_Swatch_2"/><linearGradient id="New_Gradient_Swatch_2-36" x1="1356.36" y1="434.53" x2="1435.65" y2="434.53" xlink:href="#New_Gradient_Swatch_2"/><linearGradient id="New_Gradient_Swatch_2-37" x1="-324.98" y1="2125.26" x2="-240.8" y2="2125.26" gradientTransform="matrix(0.73, 0.27, 0.25, 0.74, 1061.11, -1083.27)" xlink:href="#New_Gradient_Swatch_2"/><linearGradient id="New_Gradient_Swatch_2-38" x1="-307.73" y1="2119.03" x2="-226.71" y2="2119.03" gradientTransform="matrix(0.74, 0.26, 0.26, 0.74, 1055.48, -1055.48)" xlink:href="#New_Gradient_Swatch_2"/><linearGradient id="New_Gradient_Swatch_2-39" x1="1358.17" y1="476.86" x2="1435.65" y2="476.86" xlink:href="#New_Gradient_Swatch_2"/><linearGradient id="New_Gradient_Swatch_1-9" x1="1273.78" y1="450.6" x2="1327.29" y2="450.6" gradientTransform="matrix(1, 0, 0, 1, 0, 0)" xlink:href="#New_Gradient_Swatch_1"/><linearGradient id="New_Gradient_Swatch_1-10" x1="1384.42" y1="451.1" x2="1436.92" y2="451.1" gradientTransform="matrix(1, 0, 0, 1, 0, 0)" xlink:href="#New_Gradient_Swatch_1"/><linearGradient id="New_Gradient_Swatch_1-11" x1="1391.11" y1="451.1" x2="1445.62" y2="451.1" gradientTransform="matrix(1, 0, 0, 1, 0, 0)" xlink:href="#New_Gradient_Swatch_1"/><linearGradient id="linear-gradient-2" x1="2043.84" y1="573.96" x2="1354.89" y2="573.96" gradientUnits="userSpaceOnUse"><stop offset="0" stop-color="#9d7c32"/><stop offset="0.26" stop-color="#e2c482"/><stop offset="1" stop-color="#a27d2a"/></linearGradient><linearGradient id="linear-gradient-3" x1="2043.84" y1="586.17" x2="1354.89" y2="586.17" xlink:href="#linear-gradient-2"/><linearGradient id="linear-gradient-4" x1="2043.84" y1="598.39" x2="1354.89" y2="598.39" xlink:href="#linear-gradient-2"/><linearGradient id="New_Gradient_Swatch_1-12" x1="2043.84" y1="340.02" x2="1354.89" y2="340.02" gradientTransform="matrix(1, 0, 0, 1, 0, 0)" xlink:href="#New_Gradient_Swatch_1"/><linearGradient id="New_Gradient_Swatch_1-13" x1="2043.84" y1="352.24" x2="1354.89" y2="352.24" gradientTransform="matrix(1, 0, 0, 1, 0, 0)" xlink:href="#New_Gradient_Swatch_1"/><linearGradient id="New_Gradient_Swatch_1-14" x1="1285.98" y1="450.6" x2="1342.49" y2="450.6" gradientTransform="matrix(1, 0, 0, 1, 0, 0)" xlink:href="#New_Gradient_Swatch_1"/><linearGradient id="New_Gradient_Swatch_2-40" x1="7319.58" y1="418.46" x2="7372.63" y2="418.46" gradientTransform="matrix(-1, 0, 0, 1, 9304.38, 0)" xlink:href="#New_Gradient_Swatch_2"/><linearGradient id="New_Gradient_Swatch_2-41" x1="7319.58" y1="492.22" x2="7372.09" y2="492.22" gradientTransform="matrix(-1, 0, 0, 1, 9304.38, 0)" xlink:href="#New_Gradient_Swatch_2"/><linearGradient id="New_Gradient_Swatch_2-42" x1="6225.67" y1="-4638.96" x2="6311.57" y2="-4638.96" gradientTransform="matrix(0.27, 0.73, 0.74, 0.25, 3687.48, -2945.34)" xlink:href="#New_Gradient_Swatch_2"/><linearGradient id="New_Gradient_Swatch_2-43" x1="6292.7" y1="-4626.2" x2="6378.6" y2="-4626.2" gradientTransform="matrix(0.26, 0.74, 0.74, 0.26, 3715.27, -2950.97)" xlink:href="#New_Gradient_Swatch_2"/><linearGradient id="New_Gradient_Swatch_2-44" x1="7317.27" y1="404.65" x2="7403.17" y2="404.65" gradientTransform="matrix(-0.99, 0.01, -0.01, 0.99, 9252.3, -52.07)" xlink:href="#New_Gradient_Swatch_2"/><linearGradient id="New_Gradient_Swatch_2-45" x1="8931.95" y1="-1263" x2="9017.85" y2="-1263" gradientTransform="matrix(-0.73, 0.27, -0.25, 0.74, 8243.27, -1083.27)" xlink:href="#New_Gradient_Swatch_2"/><linearGradient id="New_Gradient_Swatch_2-46" x1="8926.71" y1="-1181.76" x2="9012.61" y2="-1181.76" gradientTransform="matrix(-0.74, 0.26, -0.26, 0.74, 8248.89, -1055.48)" xlink:href="#New_Gradient_Swatch_2"/><linearGradient id="New_Gradient_Swatch_2-47" x1="7289.36" y1="476.86" x2="7373.29" y2="476.86" gradientTransform="matrix(-1, 0, 0, 1, 9304.38, 0)" xlink:href="#New_Gradient_Swatch_2"/><linearGradient id="New_Gradient_Swatch_1-15" x1="7317.94" y1="451.1" x2="7374.58" y2="451.1" gradientTransform="matrix(-1, 0, 0, 1, 9304.38, 0)" xlink:href="#New_Gradient_Swatch_1"/><linearGradient id="New_Gradient_Swatch_1-16" x1="7325.24" y1="451.1" x2="7383.98" y2="451.1" gradientTransform="matrix(-1, 0, 0, 1, 9304.38, 0)" xlink:href="#New_Gradient_Swatch_1"/><linearGradient id="New_Gradient_Swatch_2-48" x1="7306.85" y1="782.57" x2="7334.94" y2="782.57" gradientTransform="matrix(-1, 0, 0, 1, 8954.43, 0)" xlink:href="#New_Gradient_Swatch_2"/><linearGradient id="New_Gradient_Swatch_2-49" x1="6592.95" y1="813.92" x2="6646.76" y2="813.92" gradientTransform="matrix(-1, 0, 0, 1, 8503.41, 0)" xlink:href="#New_Gradient_Swatch_2"/><linearGradient id="New_Gradient_Swatch_1-17" x1="6635.19" y1="797.55" x2="6672.1" y2="797.55" gradientTransform="matrix(-1, 0, 0, 1, 8503.41, 0)" xlink:href="#New_Gradient_Swatch_1"/><linearGradient id="New_Gradient_Swatch_1-18" x1="6624.53" y1="797.55" x2="6660.43" y2="797.55" gradientTransform="matrix(-1, 0, 0, 1, 8503.41, 0)" xlink:href="#New_Gradient_Swatch_1"/><linearGradient id="New_Gradient_Swatch_2-50" x1="6628.57" y1="744.5" x2="6691.49" y2="744.5" gradientTransform="matrix(-0.99, 0.01, -0.01, 0.99, 8469.52, -33.89)" xlink:href="#New_Gradient_Swatch_2"/><linearGradient id="New_Gradient_Swatch_2-51" x1="6629.85" y1="785.95" x2="6675.12" y2="785.95" gradientTransform="matrix(-1.01, -0.01, 0.01, 1.01, 8532.29, 28.88)" xlink:href="#New_Gradient_Swatch_2"/><linearGradient id="New_Gradient_Swatch_1-19" x1="6626.49" y1="766.56" x2="6763.64" y2="766.56" gradientTransform="matrix(-1, 0, 0, 1, 8503.41, 0)" xlink:href="#New_Gradient_Swatch_1"/><linearGradient id="New_Gradient_Swatch_1-20" x1="6577.87" y1="796.3" x2="6766.22" y2="796.3" gradientTransform="matrix(-1, 0, 0, 1, 8503.41, 0)" xlink:href="#New_Gradient_Swatch_1"/><linearGradient id="New_Gradient_Swatch_2-52" x1="6553.5" y1="797.03" x2="6592.95" y2="797.03" gradientTransform="matrix(-1, 0, 0, 1, 8503.41, 0)" xlink:href="#New_Gradient_Swatch_2"/><linearGradient id="New_Gradient_Swatch_2-53" x1="7605.53" y1="796.61" x2="7631.85" y2="796.61" gradientTransform="matrix(-1, 0, 0, 1, 9239.07, 0)" xlink:href="#New_Gradient_Swatch_2"/><linearGradient id="New_Gradient_Swatch_2-54" x1="727.62" y1="813.92" x2="781.42" y2="813.92" gradientTransform="translate(735.66)" xlink:href="#New_Gradient_Swatch_2"/><linearGradient id="New_Gradient_Swatch_1-21" x1="769.86" y1="797.55" x2="806.76" y2="797.55" gradientTransform="translate(735.66)" xlink:href="#New_Gradient_Swatch_1"/><linearGradient id="New_Gradient_Swatch_1-22" x1="759.2" y1="797.55" x2="795.1" y2="797.55" gradientTransform="translate(735.66)" xlink:href="#New_Gradient_Swatch_1"/><linearGradient id="New_Gradient_Swatch_2-55" x1="711.33" y1="796.4" x2="774.26" y2="796.4" gradientTransform="matrix(0.99, 0.01, 0.01, 0.99, 769.55, -33.89)" xlink:href="#New_Gradient_Swatch_2"/><linearGradient id="New_Gradient_Swatch_2-56" x1="807.35" y1="743.12" x2="852.62" y2="743.12" gradientTransform="matrix(1.01, -0.01, -0.01, 1.01, 706.78, 28.88)" xlink:href="#New_Gradient_Swatch_2"/><linearGradient id="New_Gradient_Swatch_1-23" x1="761.15" y1="766.56" x2="898.31" y2="766.56" gradientTransform="translate(735.66)" xlink:href="#New_Gradient_Swatch_1"/><linearGradient id="New_Gradient_Swatch_1-24" x1="712.54" y1="796.3" x2="900.89" y2="796.3" gradientTransform="translate(735.66)" xlink:href="#New_Gradient_Swatch_1"/><linearGradient id="New_Gradient_Swatch_2-57" x1="688.17" y1="797.03" x2="727.62" y2="797.03" gradientTransform="translate(735.66)" xlink:href="#New_Gradient_Swatch_2"/><linearGradient id="New_Gradient_Swatch_2-58" x1="6596.55" y1="874.36" x2="6650.36" y2="874.36" gradientTransform="translate(8503.41 898.3) rotate(180)" xlink:href="#New_Gradient_Swatch_2"/><linearGradient id="New_Gradient_Swatch_1-25" x1="6638.8" y1="827" x2="6675.7" y2="827" gradientTransform="translate(8503.41 898.3) rotate(180)" xlink:href="#New_Gradient_Swatch_1"/><linearGradient id="New_Gradient_Swatch_1-26" x1="6628.13" y1="827" x2="6664.04" y2="827" gradientTransform="translate(8503.41 898.3) rotate(180)" xlink:href="#New_Gradient_Swatch_1"/><linearGradient id="New_Gradient_Swatch_2-59" x1="6631.67" y1="805.44" x2="6694.59" y2="805.44" gradientTransform="matrix(-0.99, -0.01, -0.01, -0.99, 8469.52, 932.19)" xlink:href="#New_Gradient_Swatch_2"/><linearGradient id="New_Gradient_Swatch_2-60" x1="6633.87" y1="845.97" x2="6679.14" y2="845.97" gradientTransform="matrix(-1.01, 0.01, 0.01, -1.01, 8532.29, 869.42)" xlink:href="#New_Gradient_Swatch_2"/><linearGradient id="New_Gradient_Swatch_1-27" x1="6630.09" y1="827" x2="6767.25" y2="827" gradientTransform="translate(8503.41 898.3) rotate(180)" xlink:href="#New_Gradient_Swatch_1"/><linearGradient id="New_Gradient_Swatch_2-61" x1="6544.29" y1="825.73" x2="6596.55" y2="825.73" gradientTransform="translate(8503.41 898.3) rotate(180)" xlink:href="#New_Gradient_Swatch_2"/><linearGradient id="linear-gradient-5" x1="2012.31" y1="450.73" x2="2016.31" y2="450.73" xlink:href="#linear-gradient-2"/><linearGradient id="linear-gradient-6" x1="2023.09" y1="450.73" x2="2030.09" y2="450.73" xlink:href="#linear-gradient-2"/><linearGradient id="linear-gradient-7" x1="2039.34" y1="450.73" x2="2048.34" y2="450.73" xlink:href="#linear-gradient-2"/><linearGradient id="New_Gradient_Swatch_2-62" x1="1665.63" y1="668.84" x2="1707.59" y2="668.84" xlink:href="#New_Gradient_Swatch_2"/><linearGradient id="New_Gradient_Swatch_1-28" x1="1632.43" y1="781.57" x2="1740.79" y2="781.57" gradientTransform="matrix(1, 0, 0, 1, 0, 0)" xlink:href="#New_Gradient_Swatch_1"/><linearGradient id="New_Gradient_Swatch_1-29" x1="1696.16" y1="725.55" x2="1711.45" y2="725.55" gradientTransform="matrix(1, 0, 0, 1, 0, 0)" xlink:href="#New_Gradient_Swatch_1"/><linearGradient id="New_Gradient_Swatch_1-30" x1="1694.07" y1="749.68" x2="1711.1" y2="749.68" gradientTransform="matrix(1, 0, 0, 1, 0, 0)" xlink:href="#New_Gradient_Swatch_1"/><linearGradient id="linear-gradient-8" x1="1642.98" y1="733.6" x2="1729.89" y2="733.6" gradientTransform="matrix(1, 0, 0, 1, 0, 0)" xlink:href="#New_Gradient_Swatch_1"/><linearGradient id="New_Gradient_Swatch_1-31" x1="2043.84" y1="327.81" x2="1354.89" y2="327.81" gradientTransform="matrix(1, 0, 0, 1, 0, 0)" xlink:href="#New_Gradient_Swatch_1"/><linearGradient id="New_Gradient_Swatch_1-32" x1="1970.8" y1="229.22" x2="1995.76" y2="229.22" gradientTransform="matrix(1, 0, 0, 1, 0, 0)" xlink:href="#New_Gradient_Swatch_1"/><linearGradient id="New_Gradient_Swatch_1-33" x1="1970.8" y1="-494.77" x2="1995.84" y2="-494.77" gradientTransform="translate(0 1171.78)" xlink:href="#New_Gradient_Swatch_1"/><linearGradient id="New_Gradient_Swatch_1-34" x1="8118.5" y1="229.4" x2="8143.47" y2="229.4" gradientTransform="matrix(-1, 0, 0, 1, 9517.84, 0)" xlink:href="#New_Gradient_Swatch_1"/><linearGradient id="New_Gradient_Swatch_1-35" x1="8118.5" y1="-494.59" x2="8143.55" y2="-494.59" gradientTransform="matrix(-1, 0, 0, 1, 9517.84, 1171.78)" xlink:href="#New_Gradient_Swatch_1"/><linearGradient id="New_Gradient_Swatch_2-63" x1="1744.93" y1="207.84" x2="1744.93" y2="35.56" xlink:href="#New_Gradient_Swatch_2"/><linearGradient id="New_Gradient_Swatch_2-64" x1="7395.23" y1="192.87" x2="7424.53" y2="192.87" gradientTransform="matrix(-1, 0, 0, 1, 9038.91, 0)" xlink:href="#New_Gradient_Swatch_2"/><linearGradient id="New_Gradient_Swatch_2-65" x1="7394.3" y1="181.85" x2="7425.26" y2="181.85" gradientTransform="matrix(-1, 0, 0, 1, 9038.91, 0)" xlink:href="#New_Gradient_Swatch_2"/><linearGradient id="New_Gradient_Swatch_2-66" x1="7410.86" y1="207.84" x2="7410.86" y2="35.56" gradientTransform="matrix(-1, 0, 0, 1, 9038.91, 0)" xlink:href="#New_Gradient_Swatch_2"/><linearGradient id="New_Gradient_Swatch_1-36" x1="6581.47" y1="825.75" x2="6776.45" y2="825.75" gradientTransform="translate(8503.41 898.3) rotate(180)" xlink:href="#New_Gradient_Swatch_1"/><linearGradient id="New_Gradient_Swatch_1-37" x1="1300.88" y1="450.6" x2="1359.39" y2="450.6" gradientTransform="matrix(1, 0, 0, 1, 0, 0)" xlink:href="#New_Gradient_Swatch_1"/><linearGradient id="New_Gradient_Swatch_1-38" x1="0" y1="898.71" x2="2245.42" y2="898.71" gradientTransform="matrix(1, 0, 0, 1, 0, 0)" xlink:href="#New_Gradient_Swatch_1"/><linearGradient id="New_Gradient_Swatch_1-39" x1="1725.84" y1="3" x2="2245.42" y2="3" gradientTransform="matrix(1, 0, 0, 1, 0, 0)" xlink:href="#New_Gradient_Swatch_1"/><linearGradient id="New_Gradient_Swatch_1-40" x1="0" y1="3" x2="1647.62" y2="3" gradientTransform="matrix(1, 0, 0, 1, 0, 0)" xlink:href="#New_Gradient_Swatch_1"/><linearGradient id="New_Gradient_Swatch_1-41" x1="742.58" y1="825.75" x2="937.56" y2="825.75" gradientTransform="matrix(1, 0, 0, -1, 709.18, 898.3)" xlink:href="#New_Gradient_Swatch_1"/><linearGradient id="New_Gradient_Swatch_1-42" x1="1642.6" y1="648.3" x2="1730.81" y2="648.3" gradientTransform="matrix(1, 0, 0, -1, 0, 777.31)" xlink:href="#New_Gradient_Swatch_1"/></defs><g id="Layer_2" data-name="Layer 2"><g id="background"><polyline class="cls-1" points="300.49 898.19 300.49 638.08 250.98 638.08 250.98 236.14 300.49 236.14 300.37 2.98"/><polyline class="cls-2" points="286.79 898.19 286.79 652.63 237.28 652.63 237.28 223.39 286.79 223.39 286.68 2.98"/><polyline class="cls-3" points="270.89 898.19 270.89 669.66 221.39 669.66 221.39 205.97 270.89 205.97 270.78 2.98"/><line class="cls-4" x1="1738.29" y1="41.25" x2="1762.92" y2="41.25"/><line class="cls-5" x1="1738.29" y1="77.01" x2="1798.94" y2="77.01"/><line class="cls-6" x1="1739.08" y1="83.65" x2="1779.65" y2="124.22"/><polyline class="cls-7" points="1739.08 77.82 1783.11 121.85 1758.62 145.88"/><line class="cls-8" x1="1635.41" y1="77.01" x2="1574.76" y2="77.01"/><line class="cls-9" x1="1635.41" y1="82.86" x2="1594.05" y2="124.22"/><polyline class="cls-10" points="1635.41 77.03 1590.59 121.85 1615.08 145.88"/><line class="cls-11" x1="1615.08" y1="145.88" x2="1635.73" y2="145.88"/><line class="cls-12" x1="1758.62" y1="145.88" x2="1739.08" y2="145.88"/><polyline class="cls-13" points="1635.52 15.14 1635.74 151.76 1657.98 151.76 1657.98 175.67 1627.33 206.32"/><polyline class="cls-14" points="1739.18 11.02 1738.96 151.76 1715.72 151.76 1715.72 175.67 1746.89 206.84"/><polyline class="cls-15" points="1753.06 897.21 1753.06 693.48 1727.17 693.48 1727.17 667.94"/><line class="cls-16" x1="1615.08" y1="177.6" x2="1633.83" y2="177.6"/><line class="cls-17" x1="1598.8" y1="162.15" x2="1645.39" y2="162.15"/><polyline class="cls-18" points="1644.68 116.28 1598.8 162.15 1670.43 233.78"/><line class="cls-19" x1="1466.85" y1="23.95" x2="1520.65" y2="23.95"/><polyline class="cls-20" points="1544.49 2.64 1544.49 70.03 1510.59 70.03 1510.59 139.97"/><polyline class="cls-21" points="1533.33 2.64 1533.33 58.67 1499.42 58.67 1499.42 139.97"/><line class="cls-22" x1="1487.2" y1="46.64" x2="1545.56" y2="105"/><line class="cls-23" x1="1519.44" y1="44.98" x2="1562.51" y2="88.04"/><line class="cls-24" x1="1501.09" y1="139.18" x2="1636.83" y2="3.43"/><polyline class="cls-25" points="1465.85 2.64 1465.85 65.64 1441.85 65.64 1441.85 141.51 1415.58 141.51 1415.58 2.64"/><line class="cls-26" x1="1635.41" y1="41.25" x2="1610.78" y2="41.25"/><line class="cls-27" x1="1758.62" y1="177.6" x2="1739.87" y2="177.6"/><line class="cls-28" x1="1730" y1="178.91" x2="1757.89" y2="206.83"/><line class="cls-29" x1="1729.08" y1="167.08" x2="1758.62" y2="196.62"/><line class="cls-30" x1="1774.9" y1="162.15" x2="1728.31" y2="162.15"/><polyline class="cls-31" points="1729.02 116.28 1774.9 162.15 1703.27 233.78"/><polyline class="cls-32" points="1671.02 221.14 1671.02 266.38 1702.39 266.38 1702.39 221.08"/><line class="cls-33" x1="1693.04" y1="203.85" x2="1703.27" y2="203.85"/><line class="cls-34" x1="1691.64" y1="190.38" x2="1703.04" y2="190.38"/><line class="cls-35" x1="1686.65" y1="226" x2="1686.65" y2="80.34"/><path class="cls-36" d="M1693,220.77V171.36a27.73,27.73,0,0,1,20.43,20,79.73,79.73,0,0,1-5.65,6.45c2.21,2.26,3.76,3.75,6,6a27.7,27.7,0,0,1-54.27,0h20.66V171.38a27,27,0,0,0-20.22,19.7"/><line class="cls-37" x1="1686.71" y1="241.85" x2="1686.71" y2="282.06"/><line class="cls-38" x1="1738.29" y1="796.61" x2="1766.52" y2="796.61"/><line class="cls-39" x1="1386.42" y1="392.29" x2="1434.64" y2="444.63"/><line class="cls-40" x1="1386.42" y1="518.11" x2="1434.14" y2="466.32"/><polyline class="cls-41" points="1338.98 206.83 1338.98 115.56 1322.93 115.56 1323.05 2.64"/><polyline class="cls-42" points="1345.79 206.83 1345.79 108.13 1329.75 108.13 1329.86 2.64"/><polyline class="cls-43" points="1338.98 670.67 1338.98 767.64 1322.93 767.64 1323.05 901.76"/><polyline class="cls-44" points="1345.79 670.67 1345.79 775.07 1329.75 775.07 1329.86 901.76"/><line class="cls-45" x1="1434.75" y1="496.32" x2="1398.23" y2="455.8"/><line class="cls-46" x1="1413.55" y1="518.76" x2="1376.7" y2="478.76"/><line class="cls-47" x1="1434.92" y1="392.29" x2="1357.09" y2="476.77"/><line class="cls-48" x1="1414.24" y1="392.29" x2="1375.38" y2="433.49"/><line class="cls-49" x1="1434.92" y1="415.32" x2="1398.07" y2="455.32"/><line class="cls-50" x1="1434.92" y1="518.11" x2="1358.9" y2="435.6"/><polyline class="cls-51" points="1275.78 898.21 1275.78 638.1 1325.29 638.1 1325.29 236.16 1275.78 236.16 1275.9 3"/><polyline class="cls-52" points="1386.42 574.39 1386.42 518.12 1434.92 518.12 1434.92 392.29 1386.42 392.29 1386.42 327.81"/><polyline class="cls-53" points="1393.61 574.39 1393.61 525.53 1443.12 525.53 1443.12 384.71 1393.61 384.71 1393.61 327.81"/><line class="cls-54" x1="1354.89" y1="573.96" x2="2043.84" y2="573.96"/><line class="cls-55" x1="1354.89" y1="586.17" x2="2043.84" y2="586.17"/><line class="cls-56" x1="1354.89" y1="598.39" x2="2043.84" y2="598.39"/><line class="cls-57" x1="1354.89" y1="340.02" x2="2043.84" y2="340.02"/><line class="cls-58" x1="1354.89" y1="352.24" x2="2043.84" y2="352.24"/><polyline class="cls-59" points="1289.48 898.21 1289.48 652.65 1338.99 652.65 1338.99 223.41 1289.48 223.41 1289.6 3"/><line class="cls-60" x1="1984.44" y1="392.29" x2="1932.1" y2="444.63"/><line class="cls-61" x1="1984.44" y1="518.11" x2="1932.64" y2="466.32"/><line class="cls-62" x1="1931.97" y1="496.32" x2="1971.62" y2="455.8"/><line class="cls-63" x1="1955" y1="518.76" x2="1995" y2="478.76"/><line class="cls-64" x1="1931.8" y1="392.29" x2="2014.31" y2="474.81"/><line class="cls-65" x1="1954.25" y1="392.29" x2="1994.76" y2="431.94"/><line class="cls-66" x1="1931.8" y1="415.32" x2="1971.8" y2="455.32"/><line class="cls-67" x1="1931.8" y1="518.11" x2="2014.31" y2="435.6"/><polyline class="cls-68" points="1984.44 574.39 1984.44 518.12 1931.8 518.12 1931.8 392.29 1984.44 392.29 1984.44 327.81"/><polyline class="cls-69" points="1976.63 574.39 1976.63 525.53 1922.89 525.53 1922.89 384.71 1976.63 384.71 1976.63 327.81"/><polyline class="cls-70" points="1620.49 897.21 1620.49 693.48 1646.58 693.48 1646.58 667.94"/><line class="cls-71" x1="1910.46" y1="813.92" x2="1856.65" y2="813.92"/><polyline class="cls-72" points="1832.81 897.21 1832.81 767.84 1866.71 767.84 1866.71 697.9"/><polyline class="cls-73" points="1843.97 897.21 1843.97 779.19 1877.88 779.19 1877.88 697.9"/><line class="cls-74" x1="1890.1" y1="791.23" x2="1831.75" y2="732.87"/><line class="cls-75" x1="1857.86" y1="792.89" x2="1814.8" y2="749.82"/><line class="cls-76" x1="1876.21" y1="698.69" x2="1740.47" y2="834.43"/><polyline class="cls-77" points="1857.23 897.21 1857.23 792.26 1881.14 792.26 1891.14 792.26 1891.14 754.23 1923.04 754.23 1923.04 697.9 1866.71 697.9 1738.95 825.66"/><polyline class="cls-78" points="1911.46 897.21 1911.46 772.23 1935.46 772.23 1935.46 696.36 1948.91 696.36 1948.91 898.71"/><line class="cls-79" x1="1633.53" y1="796.61" x2="1607.21" y2="796.61"/><line class="cls-80" x1="1463.28" y1="813.92" x2="1517.08" y2="813.92"/><polyline class="cls-81" points="1540.92 897.21 1540.92 767.84 1507.02 767.84 1507.02 697.9"/><polyline class="cls-82" points="1529.76 897.21 1529.76 779.19 1495.86 779.19 1495.86 697.9"/><line class="cls-83" x1="1483.63" y1="791.23" x2="1541.99" y2="732.87"/><line class="cls-84" x1="1515.87" y1="792.89" x2="1558.94" y2="749.82"/><line class="cls-85" x1="1497.52" y1="698.69" x2="1633.26" y2="834.43"/><polyline class="cls-86" points="1516.5 897.21 1516.5 792.26 1492.6 792.26 1482.6 792.26 1482.6 754.23 1450.7 754.23 1450.7 697.9 1507.02 697.9 1634.78 825.66"/><polyline class="cls-87" points="1462.28 897.21 1462.28 772.23 1438.28 772.23 1438.28 696.36 1424.83 696.36 1424.83 898.71"/><line class="cls-88" x1="1906.85" y1="23.95" x2="1853.05" y2="23.95"/><polyline class="cls-89" points="1829.21 2.64 1829.21 70.03 1863.11 70.03 1863.11 139.97"/><polyline class="cls-90" points="1840.37 2.64 1840.37 58.67 1874.27 58.67 1874.27 139.97"/><line class="cls-91" x1="1886.5" y1="46.64" x2="1828.14" y2="105"/><line class="cls-92" x1="1854.26" y1="44.98" x2="1811.19" y2="88.04"/><line class="cls-93" x1="1872.61" y1="139.18" x2="1736.87" y2="3.43"/><polyline class="cls-94" points="1907.85 2.64 1907.85 65.64 1931.85 65.64 1931.85 141.51 1958.12 141.51 1958.12 2.64"/><line class="cls-95" x1="2014.31" y1="898.47" x2="2014.31" y2="3"/><line class="cls-96" x1="2026.59" y1="898.47" x2="2026.59" y2="3"/><line class="cls-97" x1="2043.84" y1="898.47" x2="2043.84" y2="3"/><polyline class="cls-98" points="1667.13 697.1 1667.13 642.08 1706.09 642.08 1706.09 697.1"/><polyline class="cls-99" points="1634.93 897.69 1634.93 667.94 1738.29 667.94 1738.29 897.69"/><line class="cls-100" x1="1696.16" y1="725.55" x2="1711.45" y2="725.55"/><line class="cls-101" x1="1694.07" y1="749.68" x2="1711.1" y2="749.68"/><line class="cls-102" x1="1686.61" y1="692.43" x2="1686.61" y2="874.52"/><path class="cls-103" d="M1696.16,700.26v73.85a41.44,41.44,0,0,0,30.54-30c-4.87-5.82-5.64-6.84-8.45-9.64,3.3-3.38,5.62-5.62,8.93-9a41.41,41.41,0,0,0-81.14,0h30.89v48.53a40.38,40.38,0,0,1-30.22-29.45"/><line class="cls-37" x1="1686.61" y1="678.38" x2="1686.61" y2="630.39"/><line class="cls-104" x1="1354.89" y1="327.81" x2="2043.84" y2="327.81"/><polyline class="cls-105" points="1971.8 2.64 1971.8 86.64 1994.76 86.64 1994.76 202.5 1971.8 202.5 1971.8 312.78 1994.76 312.78 1994.76 433.31 1971.8 433.31 1971.8 455.8"/><polyline class="cls-106" points="1971.8 455.8 1971.8 478.19 1994.76 478.19 1994.84 615.23 1971.88 615.23 1971.88 725.5 1994.84 725.5 1994.84 846.03 1971.88 846.03 1971.81 898.21"/><polyline class="cls-107" points="1398.34 2.82 1398.34 86.82 1375.38 86.82 1375.38 202.68 1398.34 202.68 1398.34 312.96 1375.38 312.96 1375.38 433.49 1398.34 433.49 1398.34 455.98"/><polyline class="cls-108" points="1398.34 455.98 1398.34 478.37 1375.38 478.37 1375.3 615.4 1398.26 615.4 1398.26 725.68 1375.3 725.68 1375.3 846.21 1398.26 846.21 1398.33 898.39"/><polyline class="cls-109" points="1758.62 35.56 1758.62 206.84 1730.23 206.84"/><line class="cls-110" x1="1642.97" y1="178.91" x2="1615.08" y2="206.83"/><line class="cls-111" x1="1643.89" y1="167.08" x2="1614.35" y2="196.62"/><polyline class="cls-112" points="1614.35 35.56 1614.35 206.84 1642.74 206.84"/><polyline class="cls-113" points="1853.63 2.64 1853.63 45.61 1877.53 45.61 1887.53 45.61 1887.53 83.64 1919.43 83.64 1919.43 139.96 1863.11 139.96 1728.73 5.58"/><polyline class="cls-114" points="1305.38 898.21 1305.38 669.68 1354.89 669.68 1354.89 205.99 1305.38 205.99 1305.5 3"/><line class="cls-115" y1="898.71" x2="2245.42" y2="898.71"/><line class="cls-116" x1="1725.84" y1="3" x2="2245.42" y2="3"/><line class="cls-117" y1="3" x2="1647.62" y2="3"/><polyline class="cls-118" points="1520.07 2.64 1520.07 45.61 1496.17 45.61 1486.17 45.61 1486.17 83.64 1454.27 83.64 1454.27 139.96 1510.59 139.96 1644.97 5.58"/><polyline class="cls-119" points="1645.1 1.84 1645.1 255.31 1728.31 255.31 1728.31 0.19"/></g></g></svg>