<svg xmlns="http://www.w3.org/2000/svg" viewBox="0 0 420.22 77.41"><defs><style>.cls-1{fill:#c9ad75;}</style></defs><g id="Layer_2" data-name="Layer 2"><g id="vetical_hrs" data-name="vetical hrs"><path class="cls-1" d="M38.7,65.85a26.8,26.8,0,0,0,12.89-3.23V75.18A38,38,0,0,1,38.7,77.41,37.25,37.25,0,0,1,11.35,66.06,37.25,37.25,0,0,1,0,38.71,37.25,37.25,0,0,1,11.35,11.35,37.25,37.25,0,0,1,38.7,0,39.24,39.24,0,0,1,51.59,2.17V14.79A26.4,26.4,0,0,0,38.7,11.51a26.09,26.09,0,0,0-19.19,8,26.16,26.16,0,0,0-8,19.2,26.15,26.15,0,0,0,8,19.19A26.15,26.15,0,0,0,38.7,65.85Z"/><path class="cls-1" d="M68.45,66.06A37.25,37.25,0,0,1,57.1,38.71,37.25,37.25,0,0,1,68.45,11.35,37.25,37.25,0,0,1,95.8,0a37.25,37.25,0,0,1,27.36,11.35,37.25,37.25,0,0,1,11.35,27.36,37.25,37.25,0,0,1-11.35,27.35A37.25,37.25,0,0,1,95.8,77.41,37.25,37.25,0,0,1,68.45,66.06Zm8.16-46.55a26.16,26.16,0,0,0-8,19.2,26.15,26.15,0,0,0,8,19.19,27.15,27.15,0,0,0,38.39,0,26.15,26.15,0,0,0,8-19.19,26.16,26.16,0,0,0-8-19.2,27.15,27.15,0,0,0-38.39,0Z"/><path class="cls-1" d="M198.66.8V76.67h-12L154.18,22.43V76.67H142.67V.8h12L187.1,55V.8Z"/><path class="cls-1" d="M251.68.8V12.3H235.61V76.67H224.06V12.3H208V.8Z"/><path class="cls-1" d="M308.46.8V76.67H296.9V59H271.14L260,76.67H246.32L294.31.8ZM278.4,47.45h18.5V18.24Z"/><path class="cls-1" d="M356.76,65.85a26.8,26.8,0,0,0,12.89-3.23V75.18a38.08,38.08,0,0,1-12.89,2.23A37.29,37.29,0,0,1,329.4,66.06a37.28,37.28,0,0,1-11.34-27.35A37.28,37.28,0,0,1,329.4,11.35,37.29,37.29,0,0,1,356.76,0a39.29,39.29,0,0,1,12.89,2.17V14.79a26.4,26.4,0,0,0-12.89-3.28,26.09,26.09,0,0,0-19.19,8,26.16,26.16,0,0,0-7.95,19.2,26.15,26.15,0,0,0,7.95,19.19A26.15,26.15,0,0,0,356.76,65.85Z"/><path class="cls-1" d="M420.22.8V12.3H404.16V76.67H392.6V12.3H376.54V.8Z"/></g></g></svg>