<svg xmlns="http://www.w3.org/2000/svg" viewBox="0 0 314.08 77.41"><defs><style>.cls-1{fill:#c9ad75;}</style></defs><g id="Layer_2" data-name="Layer 2"><g id="vetical_hrs" data-name="vetical hrs"><path class="cls-1" d="M0,76.67V.8H19.94A36.56,36.56,0,0,1,46.76,11.93,36.63,36.63,0,0,1,57.84,38.76,36.58,36.58,0,0,1,46.76,65.53,36.56,36.56,0,0,1,19.94,76.67ZM11.45,65.21h8.49a25.48,25.48,0,0,0,18.71-7.79,25.43,25.43,0,0,0,7.74-18.66A25.5,25.5,0,0,0,38.65,20a25.52,25.52,0,0,0-18.71-7.79H11.45Z"/><path class="cls-1" d="M106.14.8V12.3H79V32.87h21V44.38H79V65.16h27.19V76.67H67.44V.8Z"/><path class="cls-1" d="M135.57,77.35a29.64,29.64,0,0,1-13.89-4,21.42,21.42,0,0,1-9.81-11.25l10.82-4a10.84,10.84,0,0,0,5.46,5.67,19.4,19.4,0,0,0,7.95,2.07,15.85,15.85,0,0,0,11-3.23,9.34,9.34,0,0,0,3.87-6.79q.33-7.26-15.21-11.61-24.34-6.84-23.6-23.17.48-11.46,9.81-17.13Q129.05-.41,139,.05q12.07.54,19.4,8.43L150,16.33q-4.14-4.45-11.51-4.77a20.71,20.71,0,0,0-8.85,1.32,9.21,9.21,0,0,0-6,8.7q-.31,7.16,15.22,11.5,14,3.93,19.82,11.56a17.63,17.63,0,0,1,3.77,11.72q-.42,9-8.17,15.27A26.78,26.78,0,0,1,137,77.41C136.5,77.41,136,77.39,135.57,77.35Z"/><path class="cls-1" d="M183.23,76.67h-11.5V.9h11.5Z"/><path class="cls-1" d="M203.91,66.06A37.29,37.29,0,0,1,192.56,38.7a37.29,37.29,0,0,1,11.35-27.35A37.25,37.25,0,0,1,231.27,0a38.38,38.38,0,0,1,15,3l-4.45,10.66a26.7,26.7,0,0,0-10.6-2.17,26.07,26.07,0,0,0-19.2,8,26.15,26.15,0,0,0-7.95,19.19,26.18,26.18,0,0,0,7.95,19.2,26.18,26.18,0,0,0,19.2,7.95,28,28,0,0,0,7.1-.9V44.27h-12.3V32.71h23.86V72.85l-3.5,1.48a38.51,38.51,0,0,1-15.16,3.08A37.25,37.25,0,0,1,203.91,66.06Z"/><path class="cls-1" d="M314.08.8V76.67h-12L269.6,22.43V76.67H258.09V.8h12L302.52,55V.8Z"/></g></g></svg>