<svg xmlns="http://www.w3.org/2000/svg" xmlns:xlink="http://www.w3.org/1999/xlink" viewBox="0 0 1920 224"><defs><style>.cls-1,.cls-10,.cls-11,.cls-12,.cls-13,.cls-14,.cls-15,.cls-16,.cls-17,.cls-18,.cls-19,.cls-2,.cls-20,.cls-21,.cls-22,.cls-23,.cls-3,.cls-4,.cls-5,.cls-6,.cls-7,.cls-8,.cls-9{fill:none;stroke-miterlimit:10;}.cls-1{stroke-width:4px;stroke:url(#New_Gradient_Swatch_2);}.cls-15,.cls-16,.cls-17,.cls-2,.cls-23,.cls-3,.cls-6,.cls-9{stroke-width:5px;}.cls-2{stroke:url(#New_Gradient_Swatch_2-2);}.cls-3{stroke:url(#New_Gradient_Swatch_2-3);}.cls-11,.cls-14,.cls-19,.cls-22,.cls-4,.cls-5{stroke-width:2px;}.cls-4{stroke:url(#New_Gradient_Swatch_2-4);}.cls-5{stroke:url(#New_Gradient_Swatch_2-5);}.cls-6{stroke:#e2c482;}.cls-10,.cls-12,.cls-13,.cls-18,.cls-20,.cls-21,.cls-7,.cls-8{stroke-width:3px;}.cls-7{stroke:url(#New_Gradient_Swatch_2-6);}.cls-8{stroke:url(#New_Gradient_Swatch_2-7);}.cls-9{stroke:url(#New_Gradient_Swatch_2-8);}.cls-10{stroke:url(#New_Gradient_Swatch_2-9);}.cls-11{stroke:url(#New_Gradient_Swatch_2-10);}.cls-12{stroke:url(#New_Gradient_Swatch_2-11);}.cls-13{stroke:url(#New_Gradient_Swatch_2-12);}.cls-14{stroke:url(#New_Gradient_Swatch_2-13);}.cls-15{stroke:url(#New_Gradient_Swatch_2-14);}.cls-16{stroke:url(#New_Gradient_Swatch_2-15);}.cls-17{stroke:url(#New_Gradient_Swatch_2-16);}.cls-18{stroke:url(#New_Gradient_Swatch_2-17);}.cls-19{stroke:url(#New_Gradient_Swatch_2-18);}.cls-20{stroke:url(#New_Gradient_Swatch_2-19);}.cls-21{stroke:url(#New_Gradient_Swatch_2-20);}.cls-22{stroke:url(#New_Gradient_Swatch_2-21);}.cls-23{stroke:url(#New_Gradient_Swatch_2-22);}</style><linearGradient id="New_Gradient_Swatch_2" x1="968.47" y1="86.04" x2="968.47" y2="11.2" gradientUnits="userSpaceOnUse"><stop offset="0" stop-color="#514017"/><stop offset="0.64" stop-color="#e2c482"/><stop offset="1" stop-color="#5e4713"/></linearGradient><linearGradient id="New_Gradient_Swatch_2-2" x1="0" y1="127.32" x2="712" y2="127.32" xlink:href="#New_Gradient_Swatch_2"/><linearGradient id="New_Gradient_Swatch_2-3" x1="1219.39" y1="127.37" x2="1920" y2="127.37" xlink:href="#New_Gradient_Swatch_2"/><linearGradient id="New_Gradient_Swatch_2-4" x1="1046.62" y1="154.39" x2="1104.43" y2="154.39" xlink:href="#New_Gradient_Swatch_2"/><linearGradient id="New_Gradient_Swatch_2-5" x1="829.1" y1="154.39" x2="887.41" y2="154.39" xlink:href="#New_Gradient_Swatch_2"/><linearGradient id="New_Gradient_Swatch_2-6" x1="922.13" y1="72.27" x2="1013.43" y2="72.27" xlink:href="#New_Gradient_Swatch_2"/><linearGradient id="New_Gradient_Swatch_2-7" x1="944.28" y1="47.39" x2="992.33" y2="47.39" xlink:href="#New_Gradient_Swatch_2"/><linearGradient id="New_Gradient_Swatch_2-8" x1="884.91" y1="112.63" x2="1049.12" y2="112.63" xlink:href="#New_Gradient_Swatch_2"/><linearGradient id="New_Gradient_Swatch_2-9" x1="1113.04" y1="97.42" x2="1148.95" y2="97.42" xlink:href="#New_Gradient_Swatch_2"/><linearGradient id="New_Gradient_Swatch_2-10" x1="1096.38" y1="88.42" x2="1127.28" y2="88.42" xlink:href="#New_Gradient_Swatch_2"/><linearGradient id="New_Gradient_Swatch_2-11" x1="1072.5" y1="66.64" x2="1132.97" y2="66.64" xlink:href="#New_Gradient_Swatch_2"/><linearGradient id="New_Gradient_Swatch_2-12" x1="1100.87" y1="76.32" x2="1148.88" y2="76.32" xlink:href="#New_Gradient_Swatch_2"/><linearGradient id="New_Gradient_Swatch_2-13" x1="1087.19" y1="66.91" x2="1217.42" y2="66.91" xlink:href="#New_Gradient_Swatch_2"/><linearGradient id="New_Gradient_Swatch_2-14" x1="966.44" y1="155.49" x2="971.44" y2="155.49" xlink:href="#New_Gradient_Swatch_2"/><linearGradient id="New_Gradient_Swatch_2-15" x1="909.06" y1="144.51" x2="1028.47" y2="144.51" xlink:href="#New_Gradient_Swatch_2"/><linearGradient id="New_Gradient_Swatch_2-16" x1="1044.12" y1="88.59" x2="1345" y2="88.59" xlink:href="#New_Gradient_Swatch_2"/><linearGradient id="New_Gradient_Swatch_2-17" x1="7633.78" y1="97.42" x2="7669.68" y2="97.42" gradientTransform="matrix(-1, 0, 0, 1, 8454.77, 0)" xlink:href="#New_Gradient_Swatch_2"/><linearGradient id="New_Gradient_Swatch_2-18" x1="7617.12" y1="88.42" x2="7648.02" y2="88.42" gradientTransform="matrix(-1, 0, 0, 1, 8454.77, 0)" xlink:href="#New_Gradient_Swatch_2"/><linearGradient id="New_Gradient_Swatch_2-19" x1="7593.24" y1="66.64" x2="7653.71" y2="66.64" gradientTransform="matrix(-1, 0, 0, 1, 8454.77, 0)" xlink:href="#New_Gradient_Swatch_2"/><linearGradient id="New_Gradient_Swatch_2-20" x1="7621.61" y1="76.32" x2="7669.62" y2="76.32" gradientTransform="matrix(-1, 0, 0, 1, 8454.77, 0)" xlink:href="#New_Gradient_Swatch_2"/><linearGradient id="New_Gradient_Swatch_2-21" x1="7607.93" y1="66.91" x2="7738.16" y2="66.91" gradientTransform="matrix(-1, 0, 0, 1, 8454.77, 0)" xlink:href="#New_Gradient_Swatch_2"/><linearGradient id="New_Gradient_Swatch_2-22" x1="7564.86" y1="88.59" x2="7865.74" y2="88.59" gradientTransform="matrix(-1, 0, 0, 1, 8454.77, 0)" xlink:href="#New_Gradient_Swatch_2"/></defs><g id="Layer_2" data-name="Layer 2"><g id="vetical_hrs" data-name="vetical hrs"><line class="cls-1" x1="968.47" y1="86.04" x2="968.47" y2="11.2"/><line class="cls-2" x1="712" y1="127.27" y2="127.37"/><line class="cls-3" x1="1920" y1="127.37" x2="1219.39" y2="127.37"/><line class="cls-4" x1="1046.62" y1="154.39" x2="1104.43" y2="154.39"/><line class="cls-5" x1="887.41" y1="154.39" x2="829.1" y2="154.39"/><line class="cls-6" x1="983.93" y1="130.7" x2="1007.93" y2="130.7"/><line class="cls-6" x1="980.65" y1="150.29" x2="1007.39" y2="150.29"/><polyline class="cls-7" points="923.63 106.67 923.63 39.36 1011.93 39.36 1011.93 106.67"/><polyline class="cls-8" points="945.78 73.72 945.78 22.56 990.83 22.56 990.83 73.72"/><polyline class="cls-9" points="887.41 171.39 887.41 56.38 1046.62 56.38 1046.62 171.39"/><polyline class="cls-10" points="1147.45 174.67 1147.45 54.1 1114.54 54.1 1114.54 20.17"/><polyline class="cls-11" points="1126.28 174.67 1126.28 73.46 1097.38 73.46 1097.38 2.17"/><line class="cls-12" x1="1073.56" y1="95.82" x2="1131.91" y2="37.47"/><line class="cls-13" x1="1101.93" y1="99.26" x2="1147.82" y2="53.37"/><line class="cls-14" x1="1087.9" y1="2.5" x2="1216.71" y2="131.32"/><line class="cls-15" x1="968.94" y1="86.98" x2="968.94" y2="224"/><path class="cls-16" d="M982.31,105.06v96.32a58,58,0,0,0,42.78-41.94c-6.82-8.16-7.9-9.58-11.83-13.51,4.62-4.72,7.86-7.86,12.5-12.56a58,58,0,0,0-113.64,0h43.27v68c-20.9-5-37.07-20.46-42.33-41.25"/><polyline class="cls-17" points="1345.01 159.82 1219.39 159.82 1234.24 174.67 1104.43 174.67 1104.43 96.86 1082.53 96.86 1072.53 96.86 1072.53 48.82 1046.62 48.82 1046.62 2.5 1096.95 2.5 1221.53 127.08 1173.94 174.67"/><polyline class="cls-18" points="786.59 174.67 786.59 54.1 819.49 54.1 819.49 20.17"/><polyline class="cls-19" points="807.75 174.67 807.75 73.46 836.65 73.46 836.65 2.17"/><line class="cls-20" x1="860.48" y1="95.82" x2="802.12" y2="37.47"/><line class="cls-21" x1="832.1" y1="99.26" x2="786.21" y2="53.37"/><line class="cls-22" x1="846.14" y1="2.5" x2="717.32" y2="131.32"/><polyline class="cls-23" points="589.03 159.82 714.64 159.82 699.79 174.67 829.6 174.67 829.6 96.86 851.51 96.86 861.51 96.86 861.51 48.82 887.41 48.82 887.41 2.5 837.09 2.5 712.5 127.08 760.09 174.67"/></g></g></svg>