<svg xmlns="http://www.w3.org/2000/svg" xmlns:xlink="http://www.w3.org/1999/xlink" viewBox="0 0 233.17 129.73"><defs><style>.cls-1{isolation:isolate;}.cls-11,.cls-2,.cls-5{stroke:#fff;}.cls-11,.cls-12,.cls-2,.cls-4,.cls-5,.cls-6,.cls-9{stroke-miterlimit:10;}.cls-2{stroke-width:4px;fill:url(#New_Gradient_Swatch_7);}.cls-3{opacity:0.35;}.cls-3,.cls-7{mix-blend-mode:hard-light;}.cls-4,.cls-8{fill:#0a0a0a;}.cls-12,.cls-4,.cls-9{stroke:#0a0a0a;}.cls-10,.cls-5{fill:#fff;}.cls-6{fill:#f3b646;stroke:#f3b646;}.cls-7{opacity:0.5;}.cls-11,.cls-12,.cls-9{fill:none;}.cls-12{stroke-width:8px;}</style><linearGradient id="New_Gradient_Swatch_7" x1="2" y1="64.87" x2="231.17" y2="64.87" gradientUnits="userSpaceOnUse"><stop offset="0" stop-color="#0bbafb"/><stop offset="1" stop-color="#4683f3"/></linearGradient></defs><g class="cls-1"><g id="Layer_2" data-name="Layer 2"><g id="bot_border" data-name="bot border"><rect class="cls-2" x="2" y="2" width="229.17" height="125.73" rx="24.72"/><g class="cls-3"><path class="cls-4" d="M146.68,73.21V105a2.21,2.21,0,0,1-2.08,2.33h-3.07a2.22,2.22,0,0,1-2.08-2.33V73.21a2.22,2.22,0,0,1,2.08-2.33h3.07A2.21,2.21,0,0,1,146.68,73.21Z"/><path class="cls-4" d="M161.49,75.37a1.28,1.28,0,0,0,2.37.74,17.15,17.15,0,0,1,2.75-3.39,10.25,10.25,0,0,1,9.44-2.35c.22.06.43.13.64.21A2.32,2.32,0,0,1,178,73l-.39,4.43c-.16.76-.57,1.14-1.22,1.14a7.57,7.57,0,0,1-1.66-.27,10.38,10.38,0,0,0-2.48-.28,9,9,0,0,0-3.47.64,8.14,8.14,0,0,0-2.72,1.89,13.45,13.45,0,0,0-2.15,3.1q-.28.54-.54,1.11a14.09,14.09,0,0,0-1.19,5.79V105a2.21,2.21,0,0,1-2.08,2.33H157A2.21,2.21,0,0,1,155,105V73.21A2.21,2.21,0,0,1,157,70.88h2.06a2.09,2.09,0,0,1,1.62.5,3.26,3.26,0,0,1,.61,1.73Z"/><path class="cls-4" d="M130.08,45.58v60.59a2.87,2.87,0,0,1-2.08,1.12h-3.72A2.21,2.21,0,0,1,122.2,105V89.65a2.22,2.22,0,0,0-2.08-2.34H92.91a2.22,2.22,0,0,0-2.08,2.34V105a2.22,2.22,0,0,1-2.08,2.33H85A2.21,2.21,0,0,1,83,105V44.37A2.22,2.22,0,0,1,85,42h3.72a2.23,2.23,0,0,1,2.08,2.34V78.51a2.22,2.22,0,0,0,2.08,2.34h27.21a2.22,2.22,0,0,0,2.08-2.34V44.37A2.22,2.22,0,0,1,124.28,42H128C129.15,42,130.08,43.08,130.08,45.58Z"/><path class="cls-4" d="M150.48,46a8.14,8.14,0,0,1-.61,3.17,9.33,9.33,0,0,1-1.64,2.63,7.65,7.65,0,0,1-2.39,1.8,6.74,6.74,0,0,1-2.89.65,6.32,6.32,0,0,1-2.83-.65,7.45,7.45,0,0,1-2.31-1.8,9.17,9.17,0,0,1-1.58-2.63,8.5,8.5,0,0,1-.58-3.17,9.08,9.08,0,0,1,.58-3.25,8.91,8.91,0,0,1,1.58-2.68,7.3,7.3,0,0,1,2.31-1.8,6.2,6.2,0,0,1,2.83-.66,6.61,6.61,0,0,1,2.89.66,7.5,7.5,0,0,1,2.39,1.8,9.06,9.06,0,0,1,1.64,2.68A8.69,8.69,0,0,1,150.48,46Z"/></g><path class="cls-5" d="M142.68,69.21V101a2.21,2.21,0,0,1-2.08,2.33h-3.07a2.22,2.22,0,0,1-2.08-2.33V69.21a2.22,2.22,0,0,1,2.08-2.33h3.07A2.21,2.21,0,0,1,142.68,69.21Z"/><path class="cls-5" d="M157.49,71.37a1.28,1.28,0,0,0,2.37.74,17.15,17.15,0,0,1,2.75-3.39,10.25,10.25,0,0,1,9.44-2.35c.22.06.43.13.64.21A2.32,2.32,0,0,1,174,69l-.39,4.43c-.16.76-.57,1.14-1.22,1.14a7.57,7.57,0,0,1-1.66-.27,10.38,10.38,0,0,0-2.48-.28,9,9,0,0,0-3.47.64,8.14,8.14,0,0,0-2.72,1.89,13.45,13.45,0,0,0-2.15,3.1q-.28.54-.54,1.11a14.09,14.09,0,0,0-1.19,5.79V101a2.21,2.21,0,0,1-2.08,2.33H153A2.21,2.21,0,0,1,151,101V69.21A2.21,2.21,0,0,1,153,66.88h2.06a2.09,2.09,0,0,1,1.62.5,3.26,3.26,0,0,1,.61,1.73Z"/><path class="cls-5" d="M126.08,41.58v60.59a2.87,2.87,0,0,1-2.08,1.12h-3.72A2.21,2.21,0,0,1,118.2,101V85.65a2.22,2.22,0,0,0-2.08-2.34H88.91a2.22,2.22,0,0,0-2.08,2.34V101a2.22,2.22,0,0,1-2.08,2.33H81A2.21,2.21,0,0,1,79,101V40.37A2.22,2.22,0,0,1,81,38h3.72a2.23,2.23,0,0,1,2.08,2.34V74.51a2.22,2.22,0,0,0,2.08,2.34h27.21a2.22,2.22,0,0,0,2.08-2.34V40.37A2.22,2.22,0,0,1,120.28,38H124C125.15,38,126.08,39.08,126.08,41.58Z"/><path class="cls-6" d="M146.48,42a8.14,8.14,0,0,1-.61,3.17,9.33,9.33,0,0,1-1.64,2.63,7.65,7.65,0,0,1-2.39,1.8,6.74,6.74,0,0,1-2.89.65,6.32,6.32,0,0,1-2.83-.65,7.45,7.45,0,0,1-2.31-1.8,9.17,9.17,0,0,1-1.58-2.63,8.5,8.5,0,0,1-.58-3.17,9.08,9.08,0,0,1,.58-3.25,8.91,8.91,0,0,1,1.58-2.68,7.3,7.3,0,0,1,2.31-1.8,6.2,6.2,0,0,1,2.83-.66,6.61,6.61,0,0,1,2.89.66,7.5,7.5,0,0,1,2.39,1.8,9.06,9.06,0,0,1,1.64,2.68A8.69,8.69,0,0,1,146.48,42Z"/><g class="cls-7"><path class="cls-8" d="M208.11,100.3a2,2,0,0,1-.16,2.51,12.23,12.23,0,0,1-1.54,1.31,15.09,15.09,0,0,1-3.22,1.78,19.37,19.37,0,0,1-7.16,1.39,15.14,15.14,0,0,1-6.32-1.3,13.93,13.93,0,0,1-5-3.81A18,18,0,0,1,181.43,96a21.71,21.71,0,0,1-1.18-7.52,24.32,24.32,0,0,1,1.06-7.26,17.75,17.75,0,0,1,3.06-5.84,14.15,14.15,0,0,1,11.33-5.3,13.55,13.55,0,0,1,5.5,1.12,12.43,12.43,0,0,1,4.38,3.23,15.08,15.08,0,0,1,2.89,5.2,22.15,22.15,0,0,1,1,7.05,4.64,4.64,0,0,1-.29,2,1.16,1.16,0,0,1-1.11.52H187.79a1.81,1.81,0,0,0-1.67,2,12,12,0,0,0,.75,3.09A12.85,12.85,0,0,0,189,98.7a8.76,8.76,0,0,0,3.27,2.6,10.06,10.06,0,0,0,4.25.86,11.2,11.2,0,0,0,3.77-.57,16.2,16.2,0,0,0,2.72-1.22,18.93,18.93,0,0,0,1.91-1.23,2.41,2.41,0,0,1,1.33-.57,1.25,1.25,0,0,1,1.11.62Zm-5.62-15.15A1.84,1.84,0,0,0,204.15,83a13.74,13.74,0,0,0-.43-2,9.67,9.67,0,0,0-1.67-3.26,7.49,7.49,0,0,0-2.66-2.12,8,8,0,0,0-3.56-.76,8.4,8.4,0,0,0-6.61,2.73,11.85,11.85,0,0,0-2.58,5.16,1.85,1.85,0,0,0,1.61,2.41Z"/><path class="cls-9" d="M208.11,100.3a2,2,0,0,1-.16,2.51,12.23,12.23,0,0,1-1.54,1.31,15.09,15.09,0,0,1-3.22,1.78,19.37,19.37,0,0,1-7.16,1.39,15.14,15.14,0,0,1-6.32-1.3,13.93,13.93,0,0,1-5-3.81A18,18,0,0,1,181.43,96a21.71,21.71,0,0,1-1.18-7.52,24.32,24.32,0,0,1,1.06-7.26,17.75,17.75,0,0,1,3.06-5.84,14.15,14.15,0,0,1,11.33-5.3,13.55,13.55,0,0,1,5.5,1.12,12.43,12.43,0,0,1,4.38,3.23,15.08,15.08,0,0,1,2.89,5.2,22.15,22.15,0,0,1,1,7.05,4.64,4.64,0,0,1-.29,2,1.16,1.16,0,0,1-1.11.52H187.79a1.81,1.81,0,0,0-1.67,2,12,12,0,0,0,.75,3.09A12.85,12.85,0,0,0,189,98.7a8.76,8.76,0,0,0,3.27,2.6,10.06,10.06,0,0,0,4.25.86,11.2,11.2,0,0,0,3.77-.57,16.2,16.2,0,0,0,2.72-1.22,18.93,18.93,0,0,0,1.91-1.23,2.41,2.41,0,0,1,1.33-.57,1.25,1.25,0,0,1,1.11.62Zm-5.62-15.15A1.84,1.84,0,0,0,204.15,83a13.74,13.74,0,0,0-.43-2,9.67,9.67,0,0,0-1.67-3.26,7.49,7.49,0,0,0-2.66-2.12,8,8,0,0,0-3.56-.76,8.4,8.4,0,0,0-6.61,2.73,11.85,11.85,0,0,0-2.58,5.16,1.85,1.85,0,0,0,1.61,2.41Z"/></g><path class="cls-10" d="M204.11,96.3a2,2,0,0,1-.16,2.51,12.23,12.23,0,0,1-1.54,1.31,15.09,15.09,0,0,1-3.22,1.78,19.37,19.37,0,0,1-7.16,1.39,15.14,15.14,0,0,1-6.32-1.3,13.93,13.93,0,0,1-5-3.81A18,18,0,0,1,177.43,92a21.71,21.71,0,0,1-1.18-7.52,24.32,24.32,0,0,1,1.06-7.26,17.75,17.75,0,0,1,3.06-5.84,14.15,14.15,0,0,1,11.33-5.3,13.55,13.55,0,0,1,5.5,1.12,12.43,12.43,0,0,1,4.38,3.23,15.08,15.08,0,0,1,2.89,5.2,22.15,22.15,0,0,1,1,7.05,4.64,4.64,0,0,1-.29,2,1.16,1.16,0,0,1-1.11.52H183.79a1.81,1.81,0,0,0-1.67,2,12,12,0,0,0,.75,3.09A12.85,12.85,0,0,0,185,94.7a8.76,8.76,0,0,0,3.27,2.6,10.06,10.06,0,0,0,4.25.86,11.2,11.2,0,0,0,3.77-.57A16.2,16.2,0,0,0,199,96.37a18.93,18.93,0,0,0,1.91-1.23,2.41,2.41,0,0,1,1.33-.57,1.25,1.25,0,0,1,1.11.62Zm-5.62-15.15A1.84,1.84,0,0,0,200.15,79a13.74,13.74,0,0,0-.43-2,9.67,9.67,0,0,0-1.67-3.26,7.49,7.49,0,0,0-2.66-2.12,8,8,0,0,0-3.56-.76,8.4,8.4,0,0,0-6.61,2.73,11.85,11.85,0,0,0-2.58,5.16,1.85,1.85,0,0,0,1.61,2.41Z"/><path class="cls-11" d="M204.11,96.3a2,2,0,0,1-.16,2.51,12.23,12.23,0,0,1-1.54,1.31,15.09,15.09,0,0,1-3.22,1.78,19.37,19.37,0,0,1-7.16,1.39,15.14,15.14,0,0,1-6.32-1.3,13.93,13.93,0,0,1-5-3.81A18,18,0,0,1,177.43,92a21.71,21.71,0,0,1-1.18-7.52,24.32,24.32,0,0,1,1.06-7.26,17.75,17.75,0,0,1,3.06-5.84,14.15,14.15,0,0,1,11.33-5.3,13.55,13.55,0,0,1,5.5,1.12,12.43,12.43,0,0,1,4.38,3.23,15.08,15.08,0,0,1,2.89,5.2,22.15,22.15,0,0,1,1,7.05,4.64,4.64,0,0,1-.29,2,1.16,1.16,0,0,1-1.11.52H183.79a1.81,1.81,0,0,0-1.67,2,12,12,0,0,0,.75,3.09A12.85,12.85,0,0,0,185,94.7a8.76,8.76,0,0,0,3.27,2.6,10.06,10.06,0,0,0,4.25.86,11.2,11.2,0,0,0,3.77-.57A16.2,16.2,0,0,0,199,96.37a18.93,18.93,0,0,0,1.91-1.23,2.41,2.41,0,0,1,1.33-.57,1.25,1.25,0,0,1,1.11.62Zm-5.62-15.15A1.84,1.84,0,0,0,200.15,79a13.74,13.74,0,0,0-.43-2,9.67,9.67,0,0,0-1.67-3.26,7.49,7.49,0,0,0-2.66-2.12,8,8,0,0,0-3.56-.76,8.4,8.4,0,0,0-6.61,2.73,11.85,11.85,0,0,0-2.58,5.16,1.85,1.85,0,0,0,1.61,2.41Z"/><g class="cls-3"><path class="cls-8" d="M72.57,83.86h-8A1.58,1.58,0,0,0,63,85.44v17.9H61.16V85.44a1.58,1.58,0,0,0-1.58-1.58h-30V81.8c0-.26-.29-37.32-.29-37.32l2.14.2L31.91,81a.59.59,0,0,0,.52.87H59.58a1.58,1.58,0,0,0,1.58-1.58V62.65H63V80.31a1.58,1.58,0,0,0,1.58,1.58h8Z"/><path class="cls-12" d="M72.57,83.86h-8A1.58,1.58,0,0,0,63,85.44v17.9H61.16V85.44a1.58,1.58,0,0,0-1.58-1.58h-30V81.8c0-.26-.29-37.32-.29-37.32l2.14.2L31.91,81a.59.59,0,0,0,.52.87H59.58a1.58,1.58,0,0,0,1.58-1.58V62.65H63V80.31a1.58,1.58,0,0,0,1.58,1.58h8Z"/></g><path class="cls-10" d="M68.57,79.86h-8A1.58,1.58,0,0,0,59,81.44v17.9H57.16V81.44a1.58,1.58,0,0,0-1.58-1.58h-30V77.8c0-.26-.29-37.32-.29-37.32l2.14.2L27.91,77a.59.59,0,0,0,.52.87H55.58a1.58,1.58,0,0,0,1.58-1.58V58.65H59V76.31a1.58,1.58,0,0,0,1.58,1.58h8Z"/><path class="cls-12" d="M68.57,79.86h-8A1.58,1.58,0,0,0,59,81.44v17.9H57.16V81.44a1.58,1.58,0,0,0-1.58-1.58h-30V77.8c0-.26-.29-37.32-.29-37.32l2.14.2L27.91,77a.59.59,0,0,0,.52.87H55.58a1.58,1.58,0,0,0,1.58-1.58V58.65H59V76.31a1.58,1.58,0,0,0,1.58,1.58h8Z"/></g></g></g></svg>