<svg id="hero-bg" xmlns="http://www.w3.org/2000/svg" xmlns:xlink="http://www.w3.org/1999/xlink" viewBox="0 0 2388.83 901.76"><defs><style>.cls-1,.cls-10,.cls-100,.cls-101,.cls-102,.cls-103,.cls-104,.cls-105,.cls-106,.cls-107,.cls-108,.cls-109,.cls-11,.cls-110,.cls-111,.cls-112,.cls-113,.cls-114,.cls-115,.cls-116,.cls-117,.cls-118,.cls-119,.cls-12,.cls-13,.cls-14,.cls-15,.cls-16,.cls-17,.cls-18,.cls-19,.cls-2,.cls-20,.cls-21,.cls-22,.cls-23,.cls-24,.cls-25,.cls-26,.cls-27,.cls-28,.cls-29,.cls-3,.cls-30,.cls-31,.cls-32,.cls-33,.cls-34,.cls-35,.cls-36,.cls-37,.cls-38,.cls-39,.cls-4,.cls-40,.cls-41,.cls-42,.cls-43,.cls-44,.cls-45,.cls-46,.cls-47,.cls-48,.cls-49,.cls-5,.cls-50,.cls-51,.cls-52,.cls-53,.cls-54,.cls-55,.cls-56,.cls-57,.cls-58,.cls-59,.cls-6,.cls-60,.cls-61,.cls-62,.cls-63,.cls-64,.cls-65,.cls-66,.cls-67,.cls-68,.cls-69,.cls-7,.cls-70,.cls-71,.cls-72,.cls-73,.cls-74,.cls-75,.cls-76,.cls-77,.cls-78,.cls-79,.cls-8,.cls-80,.cls-81,.cls-82,.cls-83,.cls-84,.cls-85,.cls-86,.cls-87,.cls-88,.cls-89,.cls-9,.cls-90,.cls-91,.cls-92,.cls-93,.cls-94,.cls-95,.cls-96,.cls-97,.cls-98,.cls-99{fill:none;stroke-miterlimit:10;}.cls-1,.cls-23,.cls-42,.cls-44,.cls-51,.cls-52,.cls-68,.cls-75,.cls-84,.cls-92,.cls-95{stroke-width:4px;}.cls-1{stroke:url(#New_Gradient_Swatch_1);}.cls-2,.cls-59,.cls-96{stroke-width:7px;}.cls-2{stroke:url(#New_Gradient_Swatch_1-2);}.cls-114,.cls-3,.cls-97{stroke-width:9px;}.cls-3{stroke:url(#New_Gradient_Swatch_1-3);}.cls-10,.cls-105,.cls-106,.cls-107,.cls-108,.cls-109,.cls-110,.cls-111,.cls-112,.cls-13,.cls-14,.cls-15,.cls-18,.cls-19,.cls-21,.cls-24,.cls-25,.cls-26,.cls-28,.cls-29,.cls-31,.cls-37,.cls-38,.cls-4,.cls-41,.cls-43,.cls-45,.cls-46,.cls-47,.cls-48,.cls-49,.cls-5,.cls-50,.cls-62,.cls-63,.cls-64,.cls-65,.cls-66,.cls-67,.cls-7,.cls-70,.cls-71,.cls-73,.cls-76,.cls-78,.cls-79,.cls-8,.cls-80,.cls-82,.cls-85,.cls-87,.cls-88,.cls-90,.cls-93,.cls-94{stroke-width:2px;}.cls-4{stroke:url(#New_Gradient_Swatch_2);}.cls-5{stroke:url(#New_Gradient_Swatch_2-2);}.cls-6{stroke:url(#New_Gradient_Swatch_2-3);}.cls-7{stroke:url(#New_Gradient_Swatch_2-4);}.cls-8{stroke:url(#New_Gradient_Swatch_2-5);}.cls-9{stroke:url(#New_Gradient_Swatch_2-6);}.cls-10{stroke:url(#New_Gradient_Swatch_2-7);}.cls-11{stroke:url(#New_Gradient_Swatch_2-8);}.cls-12{stroke:url(#New_Gradient_Swatch_2-9);}.cls-13{stroke:url(#New_Gradient_Swatch_2-10);}.cls-14{stroke:url(#New_Gradient_Swatch_2-11);}.cls-15{stroke:url(#New_Gradient_Swatch_2-12);}.cls-16{stroke:url(#New_Gradient_Swatch_2-13);}.cls-17{stroke:url(#New_Gradient_Swatch_2-14);}.cls-18{stroke:url(#New_Gradient_Swatch_2-15);}.cls-19{stroke:url(#New_Gradient_Swatch_2-16);}.cls-104,.cls-20,.cls-32,.cls-33,.cls-34,.cls-35,.cls-36,.cls-54,.cls-55,.cls-56,.cls-57,.cls-58,.cls-72,.cls-81,.cls-89,.cls-98{stroke-width:3px;}.cls-20{stroke:url(#New_Gradient_Swatch_1-4);}.cls-21{stroke:url(#New_Gradient_Swatch_1-5);}.cls-100,.cls-101,.cls-102,.cls-103,.cls-113,.cls-118,.cls-119,.cls-22,.cls-53,.cls-69,.cls-74,.cls-77,.cls-83,.cls-86,.cls-91,.cls-99{stroke-width:5px;}.cls-22{stroke:url(#New_Gradient_Swatch_2-17);}.cls-23{stroke:url(#New_Gradient_Swatch_2-18);}.cls-24{stroke:url(#New_Gradient_Swatch_1-6);}.cls-25{stroke:url(#New_Gradient_Swatch_2-19);}.cls-26{stroke:url(#New_Gradient_Swatch_2-20);}.cls-27{stroke:url(#New_Gradient_Swatch_2-21);}.cls-28{stroke:url(#New_Gradient_Swatch_2-22);}.cls-29{stroke:url(#New_Gradient_Swatch_2-23);}.cls-30{stroke:url(#New_Gradient_Swatch_2-24);}.cls-31{stroke:url(#New_Gradient_Swatch_2-25);}.cls-32{stroke:url(#New_Gradient_Swatch_2-26);}.cls-33{stroke:url(#New_Gradient_Swatch_1-7);}.cls-34{stroke:url(#New_Gradient_Swatch_1-8);}.cls-102,.cls-35,.cls-37{stroke:#e2c482;}.cls-36{stroke:url(#linear-gradient);}.cls-38{stroke:url(#New_Gradient_Swatch_2-27);}.cls-39{stroke:url(#New_Gradient_Swatch_2-28);}.cls-40{stroke:url(#New_Gradient_Swatch_2-29);}.cls-41{stroke:url(#New_Gradient_Swatch_2-30);}.cls-42{stroke:url(#New_Gradient_Swatch_2-31);}.cls-43{stroke:url(#New_Gradient_Swatch_2-32);}.cls-44{stroke:url(#New_Gradient_Swatch_2-33);}.cls-45{stroke:url(#New_Gradient_Swatch_2-34);}.cls-46{stroke:url(#New_Gradient_Swatch_2-35);}.cls-47{stroke:url(#New_Gradient_Swatch_2-36);}.cls-48{stroke:url(#New_Gradient_Swatch_2-37);}.cls-49{stroke:url(#New_Gradient_Swatch_2-38);}.cls-50{stroke:url(#New_Gradient_Swatch_2-39);}.cls-51{stroke:url(#New_Gradient_Swatch_1-9);}.cls-52{stroke:url(#New_Gradient_Swatch_1-10);}.cls-53{stroke:url(#New_Gradient_Swatch_1-11);}.cls-54{stroke:url(#linear-gradient-2);}.cls-55{stroke:url(#linear-gradient-3);}.cls-56{stroke:url(#linear-gradient-4);}.cls-57{stroke:url(#New_Gradient_Swatch_1-12);}.cls-58{stroke:url(#New_Gradient_Swatch_1-13);}.cls-59{stroke:url(#New_Gradient_Swatch_1-14);}.cls-60{stroke:url(#New_Gradient_Swatch_2-40);}.cls-61{stroke:url(#New_Gradient_Swatch_2-41);}.cls-62{stroke:url(#New_Gradient_Swatch_2-42);}.cls-63{stroke:url(#New_Gradient_Swatch_2-43);}.cls-64{stroke:url(#New_Gradient_Swatch_2-44);}.cls-65{stroke:url(#New_Gradient_Swatch_2-45);}.cls-66{stroke:url(#New_Gradient_Swatch_2-46);}.cls-67{stroke:url(#New_Gradient_Swatch_2-47);}.cls-68{stroke:url(#New_Gradient_Swatch_1-15);}.cls-69{stroke:url(#New_Gradient_Swatch_1-16);}.cls-70{stroke:url(#New_Gradient_Swatch_2-48);}.cls-71{stroke:url(#New_Gradient_Swatch_2-49);}.cls-72{stroke:url(#New_Gradient_Swatch_1-17);}.cls-73{stroke:url(#New_Gradient_Swatch_1-18);}.cls-74{stroke:url(#New_Gradient_Swatch_2-50);}.cls-75{stroke:url(#New_Gradient_Swatch_2-51);}.cls-76{stroke:url(#New_Gradient_Swatch_1-19);}.cls-77{stroke:url(#New_Gradient_Swatch_1-20);}.cls-78{stroke:url(#New_Gradient_Swatch_2-52);}.cls-79{stroke:url(#New_Gradient_Swatch_2-53);}.cls-80{stroke:url(#New_Gradient_Swatch_2-54);}.cls-81{stroke:url(#New_Gradient_Swatch_1-21);}.cls-82{stroke:url(#New_Gradient_Swatch_1-22);}.cls-83{stroke:url(#New_Gradient_Swatch_2-55);}.cls-84{stroke:url(#New_Gradient_Swatch_2-56);}.cls-85{stroke:url(#New_Gradient_Swatch_1-23);}.cls-86{stroke:url(#New_Gradient_Swatch_1-24);}.cls-87{stroke:url(#New_Gradient_Swatch_2-57);}.cls-88{stroke:url(#New_Gradient_Swatch_2-58);}.cls-89{stroke:url(#New_Gradient_Swatch_1-25);}.cls-90{stroke:url(#New_Gradient_Swatch_1-26);}.cls-91{stroke:url(#New_Gradient_Swatch_2-59);}.cls-92{stroke:url(#New_Gradient_Swatch_2-60);}.cls-93{stroke:url(#New_Gradient_Swatch_1-27);}.cls-94{stroke:url(#New_Gradient_Swatch_2-61);}.cls-95{stroke:url(#linear-gradient-5);}.cls-96{stroke:url(#linear-gradient-6);}.cls-97{stroke:url(#linear-gradient-7);}.cls-98{stroke:url(#New_Gradient_Swatch_2-62);}.cls-99{stroke:url(#New_Gradient_Swatch_1-28);}.cls-100{stroke:url(#New_Gradient_Swatch_1-29);}.cls-101{stroke:url(#New_Gradient_Swatch_1-30);}.cls-103{stroke:url(#linear-gradient-8);}.cls-104{stroke:url(#New_Gradient_Swatch_1-31);}.cls-105{stroke:url(#New_Gradient_Swatch_1-32);}.cls-106{stroke:url(#New_Gradient_Swatch_1-33);}.cls-107{stroke:url(#New_Gradient_Swatch_1-34);}.cls-108{stroke:url(#New_Gradient_Swatch_1-35);}.cls-109{stroke:url(#New_Gradient_Swatch_2-63);}.cls-110{stroke:url(#New_Gradient_Swatch_2-64);}.cls-111{stroke:url(#New_Gradient_Swatch_2-65);}.cls-112{stroke:url(#New_Gradient_Swatch_2-66);}.cls-113{stroke:url(#New_Gradient_Swatch_1-36);}.cls-114{stroke:url(#New_Gradient_Swatch_1-37);}.cls-115,.cls-116,.cls-117{stroke-width:6px;}.cls-115{stroke:url(#New_Gradient_Swatch_1-38);}.cls-116{stroke:url(#New_Gradient_Swatch_1-39);}.cls-117{stroke:url(#New_Gradient_Swatch_1-40);}.cls-118{stroke:url(#New_Gradient_Swatch_1-41);}.cls-119{stroke:url(#New_Gradient_Swatch_1-42);}</style><linearGradient id="New_Gradient_Swatch_1" x1="8960.19" y1="450.58" x2="9013.69" y2="450.58" gradientTransform="matrix(-1, 0, 0, 1, 9317.12, 0)" gradientUnits="userSpaceOnUse"><stop offset="0" stop-color="#9d7c32"/><stop offset="0.64" stop-color="#e2c482"/><stop offset="1" stop-color="#a27d2a"/></linearGradient><linearGradient id="New_Gradient_Swatch_1-2" x1="8972.38" y1="450.58" x2="9028.89" y2="450.58" xlink:href="#New_Gradient_Swatch_1"/><linearGradient id="New_Gradient_Swatch_1-3" x1="8987.28" y1="450.58" x2="9045.79" y2="450.58" xlink:href="#New_Gradient_Swatch_1"/><linearGradient id="New_Gradient_Swatch_2" x1="1792.74" y1="41.25" x2="1817.37" y2="41.25" gradientUnits="userSpaceOnUse"><stop offset="0" stop-color="#514017"/><stop offset="0.64" stop-color="#e2c482"/><stop offset="1" stop-color="#5e4713"/></linearGradient><linearGradient id="New_Gradient_Swatch_2-2" x1="1792.74" y1="403.78" x2="1853.39" y2="403.78" gradientTransform="matrix(1, 0, 0, -1, 0, 480.79)" xlink:href="#New_Gradient_Swatch_2"/><linearGradient id="New_Gradient_Swatch_2-3" x1="1834.45" y1="103.93" x2="1793.18" y2="103.93" xlink:href="#New_Gradient_Swatch_2"/><linearGradient id="New_Gradient_Swatch_2-4" x1="1815.9" y1="146.59" x2="1815.9" y2="77.11" xlink:href="#New_Gradient_Swatch_2"/><linearGradient id="New_Gradient_Swatch_2-5" x1="8829.84" y1="403.78" x2="8890.49" y2="403.78" gradientTransform="translate(10519.7 480.79) rotate(180)" xlink:href="#New_Gradient_Swatch_2"/><linearGradient id="New_Gradient_Swatch_2-6" x1="8871.55" y1="103.54" x2="8829.49" y2="103.54" gradientTransform="matrix(-1, 0, 0, 1, 10519.7, 0)" xlink:href="#New_Gradient_Swatch_2"/><linearGradient id="New_Gradient_Swatch_2-7" x1="8852.61" y1="146.59" x2="8852.61" y2="76.32" gradientTransform="matrix(-1, 0, 0, 1, 10519.7, 0)" xlink:href="#New_Gradient_Swatch_2"/><linearGradient id="New_Gradient_Swatch_2-8" x1="8829.52" y1="145.88" x2="8850.17" y2="145.88" gradientTransform="matrix(-1, 0, 0, 1, 10519.7, 0)" xlink:href="#New_Gradient_Swatch_2"/><linearGradient id="New_Gradient_Swatch_2-9" x1="1793.53" y1="145.88" x2="1813.07" y2="145.88" xlink:href="#New_Gradient_Swatch_2"/><linearGradient id="New_Gradient_Swatch_2-10" x1="8806.27" y1="369.71" x2="8838.63" y2="369.71" gradientTransform="translate(10519.7 480.79) rotate(180)" xlink:href="#New_Gradient_Swatch_2"/><linearGradient id="New_Gradient_Swatch_2-11" x1="1769.17" y1="371.51" x2="1802.05" y2="371.51" gradientTransform="matrix(1, 0, 0, -1, 0, 480.79)" xlink:href="#New_Gradient_Swatch_2"/><linearGradient id="New_Gradient_Swatch_2-12" x1="1780.62" y1="782.57" x2="1808.51" y2="782.57" xlink:href="#New_Gradient_Swatch_2"/><linearGradient id="New_Gradient_Swatch_2-13" x1="8831.42" y1="177.6" x2="8850.17" y2="177.6" gradientTransform="matrix(-1, 0, 0, 1, 10519.7, 0)" xlink:href="#New_Gradient_Swatch_2"/><linearGradient id="New_Gradient_Swatch_2-14" x1="8819.86" y1="162.15" x2="8866.45" y2="162.15" gradientTransform="matrix(-1, 0, 0, 1, 10519.7, 0)" xlink:href="#New_Gradient_Swatch_2"/><linearGradient id="New_Gradient_Swatch_2-15" x1="8794.11" y1="175.03" x2="8867.86" y2="175.03" gradientTransform="matrix(-1, 0, 0, 1, 10519.7, 0)" xlink:href="#New_Gradient_Swatch_2"/><linearGradient id="New_Gradient_Swatch_2-16" x1="812.11" y1="577.84" x2="865.92" y2="577.84" gradientTransform="matrix(1, 0, 0, -1, 709.18, 601.79)" xlink:href="#New_Gradient_Swatch_2"/><linearGradient id="New_Gradient_Swatch_1-4" x1="854.35" y1="530.49" x2="891.26" y2="530.49" gradientTransform="matrix(1, 0, 0, -1, 709.18, 601.79)" xlink:href="#New_Gradient_Swatch_1"/><linearGradient id="New_Gradient_Swatch_1-5" x1="843.69" y1="530.49" x2="879.59" y2="530.49" gradientTransform="matrix(1, 0, 0, -1, 709.18, 601.79)" xlink:href="#New_Gradient_Swatch_1"/><linearGradient id="New_Gradient_Swatch_2-17" x1="791.57" y1="564.59" x2="854.49" y2="564.59" gradientTransform="matrix(0.99, -0.01, 0.01, -0.99, 750.04, 642.65)" xlink:href="#New_Gradient_Swatch_2"/><linearGradient id="New_Gradient_Swatch_2-18" x1="895.36" y1="503.53" x2="940.62" y2="503.53" gradientTransform="matrix(1.01, 0.01, -0.01, -1.01, 674.36, 566.97)" xlink:href="#New_Gradient_Swatch_2"/><linearGradient id="New_Gradient_Swatch_1-6" x1="845.65" y1="530.49" x2="982.8" y2="530.49" gradientTransform="matrix(1, 0, 0, -1, 709.18, 601.79)" xlink:href="#New_Gradient_Swatch_1"/><linearGradient id="New_Gradient_Swatch_2-19" x1="759.85" y1="529.21" x2="812.11" y2="529.21" gradientTransform="matrix(1, 0, 0, -1, 709.18, 601.79)" xlink:href="#New_Gradient_Swatch_2"/><linearGradient id="New_Gradient_Swatch_2-20" x1="8829.84" y1="41.25" x2="8854.47" y2="41.25" gradientTransform="matrix(-1, 0, 0, 1, 10519.7, 0)" xlink:href="#New_Gradient_Swatch_2"/><linearGradient id="New_Gradient_Swatch_2-21" x1="1794.32" y1="177.6" x2="1813.07" y2="177.6" xlink:href="#New_Gradient_Swatch_2"/><linearGradient id="New_Gradient_Swatch_2-22" x1="1783.74" y1="192.87" x2="1813.05" y2="192.87" xlink:href="#New_Gradient_Swatch_2"/><linearGradient id="New_Gradient_Swatch_2-23" x1="1782.82" y1="181.85" x2="1813.78" y2="181.85" xlink:href="#New_Gradient_Swatch_2"/><linearGradient id="New_Gradient_Swatch_2-24" x1="1782.76" y1="162.15" x2="1829.34" y2="162.15" xlink:href="#New_Gradient_Swatch_2"/><linearGradient id="New_Gradient_Swatch_2-25" x1="1757.01" y1="175.03" x2="1830.76" y2="175.03" xlink:href="#New_Gradient_Swatch_2"/><linearGradient id="New_Gradient_Swatch_2-26" x1="1723.97" y1="236.31" x2="1758.34" y2="236.31" gradientTransform="matrix(1, 0, 0, -1, 0, 480.79)" xlink:href="#New_Gradient_Swatch_2"/><linearGradient id="New_Gradient_Swatch_1-7" x1="1747.49" y1="276.94" x2="1757.72" y2="276.94" gradientTransform="matrix(1, 0, 0, -1, 0, 480.79)" xlink:href="#New_Gradient_Swatch_1"/><linearGradient id="New_Gradient_Swatch_1-8" x1="1746.09" y1="290.41" x2="1757.48" y2="290.41" gradientTransform="matrix(1, 0, 0, -1, 0, 480.79)" xlink:href="#New_Gradient_Swatch_1"/><linearGradient id="linear-gradient" x1="1712.13" y1="282.31" x2="1769.87" y2="282.31" gradientTransform="matrix(1, 0, 0, -1, 0, 480.79)" xlink:href="#New_Gradient_Swatch_1"/><linearGradient id="New_Gradient_Swatch_2-27" x1="1792.73" y1="796.61" x2="1820.97" y2="796.61" xlink:href="#New_Gradient_Swatch_2"/><linearGradient id="New_Gradient_Swatch_2-28" x1="1440.5" y1="418.46" x2="1489.45" y2="418.46" xlink:href="#New_Gradient_Swatch_2"/><linearGradient id="New_Gradient_Swatch_2-29" x1="1440.5" y1="492.22" x2="1488.95" y2="492.22" xlink:href="#New_Gradient_Swatch_2"/><linearGradient id="New_Gradient_Swatch_2-30" x1="1376.38" y1="104.74" x2="1394.43" y2="104.74" xlink:href="#New_Gradient_Swatch_2"/><linearGradient id="New_Gradient_Swatch_2-31" x1="1382.19" y1="104.73" x2="1402.24" y2="104.73" xlink:href="#New_Gradient_Swatch_2"/><linearGradient id="New_Gradient_Swatch_2-32" x1="1376.38" y1="-1358.26" x2="1394.43" y2="-1358.26" gradientTransform="matrix(1, 0, 0, -1, 0, -572.05)" xlink:href="#New_Gradient_Swatch_2"/><linearGradient id="New_Gradient_Swatch_2-33" x1="1382.19" y1="-1358.26" x2="1402.24" y2="-1358.26" gradientTransform="matrix(1, 0, 0, -1, 0, -572.05)" xlink:href="#New_Gradient_Swatch_2"/><linearGradient id="New_Gradient_Swatch_2-34" x1="3602.16" y1="5243.06" x2="3686.35" y2="5243.06" gradientTransform="matrix(-0.27, 0.73, -0.74, 0.25, 6337.7, -3535.75)" xlink:href="#New_Gradient_Swatch_2"/><linearGradient id="New_Gradient_Swatch_2-35" x1="3544.93" y1="5309.38" x2="3629.05" y2="5309.38" gradientTransform="matrix(-0.26, 0.74, -0.74, 0.26, 6305.5, -3541.68)" xlink:href="#New_Gradient_Swatch_2"/><linearGradient id="New_Gradient_Swatch_2-36" x1="1410.8" y1="434.53" x2="1490.1" y2="434.53" xlink:href="#New_Gradient_Swatch_2"/><linearGradient id="New_Gradient_Swatch_2-37" x1="-685.5" y1="2548.37" x2="-601.33" y2="2548.37" gradientTransform="matrix(0.73, 0.27, 0.25, 0.74, 1272.51, -1298.77)" xlink:href="#New_Gradient_Swatch_2"/><linearGradient id="New_Gradient_Swatch_2-38" x1="-668.85" y1="2534.61" x2="-587.83" y2="2534.61" gradientTransform="matrix(0.74, 0.26, 0.26, 0.74, 1266.58, -1266.58)" xlink:href="#New_Gradient_Swatch_2"/><linearGradient id="New_Gradient_Swatch_2-39" x1="1412.62" y1="476.86" x2="1490.1" y2="476.86" xlink:href="#New_Gradient_Swatch_2"/><linearGradient id="New_Gradient_Swatch_1-9" x1="1328.23" y1="450.6" x2="1381.74" y2="450.6" gradientTransform="matrix(1, 0, 0, 1, 0, 0)" xlink:href="#New_Gradient_Swatch_1"/><linearGradient id="New_Gradient_Swatch_1-10" x1="1438.87" y1="451.1" x2="1491.37" y2="451.1" gradientTransform="matrix(1, 0, 0, 1, 0, 0)" xlink:href="#New_Gradient_Swatch_1"/><linearGradient id="New_Gradient_Swatch_1-11" x1="1445.56" y1="451.1" x2="1500.07" y2="451.1" gradientTransform="matrix(1, 0, 0, 1, 0, 0)" xlink:href="#New_Gradient_Swatch_1"/><linearGradient id="linear-gradient-2" x1="2098.29" y1="573.96" x2="1409.33" y2="573.96" gradientUnits="userSpaceOnUse"><stop offset="0" stop-color="#9d7c32"/><stop offset="0.26" stop-color="#e2c482"/><stop offset="1" stop-color="#a27d2a"/></linearGradient><linearGradient id="linear-gradient-3" x1="2098.29" y1="586.17" x2="1409.33" y2="586.17" xlink:href="#linear-gradient-2"/><linearGradient id="linear-gradient-4" x1="2098.29" y1="598.39" x2="1409.33" y2="598.39" xlink:href="#linear-gradient-2"/><linearGradient id="New_Gradient_Swatch_1-12" x1="2098.29" y1="340.02" x2="1409.33" y2="340.02" gradientTransform="matrix(1, 0, 0, 1, 0, 0)" xlink:href="#New_Gradient_Swatch_1"/><linearGradient id="New_Gradient_Swatch_1-13" x1="2098.29" y1="352.24" x2="1409.33" y2="352.24" gradientTransform="matrix(1, 0, 0, 1, 0, 0)" xlink:href="#New_Gradient_Swatch_1"/><linearGradient id="New_Gradient_Swatch_1-14" x1="1340.43" y1="450.6" x2="1396.94" y2="450.6" gradientTransform="matrix(1, 0, 0, 1, 0, 0)" xlink:href="#New_Gradient_Swatch_1"/><linearGradient id="New_Gradient_Swatch_2-40" x1="8572.24" y1="418.46" x2="8625.29" y2="418.46" gradientTransform="matrix(-1, 0, 0, 1, 10611.48, 0)" xlink:href="#New_Gradient_Swatch_2"/><linearGradient id="New_Gradient_Swatch_2-41" x1="8572.24" y1="492.22" x2="8624.75" y2="492.22" gradientTransform="matrix(-1, 0, 0, 1, 10611.48, 0)" xlink:href="#New_Gradient_Swatch_2"/><linearGradient id="New_Gradient_Swatch_2-42" x1="7432.17" y1="-5799.09" x2="7518.07" y2="-5799.09" gradientTransform="matrix(0.27, 0.73, 0.74, 0.25, 4273.79, -3535.75)" xlink:href="#New_Gradient_Swatch_2"/><linearGradient id="New_Gradient_Swatch_2-43" x1="7510.09" y1="-5789.13" x2="7595.99" y2="-5789.13" gradientTransform="matrix(0.26, 0.74, 0.74, 0.26, 4305.98, -3541.68)" xlink:href="#New_Gradient_Swatch_2"/><linearGradient id="New_Gradient_Swatch_2-44" x1="8575.3" y1="399.28" x2="8661.2" y2="399.28" gradientTransform="matrix(-0.99, 0.01, -0.01, 0.99, 10550.08, -61.41)" xlink:href="#New_Gradient_Swatch_2"/><linearGradient id="New_Gradient_Swatch_2-45" x1="10440.37" y1="-1523.7" x2="10526.27" y2="-1523.7" gradientTransform="matrix(-0.73, 0.27, -0.25, 0.74, 9338.98, -1298.77)" xlink:href="#New_Gradient_Swatch_2"/><linearGradient id="New_Gradient_Swatch_2-46" x1="10430.07" y1="-1432.46" x2="10515.97" y2="-1432.46" gradientTransform="matrix(-0.74, 0.26, -0.26, 0.74, 9344.91, -1266.58)" xlink:href="#New_Gradient_Swatch_2"/><linearGradient id="New_Gradient_Swatch_2-47" x1="8542.02" y1="476.86" x2="8625.95" y2="476.86" gradientTransform="matrix(-1, 0, 0, 1, 10611.48, 0)" xlink:href="#New_Gradient_Swatch_2"/><linearGradient id="New_Gradient_Swatch_1-15" x1="8570.6" y1="451.1" x2="8627.24" y2="451.1" gradientTransform="matrix(-1, 0, 0, 1, 10611.48, 0)" xlink:href="#New_Gradient_Swatch_1"/><linearGradient id="New_Gradient_Swatch_1-16" x1="8577.9" y1="451.1" x2="8636.64" y2="451.1" gradientTransform="matrix(-1, 0, 0, 1, 10611.48, 0)" xlink:href="#New_Gradient_Swatch_1"/><linearGradient id="New_Gradient_Swatch_2-48" x1="8559.51" y1="782.57" x2="8587.6" y2="782.57" gradientTransform="matrix(-1, 0, 0, 1, 10261.53, 0)" xlink:href="#New_Gradient_Swatch_2"/><linearGradient id="New_Gradient_Swatch_2-49" x1="7845.61" y1="813.92" x2="7899.42" y2="813.92" gradientTransform="matrix(-1, 0, 0, 1, 9810.52, 0)" xlink:href="#New_Gradient_Swatch_2"/><linearGradient id="New_Gradient_Swatch_1-17" x1="7887.85" y1="797.55" x2="7924.76" y2="797.55" gradientTransform="matrix(-1, 0, 0, 1, 9810.52, 0)" xlink:href="#New_Gradient_Swatch_1"/><linearGradient id="New_Gradient_Swatch_1-18" x1="7877.19" y1="797.55" x2="7913.09" y2="797.55" gradientTransform="matrix(-1, 0, 0, 1, 9810.52, 0)" xlink:href="#New_Gradient_Swatch_1"/><linearGradient id="New_Gradient_Swatch_2-50" x1="7885.22" y1="740.51" x2="7948.14" y2="740.51" gradientTransform="matrix(-0.99, 0.01, -0.01, 0.99, 9769.66, -40.86)" xlink:href="#New_Gradient_Swatch_2"/><linearGradient id="New_Gradient_Swatch_2-51" x1="7879.22" y1="789.24" x2="7924.49" y2="789.24" gradientTransform="matrix(-1.01, -0.01, 0.01, 1.01, 9845.34, 34.82)" xlink:href="#New_Gradient_Swatch_2"/><linearGradient id="New_Gradient_Swatch_1-19" x1="7879.15" y1="766.56" x2="8016.3" y2="766.56" gradientTransform="matrix(-1, 0, 0, 1, 9810.52, 0)" xlink:href="#New_Gradient_Swatch_1"/><linearGradient id="New_Gradient_Swatch_1-20" x1="7830.53" y1="796.3" x2="8018.88" y2="796.3" gradientTransform="matrix(-1, 0, 0, 1, 9810.52, 0)" xlink:href="#New_Gradient_Swatch_1"/><linearGradient id="New_Gradient_Swatch_2-52" x1="7806.16" y1="797.03" x2="7845.61" y2="797.03" gradientTransform="matrix(-1, 0, 0, 1, 9810.52, 0)" xlink:href="#New_Gradient_Swatch_2"/><linearGradient id="New_Gradient_Swatch_2-53" x1="8858.19" y1="796.61" x2="8884.51" y2="796.61" gradientTransform="matrix(-1, 0, 0, 1, 10546.17, 0)" xlink:href="#New_Gradient_Swatch_2"/><linearGradient id="New_Gradient_Swatch_2-54" x1="782.07" y1="813.92" x2="835.87" y2="813.92" gradientTransform="translate(735.66)" xlink:href="#New_Gradient_Swatch_2"/><linearGradient id="New_Gradient_Swatch_1-21" x1="824.31" y1="797.55" x2="861.21" y2="797.55" gradientTransform="translate(735.66)" xlink:href="#New_Gradient_Swatch_1"/><linearGradient id="New_Gradient_Swatch_1-22" x1="813.64" y1="797.55" x2="849.55" y2="797.55" gradientTransform="translate(735.66)" xlink:href="#New_Gradient_Swatch_1"/><linearGradient id="New_Gradient_Swatch_2-55" x1="759.17" y1="803.02" x2="822.09" y2="803.02" gradientTransform="matrix(0.99, 0.01, 0.01, 0.99, 776.52, -40.86)" xlink:href="#New_Gradient_Swatch_2"/><linearGradient id="New_Gradient_Swatch_2-56" x1="867.26" y1="737.66" x2="912.52" y2="737.66" gradientTransform="matrix(1.01, -0.01, -0.01, 1.01, 700.83, 34.82)" xlink:href="#New_Gradient_Swatch_2"/><linearGradient id="New_Gradient_Swatch_1-23" x1="815.6" y1="766.56" x2="952.76" y2="766.56" gradientTransform="translate(735.66)" xlink:href="#New_Gradient_Swatch_1"/><linearGradient id="New_Gradient_Swatch_1-24" x1="766.98" y1="796.3" x2="955.34" y2="796.3" gradientTransform="translate(735.66)" xlink:href="#New_Gradient_Swatch_1"/><linearGradient id="New_Gradient_Swatch_2-57" x1="742.61" y1="797.03" x2="782.07" y2="797.03" gradientTransform="translate(735.66)" xlink:href="#New_Gradient_Swatch_2"/><linearGradient id="New_Gradient_Swatch_2-58" x1="7849.21" y1="577.84" x2="7903.02" y2="577.84" gradientTransform="translate(9810.52 601.79) rotate(180)" xlink:href="#New_Gradient_Swatch_2"/><linearGradient id="New_Gradient_Swatch_1-25" x1="7891.46" y1="530.49" x2="7928.36" y2="530.49" gradientTransform="translate(9810.52 601.79) rotate(180)" xlink:href="#New_Gradient_Swatch_1"/><linearGradient id="New_Gradient_Swatch_1-26" x1="7880.79" y1="530.49" x2="7916.7" y2="530.49" gradientTransform="translate(9810.52 601.79) rotate(180)" xlink:href="#New_Gradient_Swatch_1"/><linearGradient id="New_Gradient_Swatch_2-59" x1="7890.94" y1="502.31" x2="7953.87" y2="502.31" gradientTransform="matrix(-0.99, -0.01, -0.01, -0.99, 9769.66, 642.65)" xlink:href="#New_Gradient_Swatch_2"/><linearGradient id="New_Gradient_Swatch_2-60" x1="7881.08" y1="554.92" x2="7926.34" y2="554.92" gradientTransform="matrix(-1.01, 0.01, 0.01, -1.01, 9845.34, 566.97)" xlink:href="#New_Gradient_Swatch_2"/><linearGradient id="New_Gradient_Swatch_1-27" x1="7882.75" y1="530.49" x2="8019.91" y2="530.49" gradientTransform="translate(9810.52 601.79) rotate(180)" xlink:href="#New_Gradient_Swatch_1"/><linearGradient id="New_Gradient_Swatch_2-61" x1="7796.95" y1="529.21" x2="7849.21" y2="529.21" gradientTransform="translate(9810.52 601.79) rotate(180)" xlink:href="#New_Gradient_Swatch_2"/><linearGradient id="linear-gradient-5" x1="2066.76" y1="450.73" x2="2070.76" y2="450.73" xlink:href="#linear-gradient-2"/><linearGradient id="linear-gradient-6" x1="2077.54" y1="450.73" x2="2084.54" y2="450.73" xlink:href="#linear-gradient-2"/><linearGradient id="linear-gradient-7" x1="2093.79" y1="450.73" x2="2102.79" y2="450.73" xlink:href="#linear-gradient-2"/><linearGradient id="New_Gradient_Swatch_2-62" x1="1720.07" y1="668.84" x2="1762.04" y2="668.84" xlink:href="#New_Gradient_Swatch_2"/><linearGradient id="New_Gradient_Swatch_1-28" x1="1686.88" y1="781.57" x2="1795.23" y2="781.57" gradientTransform="matrix(1, 0, 0, 1, 0, 0)" xlink:href="#New_Gradient_Swatch_1"/><linearGradient id="New_Gradient_Swatch_1-29" x1="1750.6" y1="725.55" x2="1765.89" y2="725.55" gradientTransform="matrix(1, 0, 0, 1, 0, 0)" xlink:href="#New_Gradient_Swatch_1"/><linearGradient id="New_Gradient_Swatch_1-30" x1="1748.52" y1="749.68" x2="1765.55" y2="749.68" gradientTransform="matrix(1, 0, 0, 1, 0, 0)" xlink:href="#New_Gradient_Swatch_1"/><linearGradient id="linear-gradient-8" x1="1697.43" y1="733.6" x2="1784.34" y2="733.6" gradientTransform="matrix(1, 0, 0, 1, 0, 0)" xlink:href="#New_Gradient_Swatch_1"/><linearGradient id="New_Gradient_Swatch_1-31" x1="2098.29" y1="327.81" x2="1409.33" y2="327.81" gradientTransform="matrix(1, 0, 0, 1, 0, 0)" xlink:href="#New_Gradient_Swatch_1"/><linearGradient id="New_Gradient_Swatch_1-32" x1="2025.24" y1="229.22" x2="2050.21" y2="229.22" gradientTransform="matrix(1, 0, 0, 1, 0, 0)" xlink:href="#New_Gradient_Swatch_1"/><linearGradient id="New_Gradient_Swatch_1-33" x1="2025.24" y1="-494.77" x2="2050.29" y2="-494.77" gradientTransform="translate(0 1171.78)" xlink:href="#New_Gradient_Swatch_1"/><linearGradient id="New_Gradient_Swatch_1-34" x1="9371.16" y1="229.4" x2="9396.13" y2="229.4" gradientTransform="matrix(-1, 0, 0, 1, 10824.95, 0)" xlink:href="#New_Gradient_Swatch_1"/><linearGradient id="New_Gradient_Swatch_1-35" x1="9371.16" y1="-494.59" x2="9396.21" y2="-494.59" gradientTransform="matrix(-1, 0, 0, 1, 10824.95, 1171.78)" xlink:href="#New_Gradient_Swatch_1"/><linearGradient id="New_Gradient_Swatch_2-63" x1="1799.37" y1="207.84" x2="1799.37" y2="35.56" xlink:href="#New_Gradient_Swatch_2"/><linearGradient id="New_Gradient_Swatch_2-64" x1="8647.89" y1="192.87" x2="8677.19" y2="192.87" gradientTransform="matrix(-1, 0, 0, 1, 10346.01, 0)" xlink:href="#New_Gradient_Swatch_2"/><linearGradient id="New_Gradient_Swatch_2-65" x1="8646.96" y1="181.85" x2="8677.92" y2="181.85" gradientTransform="matrix(-1, 0, 0, 1, 10346.01, 0)" xlink:href="#New_Gradient_Swatch_2"/><linearGradient id="New_Gradient_Swatch_2-66" x1="8663.52" y1="207.84" x2="8663.52" y2="35.56" gradientTransform="matrix(-1, 0, 0, 1, 10346.01, 0)" xlink:href="#New_Gradient_Swatch_2"/><linearGradient id="New_Gradient_Swatch_1-36" x1="7834.13" y1="529.24" x2="8029.11" y2="529.24" gradientTransform="translate(9810.52 601.79) rotate(180)" xlink:href="#New_Gradient_Swatch_1"/><linearGradient id="New_Gradient_Swatch_1-37" x1="1355.33" y1="450.6" x2="1413.83" y2="450.6" gradientTransform="matrix(1, 0, 0, 1, 0, 0)" xlink:href="#New_Gradient_Swatch_1"/><linearGradient id="New_Gradient_Swatch_1-38" x1="0" y1="898.71" x2="2388.83" y2="898.71" gradientTransform="matrix(1, 0, 0, 1, 0, 0)" xlink:href="#New_Gradient_Swatch_1"/><linearGradient id="New_Gradient_Swatch_1-39" x1="1982.41" y1="3" x2="2388.83" y2="3" gradientTransform="matrix(1, 0, 0, 1, 0, 0)" xlink:href="#New_Gradient_Swatch_1"/><linearGradient id="New_Gradient_Swatch_1-40" x1="0" y1="3" x2="1646.16" y2="3" gradientTransform="matrix(1, 0, 0, 1, 0, 0)" xlink:href="#New_Gradient_Swatch_1"/><linearGradient id="New_Gradient_Swatch_1-41" x1="797.03" y1="529.24" x2="992" y2="529.24" gradientTransform="matrix(1, 0, 0, -1, 709.18, 601.79)" xlink:href="#New_Gradient_Swatch_1"/><linearGradient id="New_Gradient_Swatch_1-42" x1="1697.05" y1="351.79" x2="1785.26" y2="351.79" gradientTransform="matrix(1, 0, 0, -1, 0, 480.79)" xlink:href="#New_Gradient_Swatch_1"/></defs><g id="Layer_2" data-name="Layer 2"><g id="background"><polyline class="cls-1" points="354.94 898.19 354.94 638.08 305.43 638.08 305.43 236.14 354.94 236.14 354.82 2.98"/><polyline class="cls-2" points="341.24 898.19 341.24 652.63 291.73 652.63 291.73 223.39 341.24 223.39 341.12 2.98"/><polyline class="cls-3" points="325.34 898.19 325.34 669.66 275.83 669.66 275.83 205.97 325.34 205.97 325.23 2.98"/><line class="cls-4" x1="1792.74" y1="41.25" x2="1817.37" y2="41.25"/><line class="cls-5" x1="1792.74" y1="77.01" x2="1853.39" y2="77.01"/><line class="cls-6" x1="1793.53" y1="83.65" x2="1834.1" y2="124.22"/><polyline class="cls-7" points="1793.53 77.82 1837.56 121.85 1813.07 145.88"/><line class="cls-8" x1="1689.85" y1="77.01" x2="1629.21" y2="77.01"/><line class="cls-9" x1="1689.85" y1="82.86" x2="1648.5" y2="124.22"/><polyline class="cls-10" points="1689.86 77.03 1645.04 121.85 1669.52 145.88"/><line class="cls-11" x1="1669.52" y1="145.88" x2="1690.17" y2="145.88"/><line class="cls-12" x1="1813.07" y1="145.88" x2="1793.53" y2="145.88"/><polyline class="cls-13" points="1689.97 15.14 1690.18 151.76 1712.42 151.76 1712.42 175.67 1681.77 206.32"/><polyline class="cls-14" points="1793.63 11.02 1793.41 151.76 1770.17 151.76 1770.17 175.67 1801.34 206.84"/><polyline class="cls-15" points="1807.51 897.21 1807.51 693.48 1781.62 693.48 1781.62 667.94"/><line class="cls-16" x1="1669.52" y1="177.6" x2="1688.28" y2="177.6"/><line class="cls-17" x1="1653.25" y1="162.15" x2="1699.84" y2="162.15"/><polyline class="cls-18" points="1699.13 116.28 1653.25 162.15 1724.88 233.78"/><line class="cls-19" x1="1521.29" y1="23.95" x2="1575.1" y2="23.95"/><polyline class="cls-20" points="1598.94 2.64 1598.94 70.03 1565.04 70.03 1565.04 139.97"/><polyline class="cls-21" points="1587.78 2.64 1587.78 58.67 1553.87 58.67 1553.87 139.97"/><line class="cls-22" x1="1541.65" y1="46.64" x2="1600" y2="105"/><line class="cls-23" x1="1573.89" y1="44.98" x2="1616.95" y2="88.04"/><line class="cls-24" x1="1555.54" y1="139.18" x2="1691.28" y2="3.43"/><polyline class="cls-25" points="1520.29 2.64 1520.29 65.64 1496.29 65.64 1496.29 141.51 1470.03 141.51 1470.03 2.64"/><line class="cls-26" x1="1689.85" y1="41.25" x2="1665.23" y2="41.25"/><line class="cls-27" x1="1813.07" y1="177.6" x2="1794.32" y2="177.6"/><line class="cls-28" x1="1784.45" y1="178.91" x2="1812.34" y2="206.83"/><line class="cls-29" x1="1783.53" y1="167.08" x2="1813.07" y2="196.62"/><line class="cls-30" x1="1829.34" y1="162.15" x2="1782.76" y2="162.15"/><polyline class="cls-31" points="1783.47 116.28 1829.34 162.15 1757.72 233.78"/><polyline class="cls-32" points="1725.47 221.14 1725.47 266.38 1756.84 266.38 1756.84 221.08"/><line class="cls-33" x1="1747.49" y1="203.85" x2="1757.72" y2="203.85"/><line class="cls-34" x1="1746.09" y1="190.38" x2="1757.48" y2="190.38"/><line class="cls-35" x1="1741.1" y1="226" x2="1741.1" y2="80.34"/><path class="cls-36" d="M1747.49,220.77V171.36a27.74,27.74,0,0,1,20.43,20,81.8,81.8,0,0,1-5.65,6.45c2.21,2.26,3.75,3.75,6,6a27.7,27.7,0,0,1-54.28,0h20.67V171.38a27,27,0,0,0-20.22,19.7"/><line class="cls-37" x1="1741.15" y1="241.85" x2="1741.15" y2="282.06"/><line class="cls-38" x1="1792.73" y1="796.61" x2="1820.97" y2="796.61"/><line class="cls-39" x1="1440.87" y1="392.29" x2="1489.08" y2="444.63"/><line class="cls-40" x1="1440.87" y1="518.11" x2="1488.59" y2="466.32"/><polyline class="cls-41" points="1393.43 206.83 1393.43 115.56 1377.38 115.56 1377.5 2.64"/><polyline class="cls-42" points="1400.24 206.83 1400.24 108.13 1384.19 108.13 1384.31 2.64"/><polyline class="cls-43" points="1393.43 670.67 1393.43 767.64 1377.38 767.64 1377.5 901.76"/><polyline class="cls-44" points="1400.24 670.67 1400.24 775.07 1384.19 775.07 1384.31 901.76"/><line class="cls-45" x1="1489.2" y1="496.32" x2="1452.68" y2="455.8"/><line class="cls-46" x1="1467.99" y1="518.76" x2="1431.15" y2="478.76"/><line class="cls-47" x1="1489.37" y1="392.29" x2="1411.54" y2="476.77"/><line class="cls-48" x1="1468.68" y1="392.29" x2="1429.82" y2="433.49"/><line class="cls-49" x1="1489.37" y1="415.32" x2="1452.52" y2="455.32"/><line class="cls-50" x1="1489.37" y1="518.11" x2="1413.35" y2="435.6"/><polyline class="cls-51" points="1330.23 898.21 1330.23 638.1 1379.74 638.1 1379.74 236.16 1330.23 236.16 1330.35 3"/><polyline class="cls-52" points="1440.87 574.39 1440.87 518.12 1489.37 518.12 1489.37 392.29 1440.87 392.29 1440.87 327.81"/><polyline class="cls-53" points="1448.06 574.39 1448.06 525.53 1497.57 525.53 1497.57 384.71 1448.06 384.71 1448.06 327.81"/><line class="cls-54" x1="1409.33" y1="573.96" x2="2098.29" y2="573.96"/><line class="cls-55" x1="1409.33" y1="586.17" x2="2098.29" y2="586.17"/><line class="cls-56" x1="1409.33" y1="598.39" x2="2098.29" y2="598.39"/><line class="cls-57" x1="1409.33" y1="340.02" x2="2098.29" y2="340.02"/><line class="cls-58" x1="1409.33" y1="352.24" x2="2098.29" y2="352.24"/><polyline class="cls-59" points="1343.93 898.21 1343.93 652.65 1393.44 652.65 1393.44 223.41 1343.93 223.41 1344.05 3"/><line class="cls-60" x1="2038.89" y1="392.29" x2="1986.55" y2="444.63"/><line class="cls-61" x1="2038.89" y1="518.11" x2="1987.09" y2="466.32"/><line class="cls-62" x1="1986.42" y1="496.32" x2="2026.07" y2="455.8"/><line class="cls-63" x1="2009.44" y1="518.76" x2="2049.44" y2="478.76"/><line class="cls-64" x1="1986.24" y1="392.29" x2="2068.76" y2="474.81"/><line class="cls-65" x1="2008.69" y1="392.29" x2="2049.21" y2="431.94"/><line class="cls-66" x1="1986.24" y1="415.32" x2="2026.24" y2="455.32"/><line class="cls-67" x1="1986.24" y1="518.11" x2="2068.76" y2="435.6"/><polyline class="cls-68" points="2038.89 574.39 2038.89 518.12 1986.24 518.12 1986.24 392.29 2038.89 392.29 2038.89 327.81"/><polyline class="cls-69" points="2031.08 574.39 2031.08 525.53 1977.34 525.53 1977.34 384.71 2031.08 384.71 2031.08 327.81"/><polyline class="cls-70" points="1674.94 897.21 1674.94 693.48 1701.03 693.48 1701.03 667.94"/><line class="cls-71" x1="1964.9" y1="813.92" x2="1911.1" y2="813.92"/><polyline class="cls-72" points="1887.26 897.21 1887.26 767.84 1921.16 767.84 1921.16 697.9"/><polyline class="cls-73" points="1898.42 897.21 1898.42 779.19 1932.33 779.19 1932.33 697.9"/><line class="cls-74" x1="1944.55" y1="791.23" x2="1886.2" y2="732.87"/><line class="cls-75" x1="1912.31" y1="792.89" x2="1869.24" y2="749.82"/><line class="cls-76" x1="1930.66" y1="698.69" x2="1794.92" y2="834.43"/><polyline class="cls-77" points="1911.68 897.21 1911.68 792.26 1935.58 792.26 1945.58 792.26 1945.58 754.23 1977.48 754.23 1977.48 697.9 1921.16 697.9 1793.4 825.66"/><polyline class="cls-78" points="1965.9 897.21 1965.9 772.23 1989.9 772.23 1989.9 696.36 2003.36 696.36 2003.36 898.71"/><line class="cls-79" x1="1687.98" y1="796.61" x2="1661.66" y2="796.61"/><line class="cls-80" x1="1517.72" y1="813.92" x2="1571.53" y2="813.92"/><polyline class="cls-81" points="1595.37 897.21 1595.37 767.84 1561.47 767.84 1561.47 697.9"/><polyline class="cls-82" points="1584.21 897.21 1584.21 779.19 1550.3 779.19 1550.3 697.9"/><line class="cls-83" x1="1538.08" y1="791.23" x2="1596.43" y2="732.87"/><line class="cls-84" x1="1570.32" y1="792.89" x2="1613.39" y2="749.82"/><line class="cls-85" x1="1551.97" y1="698.69" x2="1687.71" y2="834.43"/><polyline class="cls-86" points="1570.95 897.21 1570.95 792.26 1547.05 792.26 1537.05 792.26 1537.05 754.23 1505.14 754.23 1505.14 697.9 1561.47 697.9 1689.23 825.66"/><polyline class="cls-87" points="1516.72 897.21 1516.72 772.23 1492.72 772.23 1492.72 696.36 1479.27 696.36 1479.27 898.71"/><line class="cls-88" x1="1961.3" y1="23.95" x2="1907.49" y2="23.95"/><polyline class="cls-89" points="1883.65 2.64 1883.65 70.03 1917.56 70.03 1917.56 139.97"/><polyline class="cls-90" points="1894.82 2.64 1894.82 58.67 1928.72 58.67 1928.72 139.97"/><line class="cls-91" x1="1940.95" y1="46.64" x2="1882.59" y2="105"/><line class="cls-92" x1="1908.7" y1="44.98" x2="1865.64" y2="88.04"/><line class="cls-93" x1="1927.06" y1="139.18" x2="1791.32" y2="3.43"/><polyline class="cls-94" points="1962.3 2.64 1962.3 65.64 1986.3 65.64 1986.3 141.51 2012.57 141.51 2012.57 2.64"/><line class="cls-95" x1="2068.76" y1="898.47" x2="2068.76" y2="3"/><line class="cls-96" x1="2081.04" y1="898.47" x2="2081.04" y2="3"/><line class="cls-97" x1="2098.29" y1="898.47" x2="2098.29" y2="3"/><polyline class="cls-98" points="1721.57 697.1 1721.57 642.08 1760.54 642.08 1760.54 697.1"/><polyline class="cls-99" points="1689.38 897.69 1689.38 667.94 1792.73 667.94 1792.73 897.69"/><line class="cls-100" x1="1750.6" y1="725.55" x2="1765.89" y2="725.55"/><line class="cls-101" x1="1748.52" y1="749.68" x2="1765.55" y2="749.68"/><line class="cls-102" x1="1741.06" y1="692.43" x2="1741.06" y2="874.52"/><path class="cls-103" d="M1750.6,700.26v73.85a41.46,41.46,0,0,0,30.55-30c-4.87-5.82-5.64-6.84-8.45-9.64,3.3-3.38,5.61-5.62,8.93-9a41.41,41.41,0,0,0-81.14,0h30.89v48.53a40.41,40.41,0,0,1-30.23-29.45"/><line class="cls-37" x1="1741.06" y1="678.38" x2="1741.06" y2="630.39"/><line class="cls-104" x1="1409.33" y1="327.81" x2="2098.29" y2="327.81"/><polyline class="cls-105" points="2026.24 2.64 2026.24 86.64 2049.21 86.64 2049.21 202.5 2026.24 202.5 2026.24 312.78 2049.21 312.78 2049.21 433.31 2026.24 433.31 2026.24 455.8"/><polyline class="cls-106" points="2026.24 455.8 2026.24 478.19 2049.21 478.19 2049.29 615.23 2026.32 615.23 2026.32 725.5 2049.29 725.5 2049.29 846.03 2026.32 846.03 2026.26 898.21"/><polyline class="cls-107" points="1452.79 2.82 1452.79 86.82 1429.82 86.82 1429.82 202.68 1452.79 202.68 1452.79 312.96 1429.82 312.96 1429.82 433.49 1452.79 433.49 1452.79 455.98"/><polyline class="cls-108" points="1452.79 455.98 1452.79 478.37 1429.82 478.37 1429.74 615.4 1452.71 615.4 1452.71 725.68 1429.74 725.68 1429.74 846.21 1452.71 846.21 1452.78 898.39"/><polyline class="cls-109" points="1813.07 35.56 1813.07 206.84 1784.68 206.84"/><line class="cls-110" x1="1697.42" y1="178.91" x2="1669.53" y2="206.83"/><line class="cls-111" x1="1698.34" y1="167.08" x2="1668.8" y2="196.62"/><polyline class="cls-112" points="1668.8 35.56 1668.8 206.84 1697.19 206.84"/><polyline class="cls-113" points="1908.08 2.64 1908.08 45.61 1931.98 45.61 1941.98 45.61 1941.98 83.64 1973.88 83.64 1973.88 139.96 1917.56 139.96 1783.18 5.58"/><polyline class="cls-114" points="1359.83 898.21 1359.83 669.68 1409.33 669.68 1409.33 205.99 1359.83 205.99 1359.94 3"/><line class="cls-115" y1="898.71" x2="2388.83" y2="898.71"/><line class="cls-116" x1="1982.41" y1="3" x2="2388.83" y2="3"/><line class="cls-117" y1="3" x2="1646.16" y2="3"/><polyline class="cls-118" points="1574.52 2.64 1574.52 45.61 1550.62 45.61 1540.62 45.61 1540.62 83.64 1508.71 83.64 1508.71 139.96 1565.04 139.96 1699.42 5.58"/><polyline class="cls-119" points="1699.55 1.84 1699.55 255.31 1782.76 255.31 1782.76 0.19"/></g></g></svg>