<svg xmlns="http://www.w3.org/2000/svg" xmlns:xlink="http://www.w3.org/1999/xlink" viewBox="0 0 1784.1 887.46"><defs><style>.cls-1{fill:url(#linear-gradient);}.cls-2,.cls-4{fill:#1a1a1a;}.cls-2,.cls-6{stroke:#333;}.cls-2,.cls-6,.cls-9{stroke-miterlimit:10;stroke-width:5px;}.cls-3{clip-path:url(#clip-path);}.cls-5{clip-path:url(#clip-path-2);}.cls-6,.cls-9{fill:none;}.cls-7{fill:#fff;}.cls-8{fill:#e2c482;}.cls-9{stroke:url(#linear-gradient-3);}</style><linearGradient id="linear-gradient" x1="2.5" y1="298.02" x2="1781.6" y2="298.02" gradientUnits="userSpaceOnUse"><stop offset="0"/><stop offset="0.75" stop-color="#4683f3"/><stop offset="1" stop-color="#0bbafb"/></linearGradient><clipPath id="clip-path"><rect class="cls-1" x="2.5" y="2.5" width="1779.1" height="591.04"/></clipPath><clipPath id="clip-path-2"><path class="cls-2" d="M714.9,117.39h798.19a24.41,24.41,0,0,1,24.41,24.41V605.28a0,0,0,0,1,0,0h-847a0,0,0,0,1,0,0V141.81A24.41,24.41,0,0,1,714.9,117.39Z"/></clipPath><linearGradient id="linear-gradient-3" y1="298.02" x2="1784.1" y2="298.02" gradientUnits="userSpaceOnUse"><stop offset="0" stop-color="#514017"/><stop offset="0.64" stop-color="#fcdb9a"/><stop offset="1" stop-color="#5e4713"/></linearGradient></defs><g id="Layer_2" data-name="Layer 2"><g id="vetical_hrs" data-name="vetical hrs"><rect class="cls-1" x="2.5" y="2.5" width="1779.1" height="591.04"/><g class="cls-3"><path class="cls-4" d="M714.9,117.39h798.19a24.41,24.41,0,0,1,24.41,24.41V605.28a0,0,0,0,1,0,0h-847a0,0,0,0,1,0,0V141.81A24.41,24.41,0,0,1,714.9,117.39Z"/><g class="cls-5"><image width="1520" height="889" transform="translate(700.38 162.88) scale(0.54 0.53)" xlink:href="hsf1.PNG"/></g><path class="cls-6" d="M714.9,117.39h798.19a24.41,24.41,0,0,1,24.41,24.41V605.28a0,0,0,0,1,0,0h-847a0,0,0,0,1,0,0V141.81A24.41,24.41,0,0,1,714.9,117.39Z"/><ellipse class="cls-7" cx="710.74" cy="144.09" rx="2.73" ry="2.8"/><ellipse class="cls-8" cx="721.52" cy="144.09" rx="2.73" ry="2.8"/><ellipse class="cls-7" cx="732.04" cy="144.09" rx="2.73" ry="2.8"/><image width="360" height="720" transform="translate(1399.53 167.46)" xlink:href="hsf-phone.png"/></g><rect class="cls-9" x="2.5" y="2.5" width="1779.1" height="591.04"/></g></g></svg>