<svg xmlns="http://www.w3.org/2000/svg" viewBox="0 0 36.46 48.16"><defs><style>.cls-1{fill:#e2c482;stroke-width:0.75px;}.cls-1,.cls-2{stroke:#e2c482;stroke-linejoin:round;}.cls-2{fill:none;}</style></defs><g id="Layer_2" data-name="Layer 2"><g id="background"><path class="cls-1" d="M7.05,26.28,24,5.6,4,26.7a.1.1,0,0,0,.1.17l15.72-3.13a.11.11,0,0,1,.1.17S.3,47.89.38,47.78L16.29,24.44"/><path class="cls-1" d="M21.91,20.64S36.17.28,36.09.38L18.85,21a.1.1,0,0,0,.1.17l14.18-2.53a.1.1,0,0,1,.1.17S14.86,41.11,14.93,41l15-21.75"/><circle class="cls-2" cx="18.75" cy="23.25" r="15.23"/></g></g></svg>