<svg xmlns="http://www.w3.org/2000/svg" viewBox="0 0 341.47 48.16"><defs><style>.cls-1{font-size:35px;fill:#fff;font-family:DolceVitaLight, Dolce Vita Light;}.cls-2{fill:#e2c482;stroke-width:0.75px;}.cls-2,.cls-3{stroke:#e2c482;stroke-linejoin:round;}.cls-3{fill:none;}</style></defs><g id="Layer_2" data-name="Layer 2"><g id="background"><text class="cls-1" transform="translate(0 35.18)">shaun bolak</text><text class="cls-1" transform="translate(246.3 35.18)">design</text><path class="cls-2" d="M208.66,26.28l17-20.68-20,21.1a.1.1,0,0,0,.1.17l15.72-3.13a.11.11,0,0,1,.1.17s-19.62,24-19.55,23.87l15.91-23.34"/><path class="cls-2" d="M223.51,20.64S237.78.28,237.69.38L220.45,21a.1.1,0,0,0,.1.17l14.18-2.53a.1.1,0,0,1,.1.17S216.46,41.11,216.54,41l15-21.75"/><circle class="cls-3" cx="220.36" cy="23.25" r="15.23"/></g></g></svg>