<svg xmlns="http://www.w3.org/2000/svg" viewBox="0 0 339.47 48.16"><defs><style>.cls-1{fill:#fff;}.cls-2{fill:#e2c482;stroke-width:0.75px;}.cls-2,.cls-3{stroke:#e2c482;stroke-linejoin:round;}.cls-3{fill:none;}</style></defs><g id="Layer_2" data-name="Layer 2"><g id="background"><path class="cls-1" d="M7.19,35.4A9.41,9.41,0,0,1,3,34.21a6.36,6.36,0,0,1-3-3.32l.85-.32a5.44,5.44,0,0,0,2.62,2.88,8.56,8.56,0,0,0,3.76,1,7.43,7.43,0,0,0,5.14-1.56,4.86,4.86,0,0,0,2-3.69q.16-4-6.77-5.93A14,14,0,0,1,2,20.55a5,5,0,0,1-1.79-4A5.68,5.68,0,0,1,3,11.6a9,9,0,0,1,5.32-1.18,8.32,8.32,0,0,1,6,2.54l-.69.64a7.36,7.36,0,0,0-5.33-2.28,8.5,8.5,0,0,0-4.8,1,4.87,4.87,0,0,0-2.36,4.21Q.95,20.5,7.88,22.45a13.75,13.75,0,0,1,5.64,2.78,5,5,0,0,1,1.79,4.05,5.83,5.83,0,0,1-2.37,4.38,8.22,8.22,0,0,1-5.3,1.76Z"/><path class="cls-1" d="M34,10.64V35.18h-.91V23.32H18.39V35.18h-.92V10.64h.92V22.41H33.05V10.64Z"/><path class="cls-1" d="M53,10.64V35.18h-.91V28.69H41l-4.1,6.49H35.8l4.6-7.26v-.16h.09L51.32,10.64ZM41.58,27.76H52.12V11.1Z"/><path class="cls-1" d="M58.91,33.21a7.88,7.88,0,0,1-2.43-5.82V10.62h.92V27.39a7.34,7.34,0,0,0,14.67,0V10.62H73V27.39a8.24,8.24,0,0,1-14.08,5.82Z"/><path class="cls-1" d="M92.59,10.64V35.18H91.14L77,11.56V35.18H76.1V10.64h1.44L91.67,34.27V10.64Z"/><path class="cls-1" d="M104.28,35.18V10.64h7.09a6,6,0,0,1,4.46,1.86A6,6,0,0,1,117.7,17a6.27,6.27,0,0,1-.92,3.3,6.46,6.46,0,0,1-2.41,2.29,6.43,6.43,0,0,1,4.93,6.22,6.42,6.42,0,0,1-6.39,6.41Zm.93-12.8h6.16A5.43,5.43,0,0,0,116.78,17a5.43,5.43,0,0,0-5.41-5.4h-6.16Zm0,11.88h7.7a5.49,5.49,0,0,0,3.87-9.37,5.32,5.32,0,0,0-3.87-1.59h-7.7Z"/><path class="cls-1" d="M124.21,31.74a12,12,0,0,1-3.68-8.83,12,12,0,0,1,3.68-8.84,12.47,12.47,0,0,1,17.67,0,12,12,0,0,1,3.67,8.84,12,12,0,0,1-3.67,8.83,12.45,12.45,0,0,1-17.67,0Zm.65-17a11.13,11.13,0,0,0-3.4,8.19,11.16,11.16,0,0,0,3.4,8.19,11.55,11.55,0,0,0,16.37,0,11.16,11.16,0,0,0,3.4-8.19,11.13,11.13,0,0,0-3.4-8.19,11.55,11.55,0,0,0-16.37,0Z"/><path class="cls-1" d="M148.58,10.64V34.26H160.2v.92H147.66V10.64Z"/><path class="cls-1" d="M178.54,10.64V35.18h-.91V28.69H166.51l-4.1,6.49h-1.1l4.6-7.26v-.16H166l10.84-17.12ZM167.09,27.76h10.54V11.1Z"/><path class="cls-1" d="M196.09,10.64l-9.83,12.22L196.4,35.18h-1.2l-9.54-11.59-2.92,3.66v7.93h-.92V10.66h.92V25.78l12.17-15.14Z"/><path class="cls-1" d="M253,10.64a11.83,11.83,0,0,1,8.67,3.6,11.85,11.85,0,0,1,3.59,8.67,11.81,11.81,0,0,1-3.59,8.66A11.8,11.8,0,0,1,253,35.18h-5.67V10.64Zm0,23.62a11.35,11.35,0,0,0,11.35-11.35,11,11,0,0,0-3.33-8,11,11,0,0,0-8-3.32h-4.75v22.7Z"/><path class="cls-1" d="M280,10.64v.92H268.4V22.41h9.34v.91H268.4V34.26H280v.92H267.47V10.64Z"/><path class="cls-1" d="M288.55,35.4a9.42,9.42,0,0,1-4.24-1.19,6.36,6.36,0,0,1-3-3.32l.86-.32a5.38,5.38,0,0,0,2.61,2.88,8.56,8.56,0,0,0,3.76,1,7.43,7.43,0,0,0,5.14-1.56,4.86,4.86,0,0,0,2-3.69q.17-4-6.77-5.93a14,14,0,0,1-5.64-2.77,5,5,0,0,1-1.79-4,5.7,5.7,0,0,1,2.8-4.93,9,9,0,0,1,5.32-1.18,8.3,8.3,0,0,1,6,2.54l-.69.64a7.36,7.36,0,0,0-5.33-2.28,8.5,8.5,0,0,0-4.8,1,4.87,4.87,0,0,0-2.36,4.21q-.16,3.93,6.77,5.88a13.75,13.75,0,0,1,5.64,2.78,5,5,0,0,1,1.79,4.05,5.83,5.83,0,0,1-2.37,4.38,8.22,8.22,0,0,1-5.3,1.76Z"/><path class="cls-1" d="M299.74,35.18h-.92V10.64h.92Z"/><path class="cls-1" d="M305.65,31.74A12,12,0,0,1,302,22.91a12,12,0,0,1,3.67-8.84,12,12,0,0,1,8.84-3.67,12.29,12.29,0,0,1,4.87,1l-.36.84a11.43,11.43,0,0,0-4.51-.91,11.17,11.17,0,0,0-8.19,3.4,11.13,11.13,0,0,0-3.4,8.19,11.16,11.16,0,0,0,3.4,8.19,11.17,11.17,0,0,0,8.19,3.4,11.35,11.35,0,0,0,4.25-.81V23.28h-6.15v-.92h7.08v12l-.29.12a12.35,12.35,0,0,1-4.89,1A12,12,0,0,1,305.65,31.74Z"/><path class="cls-1" d="M339.47,10.64V35.18H338L323.9,11.56V35.18H323V10.64h1.44l14.13,23.63V10.64Z"/><path class="cls-2" d="M208.11,26.28,225.06,5.6l-20,21.1a.11.11,0,0,0,.1.17l15.72-3.13a.1.1,0,0,1,.1.17s-19.62,24-19.55,23.87l15.91-23.34"/><path class="cls-2" d="M223,20.64S237.23.28,237.14.38L219.9,21a.1.1,0,0,0,.1.17l14.19-2.53a.11.11,0,0,1,.1.17S215.92,41.11,216,41l15-21.75"/><circle class="cls-3" cx="219.81" cy="23.25" r="15.23"/></g></g></svg>