<svg xmlns="http://www.w3.org/2000/svg" viewBox="0 0 302.47 77.41"><defs><style>.cls-1{fill:#c9ad75;}</style></defs><g id="Layer_2" data-name="Layer 2"><g id="vetical_hrs" data-name="vetical hrs"><path class="cls-1" d="M11.5.79V58.32L45.38.79H59.27V58.32L93.15.79h13.36L61.82,76.66H47.72V19.56L14.1,76.66H0V.79Z"/><path class="cls-1" d="M113.14,66.06A37.29,37.29,0,0,1,101.79,38.7a37.29,37.29,0,0,1,11.35-27.35,38.65,38.65,0,0,1,54.72,0A37.28,37.28,0,0,1,179.2,38.7a37.28,37.28,0,0,1-11.34,27.36,38.65,38.65,0,0,1-54.72,0Zm8.17-46.55a26.12,26.12,0,0,0-8,19.19,26.15,26.15,0,0,0,8,19.2,27.14,27.14,0,0,0,38.38,0,26.18,26.18,0,0,0,7.95-19.2,26.15,26.15,0,0,0-7.95-19.19,27.14,27.14,0,0,0-38.38,0Z"/><path class="cls-1" d="M241.6,76.66h-13L212,44.7H199v32h-11.5V.79h28A21,21,0,0,1,231,7.26a21.1,21.1,0,0,1,6.47,15.54A21.2,21.2,0,0,1,233.71,35a21.7,21.7,0,0,1-9.6,8ZM215.52,33.19A10.4,10.4,0,0,0,225.91,22.8a10.21,10.21,0,0,0-3-7.42,10.06,10.06,0,0,0-7.37-3.08H199V33.19Z"/><path class="cls-1" d="M301.41.79,271.08,38.54l31.39,38.12h-15L263.71,47.72l-3.55,4.4V76.66h-11.5V.79h11.5V33.72L286.67.79Z"/></g></g></svg>